<ttFont>
    <TTGlyph name="A" xMin="16" yMin="0" xMax="1310" yMax="1456">
      <contour>
        <pt x="948" y="340" on="1"/>
        <pt x="378" y="340" on="1"/>
        <pt x="262" y="0" on="1"/>
        <pt x="16" y="0" on="1"/>
        <pt x="551" y="1456" on="1"/>
        <pt x="781" y="1456" on="1"/>
        <pt x="1310" y="0" on="1"/>
        <pt x="1063" y="0" on="1"/>
      </contour>
      <contour>
        <pt x="448" y="543" on="1"/>
        <pt x="879" y="543" on="1"/>
        <pt x="668" y="1165" on="1"/>
        <pt x="662" y="1165" on="1"/>
      </contour>
    </TTGlyph>
    <TTGlyph name="A.smcp" xMin="28" yMin="0" xMax="1196" yMax="1165">
      <contour>
        <pt x="855" y="233" on="1"/>
        <pt x="368" y="233" on="1"/>
        <pt x="282" y="0" on="1"/>
        <pt x="28" y="0" on="1"/>
        <pt x="488" y="1165" on="1"/>
        <pt x="736" y="1165" on="1"/>
        <pt x="1196" y="0" on="1"/>
        <pt x="942" y="0" on="1"/>
      </contour>
      <contour>
        <pt x="440" y="427" on="1"/>
        <pt x="783" y="427" on="1"/>
        <pt x="614" y="880" on="1"/>
        <pt x="608" y="880" on="1"/>
      </contour>
    </TTGlyph>
    <TTGlyph name="AE" xMin="-10" yMin="0" xMax="1879" yMax="1456">
      <contour>
        <pt x="1879" y="0" on="1"/>
        <pt x="981" y="0" on="1"/>
        <pt x="966" y="340" on="1"/>
        <pt x="464" y="340" on="1"/>
        <pt x="280" y="0" on="1"/>
        <pt x="-10" y="0" on="1"/>
        <pt x="825" y="1456" on="1"/>
        <pt x="1817" y="1456" on="1"/>
        <pt x="1817" y="1259" on="1"/>
        <pt x="1171" y="1259" on="1"/>
        <pt x="1188" y="851" on="1"/>
        <pt x="1736" y="851" on="1"/>
        <pt x="1736" y="654" on="1"/>
        <pt x="1196" y="654" on="1"/>
        <pt x="1216" y="196" on="1"/>
        <pt x="1879" y="196" on="1"/>
      </contour>
      <contour>
        <pt x="580" y="555" on="1"/>
        <pt x="957" y="555" on="1"/>
        <pt x="930" y="1192" on="1"/>
        <pt x="925" y="1193" on="1"/>
      </contour>
    </TTGlyph>
    <TTGlyph name="AEacute" xMin="-10" yMin="0" xMax="1879" yMax="1825">
      <component glyphName="AE" x="0" y="0" flags="0x204"/>
      <component glyphName="acute" x="696" y="347" flags="0x4"/>
    </TTGlyph>
    <TTGlyph name="Aacute" xMin="16" yMin="0" xMax="1310" yMax="1825">
      <component glyphName="A" x="0" y="0" flags="0x204"/>
      <component glyphName="acute" x="449" y="347" flags="0x4"/>
    </TTGlyph>
    <TTGlyph name="Aacute.smcp" xMin="28" yMin="0" xMax="1196" yMax="1502">
      <component glyphName="A.smcp" x="0" y="0" flags="0x204"/>
      <component glyphName="acute" x="369" y="24" flags="0x4"/>
    </TTGlyph>
    <TTGlyph name="Abreve" xMin="16" yMin="0" xMax="1310" yMax="1884">
      <component glyphName="A" x="0" y="0" flags="0x204"/>
      <component glyphName="breve" x="221" y="428" flags="0x4"/>
    </TTGlyph>
    <TTGlyph name="Abreve.smcp" xMin="28" yMin="0" xMax="1196" yMax="1561">
      <component glyphName="A.smcp" x="0" y="0" flags="0x204"/>
      <component glyphName="breve" x="173" y="105" flags="0x4"/>
    </TTGlyph>
    <TTGlyph name="Acircumflex" xMin="16" yMin="0" xMax="1310" yMax="1863">
      <component glyphName="A" x="0" y="0" flags="0x204"/>
      <component glyphName="circumflex" x="169" y="345" flags="0x4"/>
    </TTGlyph>
    <TTGlyph name="Acircumflex.smcp" xMin="28" yMin="0" xMax="1196" yMax="1540">
      <component glyphName="A.smcp" x="0" y="0" flags="0x204"/>
      <component glyphName="circumflex" x="121" y="22" flags="0x4"/>
    </TTGlyph>
    <TTGlyph name="Adieresis" xMin="16" yMin="0" xMax="1310" yMax="1805">
      <component glyphName="A" x="0" y="0" flags="0x204"/>
      <component glyphName="dieresis" x="134" y="349" flags="0x4"/>
    </TTGlyph>
    <TTGlyph name="Adieresis.smcp" xMin="28" yMin="0" xMax="1196" yMax="1482">
      <component glyphName="A.smcp" x="0" y="0" flags="0x204"/>
      <component glyphName="dieresis" x="86" y="26" flags="0x4"/>
    </TTGlyph>
    <TTGlyph name="Agrave" xMin="16" yMin="0" xMax="1310" yMax="1826">
      <component glyphName="A" x="0" y="0" flags="0x204"/>
      <component glyphName="grave" x="266" y="348" flags="0x4"/>
    </TTGlyph>
    <TTGlyph name="Agrave.smcp" xMin="28" yMin="0" xMax="1196" yMax="1503">
      <component glyphName="A.smcp" x="0" y="0" flags="0x204"/>
      <component glyphName="grave" x="186" y="25" flags="0x4"/>
    </TTGlyph>
    <TTGlyph name="Alpha" xMin="16" yMin="0" xMax="1310" yMax="1456">
      <component glyphName="A" x="0" y="0" flags="0x204"/>
    </TTGlyph>
    <TTGlyph name="Alphatonos" xMin="16" yMin="0" xMax="1310" yMax="1638">
      <component glyphName="A" x="0" y="0" flags="0x204"/>
      <component glyphName="tonos" x="-36" y="0" flags="0x4"/>
    </TTGlyph>
    <TTGlyph name="Amacron" xMin="16" yMin="0" xMax="1310" yMax="1782">
      <component glyphName="A" x="0" y="0" flags="0x204"/>
      <component glyphName="macron" x="162" y="326" flags="0x4"/>
    </TTGlyph>
    <TTGlyph name="Amacron.smcp" xMin="28" yMin="0" xMax="1196" yMax="1459">
      <component glyphName="A.smcp" x="0" y="0" flags="0x204"/>
      <component glyphName="macron" x="114" y="3" flags="0x4"/>
    </TTGlyph>
    <TTGlyph name="Aogonek" xMin="16" yMin="-430" xMax="1352" yMax="1456">
      <component glyphName="A" x="0" y="0" flags="0x204"/>
      <component glyphName="ogonek" x="861" y="0" flags="0x4"/>
    </TTGlyph>
    <TTGlyph name="Aogonek.smcp" xMin="28" yMin="-430" xMax="1235" yMax="1165">
      <component glyphName="A.smcp" x="0" y="0" flags="0x204"/>
      <component glyphName="ogonek" x="744" y="0" flags="0x4"/>
    </TTGlyph>
    <TTGlyph name="Aring" xMin="16" yMin="0" xMax="1310" yMax="1935">
      <component glyphName="A" x="0" y="0" flags="0x204"/>
      <component glyphName="ring" x="320" y="435" flags="0x4"/>
    </TTGlyph>
    <TTGlyph name="Aring.smcp" xMin="28" yMin="0" xMax="1196" yMax="1612">
      <component glyphName="A.smcp" x="0" y="0" flags="0x204"/>
      <component glyphName="ring" x="272" y="112" flags="0x4"/>
    </TTGlyph>
    <TTGlyph name="Aringacute" xMin="16" yMin="0" xMax="1310" yMax="2114">
      <component glyphName="A" x="0" y="0" flags="0x204"/>
      <component glyphName="ringacute" x="331" y="421" flags="0x4"/>
    </TTGlyph>
    <TTGlyph name="Aringacute.smcp" xMin="28" yMin="0" xMax="1196" yMax="1791">
      <component glyphName="A.smcp" x="0" y="0" flags="0x204"/>
      <component glyphName="ringacute" x="276" y="98" flags="0x4"/>
    </TTGlyph>
    <TTGlyph name="Atilde" xMin="16" yMin="0" xMax="1310" yMax="1891">
      <component glyphName="A" x="0" y="0" flags="0x204"/>
      <component glyphName="tilde" x="172" y="364" flags="0x4"/>
    </TTGlyph>
    <TTGlyph name="Atilde.smcp" xMin="28" yMin="0" xMax="1196" yMax="1568">
      <component glyphName="A.smcp" x="0" y="0" flags="0x204"/>
      <component glyphName="tilde" x="124" y="41" flags="0x4"/>
    </TTGlyph>
    <TTGlyph name="B" xMin="159" yMin="0" xMax="1212" yMax="1456">
      <contour>
        <pt x="159" y="0" on="1"/>
        <pt x="159" y="1456" on="1"/>
        <pt x="643" y="1456" on="1"/>
        <pt x="885" y="1456" on="0"/>
        <pt x="1157" y="1257" on="0"/>
        <pt x="1157" y="1059" on="1"/>
        <pt x="1157" y="960" on="0"/>
        <pt x="1043" y="804" on="0"/>
        <pt x="942" y="766" on="1"/>
        <pt x="1072" y="737" on="0"/>
        <pt x="1212" y="545" on="0"/>
        <pt x="1212" y="418" on="1"/>
        <pt x="1212" y="213" on="0"/>
        <pt x="944" y="0" on="0"/>
        <pt x="708" y="0" on="1"/>
      </contour>
      <contour>
        <pt x="402" y="662" on="1"/>
        <pt x="402" y="194" on="1"/>
        <pt x="708" y="194" on="1"/>
        <pt x="834" y="194" on="0"/>
        <pt x="970" y="309" on="0"/>
        <pt x="970" y="418" on="1"/>
        <pt x="970" y="534" on="0"/>
        <pt x="856" y="662" on="0"/>
        <pt x="735" y="662" on="1"/>
      </contour>
      <contour>
        <pt x="402" y="843" on="1"/>
        <pt x="670" y="843" on="1"/>
        <pt x="783" y="843" on="0"/>
        <pt x="914" y="950" on="0"/>
        <pt x="914" y="1048" on="1"/>
        <pt x="914" y="1156" on="0"/>
        <pt x="776" y="1261" on="0"/>
        <pt x="643" y="1261" on="1"/>
        <pt x="402" y="1261" on="1"/>
      </contour>
    </TTGlyph>
    <TTGlyph name="B.smcp" xMin="142" yMin="0" xMax="1070" yMax="1165">
      <contour>
        <pt x="142" y="0" on="1"/>
        <pt x="142" y="1165" on="1"/>
        <pt x="571" y="1165" on="1"/>
        <pt x="786" y="1165" on="0"/>
        <pt x="1025" y="1004" on="0"/>
        <pt x="1025" y="844" on="1"/>
        <pt x="1025" y="761" on="0"/>
        <pt x="925" y="631" on="0"/>
        <pt x="834" y="598" on="1"/>
        <pt x="948" y="572" on="0"/>
        <pt x="1070" y="427" on="0"/>
        <pt x="1070" y="330" on="1"/>
        <pt x="1070" y="167" on="0"/>
        <pt x="845" y="0" on="0"/>
        <pt x="640" y="0" on="1"/>
      </contour>
      <contour>
        <pt x="384" y="506" on="1"/>
        <pt x="384" y="192" on="1"/>
        <pt x="640" y="192" on="1"/>
        <pt x="736" y="192" on="0"/>
        <pt x="827" y="269" on="0"/>
        <pt x="827" y="344" on="1"/>
        <pt x="827" y="422" on="0"/>
        <pt x="735" y="506" on="0"/>
        <pt x="640" y="506" on="1"/>
      </contour>
      <contour>
        <pt x="384" y="674" on="1"/>
        <pt x="571" y="674" on="1"/>
        <pt x="675" y="674" on="0"/>
        <pt x="782" y="747" on="0"/>
        <pt x="782" y="818" on="1"/>
        <pt x="782" y="894" on="0"/>
        <pt x="679" y="958" on="0"/>
        <pt x="571" y="958" on="1"/>
        <pt x="384" y="958" on="1"/>
      </contour>
    </TTGlyph>
    <TTGlyph name="Beta" xMin="159" yMin="0" xMax="1212" yMax="1456">
      <component glyphName="B" x="0" y="0" flags="0x204"/>
    </TTGlyph>
    <TTGlyph name="C" xMin="106" yMin="-21" xMax="1228" yMax="1477">
      <contour>
        <pt x="1221" y="483" on="1"/>
        <pt x="1223" y="477" on="1"/>
        <pt x="1227" y="256" on="0"/>
        <pt x="932" y="-21" on="0"/>
        <pt x="680" y="-21" on="1"/>
        <pt x="425" y="-21" on="0"/>
        <pt x="106" y="322" on="0"/>
        <pt x="106" y="589" on="1"/>
        <pt x="106" y="866" on="1"/>
        <pt x="106" y="1132" on="0"/>
        <pt x="421" y="1477" on="0"/>
        <pt x="673" y="1477" on="1"/>
        <pt x="931" y="1477" on="0"/>
        <pt x="1228" y="1206" on="0"/>
        <pt x="1224" y="977" on="1"/>
        <pt x="1222" y="971" on="1"/>
        <pt x="987" y="971" on="1"/>
        <pt x="987" y="1118" on="0"/>
        <pt x="828" y="1282" on="0"/>
        <pt x="673" y="1282" on="1"/>
        <pt x="524" y="1282" on="0"/>
        <pt x="349" y="1046" on="0"/>
        <pt x="349" y="868" on="1"/>
        <pt x="349" y="589" on="1"/>
        <pt x="349" y="409" on="0"/>
        <pt x="528" y="173" on="0"/>
        <pt x="680" y="173" on="1"/>
        <pt x="831" y="173" on="0"/>
        <pt x="987" y="335" on="0"/>
        <pt x="987" y="483" on="1"/>
      </contour>
    </TTGlyph>
    <TTGlyph name="C.smcp" xMin="104" yMin="-17" xMax="1072" yMax="1181">
      <contour>
        <pt x="1064" y="391" on="1"/>
        <pt x="1066" y="385" on="1"/>
        <pt x="1071" y="189" on="0"/>
        <pt x="815" y="-17" on="0"/>
        <pt x="597" y="-17" on="1"/>
        <pt x="382" y="-17" on="0"/>
        <pt x="104" y="250" on="0"/>
        <pt x="104" y="461" on="1"/>
        <pt x="104" y="704" on="1"/>
        <pt x="104" y="914" on="0"/>
        <pt x="382" y="1181" on="0"/>
        <pt x="597" y="1181" on="1"/>
        <pt x="819" y="1181" on="0"/>
        <pt x="1072" y="975" on="0"/>
        <pt x="1067" y="781" on="1"/>
        <pt x="1065" y="775" on="1"/>
        <pt x="831" y="775" on="1"/>
        <pt x="831" y="884" on="0"/>
        <pt x="714" y="988" on="0"/>
        <pt x="597" y="988" on="1"/>
        <pt x="485" y="988" on="0"/>
        <pt x="346" y="827" on="0"/>
        <pt x="346" y="705" on="1"/>
        <pt x="346" y="461" on="1"/>
        <pt x="346" y="337" on="0"/>
        <pt x="485" y="175" on="0"/>
        <pt x="597" y="175" on="1"/>
        <pt x="713" y="175" on="0"/>
        <pt x="830" y="280" on="0"/>
        <pt x="830" y="391" on="1"/>
      </contour>
    </TTGlyph>
    <TTGlyph name="Cacute" xMin="106" yMin="-21" xMax="1228" yMax="1846">
      <component glyphName="C" x="0" y="0" flags="0x204"/>
      <component glyphName="acute" x="437" y="368" flags="0x4"/>
    </TTGlyph>
    <TTGlyph name="Cacute.smcp" xMin="104" yMin="-17" xMax="1072" yMax="1518">
      <component glyphName="C.smcp" x="0" y="0" flags="0x204"/>
      <component glyphName="acute" x="346" y="40" flags="0x4"/>
    </TTGlyph>
    <TTGlyph name="Ccaron" xMin="106" yMin="-21" xMax="1228" yMax="1891">
      <component glyphName="C" x="0" y="0" flags="0x204"/>
      <component glyphName="caron" x="208" y="370" flags="0x4"/>
    </TTGlyph>
    <TTGlyph name="Ccaron.smcp" xMin="104" yMin="-17" xMax="1072" yMax="1563">
      <component glyphName="C.smcp" x="0" y="0" flags="0x204"/>
      <component glyphName="caron" x="117" y="42" flags="0x4"/>
    </TTGlyph>
    <TTGlyph name="Ccedilla" xMin="106" yMin="-451" xMax="1228" yMax="1477">
      <component glyphName="C" x="0" y="0" flags="0x204"/>
      <component glyphName="cedilla" x="445" y="-4" flags="0x4"/>
    </TTGlyph>
    <TTGlyph name="Ccedilla.smcp" xMin="104" yMin="-449" xMax="1072" yMax="1181">
      <component glyphName="C.smcp" x="0" y="0" flags="0x204"/>
      <component glyphName="cedilla" x="354" y="-2" flags="0x4"/>
    </TTGlyph>
    <TTGlyph name="Ccircumflex" xMin="106" yMin="-21" xMax="1228" yMax="1884">
      <component glyphName="C" x="0" y="0" flags="0x204"/>
      <component glyphName="circumflex" x="185" y="366" flags="0x4"/>
    </TTGlyph>
    <TTGlyph name="Ccircumflex.smcp" xMin="104" yMin="-17" xMax="1072" yMax="1556">
      <component glyphName="C.smcp" x="0" y="0" flags="0x204"/>
      <component glyphName="circumflex" x="94" y="38" flags="0x4"/>
    </TTGlyph>
    <TTGlyph name="Chi" xMin="50" yMin="0" xMax="1262" yMax="1456">
      <component glyphName="X" x="0" y="0" flags="0x204"/>
    </TTGlyph>
    <TTGlyph name="D" xMin="159" yMin="0" xMax="1255" yMax="1456">
      <contour>
        <pt x="159" y="0" on="1"/>
        <pt x="159" y="1456" on="1"/>
        <pt x="631" y="1456" on="1"/>
        <pt x="908" y="1456" on="0"/>
        <pt x="1255" y="1110" on="0"/>
        <pt x="1255" y="838" on="1"/>
        <pt x="1255" y="617" on="1"/>
        <pt x="1255" y="344" on="0"/>
        <pt x="908" y="0" on="0"/>
        <pt x="631" y="0" on="1"/>
      </contour>
      <contour>
        <pt x="402" y="1261" on="1"/>
        <pt x="402" y="194" on="1"/>
        <pt x="624" y="194" on="1"/>
        <pt x="805" y="194" on="0"/>
        <pt x="1012" y="430" on="0"/>
        <pt x="1012" y="617" on="1"/>
        <pt x="1012" y="840" on="1"/>
        <pt x="1012" y="1025" on="0"/>
        <pt x="805" y="1261" on="0"/>
        <pt x="624" y="1261" on="1"/>
      </contour>
    </TTGlyph>
    <TTGlyph name="D.smcp" xMin="142" yMin="0" xMax="1090" yMax="1165">
      <contour>
        <pt x="142" y="0" on="1"/>
        <pt x="142" y="1165" on="1"/>
        <pt x="581" y="1165" on="1"/>
        <pt x="798" y="1165" on="0"/>
        <pt x="1090" y="896" on="0"/>
        <pt x="1090" y="687" on="1"/>
        <pt x="1090" y="477" on="1"/>
        <pt x="1090" y="267" on="0"/>
        <pt x="798" y="0" on="0"/>
        <pt x="581" y="0" on="1"/>
      </contour>
      <contour>
        <pt x="384" y="972" on="1"/>
        <pt x="384" y="192" on="1"/>
        <pt x="581" y="192" on="1"/>
        <pt x="695" y="192" on="0"/>
        <pt x="847" y="354" on="0"/>
        <pt x="847" y="477" on="1"/>
        <pt x="847" y="688" on="1"/>
        <pt x="847" y="809" on="0"/>
        <pt x="694" y="972" on="0"/>
        <pt x="581" y="972" on="1"/>
      </contour>
    </TTGlyph>
    <TTGlyph name="Dcaron" xMin="159" yMin="0" xMax="1255" yMax="1870">
      <component glyphName="D" x="0" y="0" flags="0x204"/>
      <component glyphName="caron" x="141" y="349" flags="0x4"/>
    </TTGlyph>
    <TTGlyph name="Dcaron.smcp" xMin="142" yMin="0" xMax="1090" yMax="1547">
      <component glyphName="D.smcp" x="0" y="0" flags="0x204"/>
      <component glyphName="caron" x="37" y="26" flags="0x4"/>
    </TTGlyph>
    <TTGlyph name="Dcroat" xMin="36" yMin="0" xMax="1285" yMax="1456">
      <contour>
        <pt x="189" y="0" on="1"/>
        <pt x="189" y="657" on="1"/>
        <pt x="36" y="657" on="1"/>
        <pt x="36" y="827" on="1"/>
        <pt x="189" y="827" on="1"/>
        <pt x="189" y="1456" on="1"/>
        <pt x="661" y="1456" on="1"/>
        <pt x="938" y="1456" on="0"/>
        <pt x="1285" y="1110" on="0"/>
        <pt x="1285" y="838" on="1"/>
        <pt x="1285" y="617" on="1"/>
        <pt x="1285" y="344" on="0"/>
        <pt x="938" y="0" on="0"/>
        <pt x="661" y="0" on="1"/>
      </contour>
      <contour>
        <pt x="691" y="657" on="1"/>
        <pt x="432" y="657" on="1"/>
        <pt x="432" y="194" on="1"/>
        <pt x="654" y="194" on="1"/>
        <pt x="835" y="194" on="0"/>
        <pt x="1042" y="430" on="0"/>
        <pt x="1042" y="617" on="1"/>
        <pt x="1042" y="840" on="1"/>
        <pt x="1042" y="1025" on="0"/>
        <pt x="835" y="1261" on="0"/>
        <pt x="654" y="1261" on="1"/>
        <pt x="432" y="1261" on="1"/>
        <pt x="432" y="827" on="1"/>
        <pt x="691" y="827" on="1"/>
      </contour>
    </TTGlyph>
    <TTGlyph name="Dcroat.smcp" xMin="-21" yMin="0" xMax="1090" yMax="1165">
      <component glyphName="D.smcp" x="0" y="0" flags="0x204"/>
      <component glyphName="crossbar" x="-172" y="-136" flags="0x4"/>
    </TTGlyph>
    <TTGlyph name="Delta" xMin="26" yMin="0" xMax="1432" yMax="1456">
      <contour>
        <pt x="627" y="1456" on="1"/>
        <pt x="858" y="1456" on="1"/>
        <pt x="1432" y="0" on="1"/>
        <pt x="26" y="0" on="1"/>
      </contour>
      <contour>
        <pt x="354" y="194" on="1"/>
        <pt x="1108" y="194" on="1"/>
        <pt x="743" y="1160" on="1"/>
        <pt x="737" y="1160" on="1"/>
      </contour>
    </TTGlyph>
    <TTGlyph name="E" xMin="159" yMin="0" xMax="1141" yMax="1456">
      <contour>
        <pt x="1039" y="655" on="1"/>
        <pt x="402" y="655" on="1"/>
        <pt x="402" y="194" on="1"/>
        <pt x="1141" y="194" on="1"/>
        <pt x="1141" y="0" on="1"/>
        <pt x="159" y="0" on="1"/>
        <pt x="159" y="1456" on="1"/>
        <pt x="1134" y="1456" on="1"/>
        <pt x="1134" y="1261" on="1"/>
        <pt x="402" y="1261" on="1"/>
        <pt x="402" y="850" on="1"/>
        <pt x="1039" y="850" on="1"/>
      </contour>
    </TTGlyph>
    <TTGlyph name="E.smcp" xMin="142" yMin="0" xMax="974" yMax="1165">
      <contour>
        <pt x="888" y="508" on="1"/>
        <pt x="384" y="508" on="1"/>
        <pt x="384" y="192" on="1"/>
        <pt x="974" y="192" on="1"/>
        <pt x="974" y="0" on="1"/>
        <pt x="142" y="0" on="1"/>
        <pt x="142" y="1165" on="1"/>
        <pt x="974" y="1165" on="1"/>
        <pt x="974" y="972" on="1"/>
        <pt x="384" y="972" on="1"/>
        <pt x="384" y="702" on="1"/>
        <pt x="888" y="702" on="1"/>
      </contour>
    </TTGlyph>
    <TTGlyph name="Eacute" xMin="159" yMin="0" xMax="1141" yMax="1825">
      <component glyphName="E" x="0" y="0" flags="0x204"/>
      <component glyphName="acute" x="379" y="347" flags="0x4"/>
    </TTGlyph>
    <TTGlyph name="Eacute.smcp" xMin="142" yMin="0" xMax="974" yMax="1502">
      <component glyphName="E.smcp" x="0" y="0" flags="0x204"/>
      <component glyphName="acute" x="306" y="24" flags="0x4"/>
    </TTGlyph>
    <TTGlyph name="Ebreve" xMin="159" yMin="0" xMax="1141" yMax="1884">
      <component glyphName="E" x="0" y="0" flags="0x204"/>
      <component glyphName="breve" x="178" y="428" flags="0x4"/>
    </TTGlyph>
    <TTGlyph name="Ebreve.smcp" xMin="142" yMin="0" xMax="974" yMax="1561">
      <component glyphName="E.smcp" x="0" y="0" flags="0x204"/>
      <component glyphName="breve" x="105" y="105" flags="0x4"/>
    </TTGlyph>
    <TTGlyph name="Ecaron" xMin="159" yMin="0" xMax="1141" yMax="1870">
      <component glyphName="E" x="0" y="0" flags="0x204"/>
      <component glyphName="caron" x="150" y="349" flags="0x4"/>
    </TTGlyph>
    <TTGlyph name="Ecaron.smcp" xMin="142" yMin="0" xMax="974" yMax="1547">
      <component glyphName="E.smcp" x="0" y="0" flags="0x204"/>
      <component glyphName="caron" x="77" y="26" flags="0x4"/>
    </TTGlyph>
    <TTGlyph name="Ecircumflex" xMin="159" yMin="0" xMax="1141" yMax="1863">
      <component glyphName="E" x="0" y="0" flags="0x204"/>
      <component glyphName="circumflex" x="127" y="345" flags="0x4"/>
    </TTGlyph>
    <TTGlyph name="Ecircumflex.smcp" xMin="142" yMin="0" xMax="974" yMax="1540">
      <component glyphName="E.smcp" x="0" y="0" flags="0x204"/>
      <component glyphName="circumflex" x="54" y="22" flags="0x4"/>
    </TTGlyph>
    <TTGlyph name="Edieresis" xMin="159" yMin="0" xMax="1141" yMax="1805">
      <component glyphName="E" x="0" y="0" flags="0x204"/>
      <component glyphName="dieresis" x="91" y="349" flags="0x4"/>
    </TTGlyph>
    <TTGlyph name="Edieresis.smcp" xMin="142" yMin="0" xMax="974" yMax="1482">
      <component glyphName="E.smcp" x="0" y="0" flags="0x204"/>
      <component glyphName="dieresis" x="18" y="26" flags="0x4"/>
    </TTGlyph>
    <TTGlyph name="Edotaccent" xMin="159" yMin="0" xMax="1141" yMax="1825">
      <component glyphName="E" x="0" y="0" flags="0x204"/>
      <component glyphName="dotaccent" x="332" y="363" flags="0x4"/>
    </TTGlyph>
    <TTGlyph name="Edotaccent.smcp" xMin="142" yMin="0" xMax="974" yMax="1502">
      <component glyphName="E.smcp" x="0" y="0" flags="0x204"/>
      <component glyphName="dotaccent" x="259" y="40" flags="0x4"/>
    </TTGlyph>
    <TTGlyph name="Egrave" xMin="159" yMin="0" xMax="1141" yMax="1826">
      <component glyphName="E" x="0" y="0" flags="0x204"/>
      <component glyphName="grave" x="196" y="348" flags="0x4"/>
    </TTGlyph>
    <TTGlyph name="Egrave.smcp" xMin="142" yMin="0" xMax="974" yMax="1503">
      <component glyphName="E.smcp" x="0" y="0" flags="0x204"/>
      <component glyphName="grave" x="123" y="25" flags="0x4"/>
    </TTGlyph>
    <TTGlyph name="Emacron" xMin="159" yMin="0" xMax="1141" yMax="1782">
      <component glyphName="E" x="0" y="0" flags="0x204"/>
      <component glyphName="macron" x="122" y="326" flags="0x4"/>
    </TTGlyph>
    <TTGlyph name="Emacron.smcp" xMin="142" yMin="0" xMax="974" yMax="1459">
      <component glyphName="E.smcp" x="0" y="0" flags="0x204"/>
      <component glyphName="macron" x="49" y="3" flags="0x4"/>
    </TTGlyph>
    <TTGlyph name="Eng" xMin="147" yMin="-437" xMax="1284" yMax="1456">
      <contour>
        <pt x="1284" y="1456" on="1"/>
        <pt x="1284" y="-63" on="1"/>
        <pt x="1284" y="-242" on="0"/>
        <pt x="1097" y="-437" on="0"/>
        <pt x="931" y="-437" on="1"/>
        <pt x="895" y="-437" on="0"/>
        <pt x="836" y="-429" on="0"/>
        <pt x="804" y="-420" on="1"/>
        <pt x="818" y="-229" on="1"/>
        <pt x="835" y="-234" on="0"/>
        <pt x="896" y="-242" on="0"/>
        <pt x="917" y="-242" on="1"/>
        <pt x="976" y="-242" on="0"/>
        <pt x="1041" y="-147" on="0"/>
        <pt x="1041" y="-63" on="1"/>
        <pt x="1041" y="0" on="1"/>
        <pt x="396" y="1049" on="1"/>
        <pt x="390" y="1047" on="1"/>
        <pt x="390" y="0" on="1"/>
        <pt x="147" y="0" on="1"/>
        <pt x="147" y="1456" on="1"/>
        <pt x="390" y="1456" on="1"/>
        <pt x="1035" y="407" on="1"/>
        <pt x="1041" y="409" on="1"/>
        <pt x="1041" y="1456" on="1"/>
      </contour>
    </TTGlyph>
    <TTGlyph name="Eogonek" xMin="159" yMin="-430" xMax="1141" yMax="1456">
      <component glyphName="E" x="0" y="0" flags="0x204"/>
      <component glyphName="ogonek" x="311" y="0" flags="0x4"/>
    </TTGlyph>
    <TTGlyph name="Eogonek.smcp" xMin="142" yMin="-430" xMax="974" yMax="1165">
      <component glyphName="E.smcp" x="0" y="0" flags="0x204"/>
      <component glyphName="ogonek" x="265" y="0" flags="0x4"/>
    </TTGlyph>
    <TTGlyph name="Epsilon" xMin="159" yMin="0" xMax="1141" yMax="1456">
      <component glyphName="E" x="0" y="0" flags="0x204"/>
    </TTGlyph>
    <TTGlyph name="Epsilontonos" xMin="-80" yMin="0" xMax="1241" yMax="1640">
      <component glyphName="E" x="100" y="0" flags="0x4"/>
      <component glyphName="tonos" x="-295" y="2" flags="0x4"/>
    </TTGlyph>
    <TTGlyph name="Eta" xMin="159" yMin="0" xMax="1296" yMax="1456">
      <component glyphName="H" x="0" y="0" flags="0x204"/>
    </TTGlyph>
    <TTGlyph name="Etatonos" xMin="-35" yMin="0" xMax="1396" yMax="1638">
      <component glyphName="H" x="100" y="0" flags="0x4"/>
      <component glyphName="tonos" x="-250" y="0" flags="0x4"/>
    </TTGlyph>
    <TTGlyph name="Eth" xMin="36" yMin="0" xMax="1285" yMax="1456">
      <contour>
        <pt x="189" y="0" on="1"/>
        <pt x="189" y="657" on="1"/>
        <pt x="36" y="657" on="1"/>
        <pt x="36" y="827" on="1"/>
        <pt x="189" y="827" on="1"/>
        <pt x="189" y="1456" on="1"/>
        <pt x="661" y="1456" on="1"/>
        <pt x="938" y="1456" on="0"/>
        <pt x="1285" y="1110" on="0"/>
        <pt x="1285" y="838" on="1"/>
        <pt x="1285" y="617" on="1"/>
        <pt x="1285" y="344" on="0"/>
        <pt x="938" y="0" on="0"/>
        <pt x="661" y="0" on="1"/>
      </contour>
      <contour>
        <pt x="691" y="657" on="1"/>
        <pt x="432" y="657" on="1"/>
        <pt x="432" y="194" on="1"/>
        <pt x="654" y="194" on="1"/>
        <pt x="835" y="194" on="0"/>
        <pt x="1042" y="430" on="0"/>
        <pt x="1042" y="617" on="1"/>
        <pt x="1042" y="840" on="1"/>
        <pt x="1042" y="1025" on="0"/>
        <pt x="835" y="1261" on="0"/>
        <pt x="654" y="1261" on="1"/>
        <pt x="432" y="1261" on="1"/>
        <pt x="432" y="827" on="1"/>
        <pt x="691" y="827" on="1"/>
      </contour>
    </TTGlyph>
    <TTGlyph name="Eth.smcp" xMin="-21" yMin="0" xMax="1090" yMax="1165">
      <component glyphName="D.smcp" x="0" y="0" flags="0x204"/>
      <component glyphName="crossbar" x="-172" y="-136" flags="0x4"/>
    </TTGlyph>
    <TTGlyph name="Euro" xMin="75" yMin="-21" xMax="992" yMax="1477">
      <contour>
        <pt x="924" y="457" on="1"/>
        <pt x="464" y="457" on="1"/>
        <pt x="464" y="455" on="1"/>
        <pt x="464" y="343" on="0"/>
        <pt x="618" y="173" on="0"/>
        <pt x="751" y="173" on="1"/>
        <pt x="808" y="173" on="0"/>
        <pt x="920" y="190" on="0"/>
        <pt x="972" y="207" on="1"/>
        <pt x="992" y="10" on="1"/>
        <pt x="936" y="-5" on="0"/>
        <pt x="813" y="-21" on="0"/>
        <pt x="751" y="-21" on="1"/>
        <pt x="514" y="-21" on="0"/>
        <pt x="221" y="262" on="0"/>
        <pt x="221" y="455" on="1"/>
        <pt x="221" y="457" on="1"/>
        <pt x="75" y="457" on="1"/>
        <pt x="75" y="652" on="1"/>
        <pt x="221" y="652" on="1"/>
        <pt x="221" y="780" on="1"/>
        <pt x="75" y="780" on="1"/>
        <pt x="75" y="975" on="1"/>
        <pt x="221" y="975" on="1"/>
        <pt x="221" y="987" on="1"/>
        <pt x="221" y="1185" on="0"/>
        <pt x="512" y="1477" on="0"/>
        <pt x="749" y="1477" on="1"/>
        <pt x="809" y="1477" on="0"/>
        <pt x="925" y="1461" on="0"/>
        <pt x="992" y="1446" on="1"/>
        <pt x="972" y="1247" on="1"/>
        <pt x="918" y="1263" on="0"/>
        <pt x="805" y="1282" on="0"/>
        <pt x="749" y="1282" on="1"/>
        <pt x="617" y="1282" on="0"/>
        <pt x="464" y="1103" on="0"/>
        <pt x="464" y="989" on="1"/>
        <pt x="464" y="975" on="1"/>
        <pt x="924" y="975" on="1"/>
        <pt x="924" y="780" on="1"/>
        <pt x="464" y="780" on="1"/>
        <pt x="464" y="652" on="1"/>
        <pt x="924" y="652" on="1"/>
      </contour>
    </TTGlyph>
    <TTGlyph name="F" xMin="159" yMin="0" xMax="1142" yMax="1456">
      <contour>
        <pt x="1040" y="621" on="1"/>
        <pt x="402" y="621" on="1"/>
        <pt x="402" y="0" on="1"/>
        <pt x="159" y="0" on="1"/>
        <pt x="159" y="1456" on="1"/>
        <pt x="1142" y="1456" on="1"/>
        <pt x="1142" y="1261" on="1"/>
        <pt x="402" y="1261" on="1"/>
        <pt x="402" y="816" on="1"/>
        <pt x="1040" y="816" on="1"/>
      </contour>
    </TTGlyph>
    <TTGlyph name="F.smcp" xMin="142" yMin="0" xMax="986" yMax="1165">
      <contour>
        <pt x="899" y="478" on="1"/>
        <pt x="384" y="478" on="1"/>
        <pt x="384" y="0" on="1"/>
        <pt x="142" y="0" on="1"/>
        <pt x="142" y="1165" on="1"/>
        <pt x="986" y="1165" on="1"/>
        <pt x="986" y="972" on="1"/>
        <pt x="384" y="972" on="1"/>
        <pt x="384" y="672" on="1"/>
        <pt x="899" y="672" on="1"/>
      </contour>
    </TTGlyph>
    <TTGlyph name="G" xMin="110" yMin="-21" xMax="1244" yMax="1477">
      <contour>
        <pt x="1244" y="197" on="1"/>
        <pt x="1186" y="114" on="0"/>
        <pt x="921" y="-21" on="0"/>
        <pt x="713" y="-21" on="1"/>
        <pt x="450" y="-21" on="0"/>
        <pt x="110" y="312" on="0"/>
        <pt x="110" y="576" on="1"/>
        <pt x="110" y="880" on="1"/>
        <pt x="110" y="1144" on="0"/>
        <pt x="431" y="1477" on="0"/>
        <pt x="685" y="1477" on="1"/>
        <pt x="942" y="1477" on="0"/>
        <pt x="1227" y="1224" on="0"/>
        <pt x="1230" y="1021" on="1"/>
        <pt x="1228" y="1015" on="1"/>
        <pt x="998" y="1015" on="1"/>
        <pt x="990" y="1135" on="0"/>
        <pt x="835" y="1282" on="0"/>
        <pt x="688" y="1282" on="1"/>
        <pt x="537" y="1282" on="0"/>
        <pt x="352" y="1056" on="0"/>
        <pt x="352" y="882" on="1"/>
        <pt x="352" y="576" on="1"/>
        <pt x="352" y="400" on="0"/>
        <pt x="553" y="173" on="0"/>
        <pt x="713" y="173" on="1"/>
        <pt x="827" y="173" on="0"/>
        <pt x="969" y="226" on="0"/>
        <pt x="1001" y="262" on="1"/>
        <pt x="1001" y="558" on="1"/>
        <pt x="712" y="558" on="1"/>
        <pt x="712" y="740" on="1"/>
        <pt x="1244" y="740" on="1"/>
      </contour>
    </TTGlyph>
    <TTGlyph name="G.smcp" xMin="104" yMin="-17" xMax="1119" yMax="1181">
      <contour>
        <pt x="1119" y="159" on="1"/>
        <pt x="1063" y="89" on="0"/>
        <pt x="820" y="-17" on="0"/>
        <pt x="632" y="-17" on="1"/>
        <pt x="397" y="-17" on="0"/>
        <pt x="104" y="248" on="0"/>
        <pt x="104" y="461" on="1"/>
        <pt x="104" y="704" on="1"/>
        <pt x="104" y="915" on="0"/>
        <pt x="396" y="1181" on="0"/>
        <pt x="624" y="1181" on="1"/>
        <pt x="852" y="1181" on="0"/>
        <pt x="1104" y="981" on="0"/>
        <pt x="1099" y="813" on="1"/>
        <pt x="1097" y="807" on="1"/>
        <pt x="864" y="807" on="1"/>
        <pt x="864" y="897" on="0"/>
        <pt x="742" y="988" on="0"/>
        <pt x="624" y="988" on="1"/>
        <pt x="500" y="988" on="0"/>
        <pt x="346" y="827" on="0"/>
        <pt x="346" y="705" on="1"/>
        <pt x="346" y="461" on="1"/>
        <pt x="346" y="336" on="0"/>
        <pt x="501" y="175" on="0"/>
        <pt x="632" y="175" on="1"/>
        <pt x="728" y="175" on="0"/>
        <pt x="847" y="206" on="0"/>
        <pt x="877" y="229" on="1"/>
        <pt x="877" y="441" on="1"/>
        <pt x="638" y="441" on="1"/>
        <pt x="638" y="618" on="1"/>
        <pt x="1119" y="618" on="1"/>
      </contour>
    </TTGlyph>
    <TTGlyph name="Gamma" xMin="159" yMin="0" xMax="1079" yMax="1456">
      <contour>
        <pt x="1079" y="1261" on="1"/>
        <pt x="402" y="1261" on="1"/>
        <pt x="402" y="0" on="1"/>
        <pt x="159" y="0" on="1"/>
        <pt x="159" y="1456" on="1"/>
        <pt x="1079" y="1456" on="1"/>
      </contour>
    </TTGlyph>
    <TTGlyph name="Gbreve" xMin="110" yMin="-21" xMax="1244" yMax="1905">
      <component glyphName="G" x="0" y="0" flags="0x204"/>
      <component glyphName="breve" x="231" y="449" flags="0x4"/>
    </TTGlyph>
    <TTGlyph name="Gbreve.smcp" xMin="104" yMin="-17" xMax="1119" yMax="1577">
      <component glyphName="G.smcp" x="0" y="0" flags="0x204"/>
      <component glyphName="breve" x="161" y="121" flags="0x4"/>
    </TTGlyph>
    <TTGlyph name="Gcircumflex" xMin="110" yMin="-21" xMax="1244" yMax="1884">
      <component glyphName="G" x="0" y="0" flags="0x204"/>
      <component glyphName="circumflex" x="180" y="366" flags="0x4"/>
    </TTGlyph>
    <TTGlyph name="Gcircumflex.smcp" xMin="104" yMin="-17" xMax="1119" yMax="1556">
      <component glyphName="G.smcp" x="0" y="0" flags="0x204"/>
      <component glyphName="circumflex" x="110" y="38" flags="0x4"/>
    </TTGlyph>
    <TTGlyph name="Gcommaaccent" xMin="110" yMin="-500" xMax="1244" yMax="1477">
      <component glyphName="G" x="0" y="0" flags="0x204"/>
      <component glyphName="commaaccent" x="440" y="-372" flags="0x4"/>
    </TTGlyph>
    <TTGlyph name="Gcommaaccent.smcp" xMin="104" yMin="-498" xMax="1119" yMax="1181">
      <component glyphName="G.smcp" x="0" y="0" flags="0x204"/>
      <component glyphName="commaaccent" x="369" y="-370" flags="0x4"/>
    </TTGlyph>
    <TTGlyph name="H" xMin="159" yMin="0" xMax="1296" yMax="1456">
      <contour>
        <pt x="1296" y="0" on="1"/>
        <pt x="1054" y="0" on="1"/>
        <pt x="1054" y="621" on="1"/>
        <pt x="402" y="621" on="1"/>
        <pt x="402" y="0" on="1"/>
        <pt x="159" y="0" on="1"/>
        <pt x="159" y="1456" on="1"/>
        <pt x="402" y="1456" on="1"/>
        <pt x="402" y="816" on="1"/>
        <pt x="1054" y="816" on="1"/>
        <pt x="1054" y="1456" on="1"/>
        <pt x="1296" y="1456" on="1"/>
      </contour>
    </TTGlyph>
    <TTGlyph name="H.smcp" xMin="142" yMin="0" xMax="1146" yMax="1165">
      <contour>
        <pt x="1146" y="0" on="1"/>
        <pt x="902" y="0" on="1"/>
        <pt x="902" y="472" on="1"/>
        <pt x="384" y="472" on="1"/>
        <pt x="384" y="0" on="1"/>
        <pt x="142" y="0" on="1"/>
        <pt x="142" y="1165" on="1"/>
        <pt x="384" y="1165" on="1"/>
        <pt x="384" y="666" on="1"/>
        <pt x="902" y="666" on="1"/>
        <pt x="902" y="1165" on="1"/>
        <pt x="1146" y="1165" on="1"/>
      </contour>
    </TTGlyph>
    <TTGlyph name="Hbar" xMin="24" yMin="0" xMax="1430" yMax="1456">
      <contour>
        <pt x="1294" y="1188" on="1"/>
        <pt x="1430" y="1188" on="1"/>
        <pt x="1430" y="1026" on="1"/>
        <pt x="1294" y="1026" on="1"/>
        <pt x="1294" y="0" on="1"/>
        <pt x="1052" y="0" on="1"/>
        <pt x="1052" y="621" on="1"/>
        <pt x="400" y="621" on="1"/>
        <pt x="400" y="0" on="1"/>
        <pt x="157" y="0" on="1"/>
        <pt x="157" y="1026" on="1"/>
        <pt x="24" y="1026" on="1"/>
        <pt x="24" y="1188" on="1"/>
        <pt x="157" y="1188" on="1"/>
        <pt x="157" y="1456" on="1"/>
        <pt x="400" y="1456" on="1"/>
        <pt x="400" y="1188" on="1"/>
        <pt x="1052" y="1188" on="1"/>
        <pt x="1052" y="1456" on="1"/>
        <pt x="1294" y="1456" on="1"/>
      </contour>
      <contour>
        <pt x="400" y="816" on="1"/>
        <pt x="1052" y="816" on="1"/>
        <pt x="1052" y="1026" on="1"/>
        <pt x="400" y="1026" on="1"/>
      </contour>
    </TTGlyph>
    <TTGlyph name="Hcircumflex" xMin="159" yMin="0" xMax="1296" yMax="1863">
      <component glyphName="H" x="0" y="0" flags="0x204"/>
      <component glyphName="circumflex" x="232" y="345" flags="0x4"/>
    </TTGlyph>
    <TTGlyph name="Hcircumflex.smcp" xMin="142" yMin="0" xMax="1146" yMax="1540">
      <component glyphName="H.smcp" x="0" y="0" flags="0x204"/>
      <component glyphName="circumflex" x="130" y="22" flags="0x4"/>
    </TTGlyph>
    <TTGlyph name="I" xMin="173" yMin="0" xMax="416" yMax="1456">
      <contour>
        <pt x="416" y="0" on="1"/>
        <pt x="173" y="0" on="1"/>
        <pt x="173" y="1456" on="1"/>
        <pt x="416" y="1456" on="1"/>
      </contour>
    </TTGlyph>
    <TTGlyph name="I.smcp" xMin="142" yMin="0" xMax="384" yMax="1165">
      <contour>
        <pt x="384" y="0" on="1"/>
        <pt x="142" y="0" on="1"/>
        <pt x="142" y="1165" on="1"/>
        <pt x="384" y="1165" on="1"/>
      </contour>
    </TTGlyph>
    <TTGlyph name="IJ" xMin="173" yMin="-21" xMax="1587" yMax="1456">
      <component glyphName="I" x="0" y="0" flags="0x4"/>
      <component glyphName="J" x="589" y="0" flags="0x4"/>
    </TTGlyph>
    <TTGlyph name="Iacute" xMin="173" yMin="0" xMax="638" yMax="1825">
      <component glyphName="I" x="0" y="0" flags="0x204"/>
      <component glyphName="acute" x="56" y="347" flags="0x4"/>
    </TTGlyph>
    <TTGlyph name="Iacute.smcp" xMin="142" yMin="0" xMax="606" yMax="1502">
      <component glyphName="I.smcp" x="0" y="0" flags="0x204"/>
      <component glyphName="acute" x="24" y="24" flags="0x4"/>
    </TTGlyph>
    <TTGlyph name="Ibreve" xMin="-25" yMin="0" xMax="618" yMax="1884">
      <component glyphName="I" x="0" y="0" flags="0x204"/>
      <component glyphName="breve" x="-143" y="428" flags="0x4"/>
    </TTGlyph>
    <TTGlyph name="Ibreve.smcp" xMin="-57" yMin="0" xMax="586" yMax="1561">
      <component glyphName="I.smcp" x="0" y="0" flags="0x204"/>
      <component glyphName="breve" x="-175" y="105" flags="0x4"/>
    </TTGlyph>
    <TTGlyph name="Icircumflex" xMin="-39" yMin="0" xMax="634" yMax="1863">
      <component glyphName="I" x="0" y="0" flags="0x204"/>
      <component glyphName="circumflex" x="-194" y="345" flags="0x4"/>
    </TTGlyph>
    <TTGlyph name="Icircumflex.smcp" xMin="-71" yMin="0" xMax="602" yMax="1540">
      <component glyphName="I.smcp" x="0" y="0" flags="0x204"/>
      <component glyphName="circumflex" x="-226" y="22" flags="0x4"/>
    </TTGlyph>
    <TTGlyph name="Idieresis" xMin="-66" yMin="0" xMax="659" yMax="1805">
      <component glyphName="I" x="0" y="0" flags="0x204"/>
      <component glyphName="dieresis" x="-230" y="349" flags="0x4"/>
    </TTGlyph>
    <TTGlyph name="Idieresis.smcp" xMin="-98" yMin="0" xMax="627" yMax="1482">
      <component glyphName="I.smcp" x="0" y="0" flags="0x204"/>
      <component glyphName="dieresis" x="-262" y="26" flags="0x4"/>
    </TTGlyph>
    <TTGlyph name="Idotaccent" xMin="163" yMin="0" xMax="422" yMax="1825">
      <component glyphName="I" x="0" y="0" flags="0x204"/>
      <component glyphName="dotaccent" x="9" y="363" flags="0x4"/>
    </TTGlyph>
    <TTGlyph name="Idotaccent.smcp" xMin="133" yMin="0" xMax="392" yMax="1502">
      <component glyphName="I.smcp" x="0" y="0" flags="0x204"/>
      <component glyphName="dotaccent" x="-21" y="40" flags="0x4"/>
    </TTGlyph>
    <TTGlyph name="Igrave" xMin="-45" yMin="0" xMax="416" yMax="1826">
      <component glyphName="I" x="0" y="0" flags="0x204"/>
      <component glyphName="grave" x="-125" y="348" flags="0x4"/>
    </TTGlyph>
    <TTGlyph name="Igrave.smcp" xMin="-77" yMin="0" xMax="384" yMax="1503">
      <component glyphName="I.smcp" x="0" y="0" flags="0x204"/>
      <component glyphName="grave" x="-157" y="25" flags="0x4"/>
    </TTGlyph>
    <TTGlyph name="Imacron" xMin="-64" yMin="0" xMax="663" yMax="1782">
      <component glyphName="I" x="0" y="0" flags="0x204"/>
      <component glyphName="macron" x="-199" y="326" flags="0x4"/>
    </TTGlyph>
    <TTGlyph name="Imacron.smcp" xMin="-96" yMin="0" xMax="631" yMax="1459">
      <component glyphName="I.smcp" x="0" y="0" flags="0x204"/>
      <component glyphName="macron" x="-231" y="3" flags="0x4"/>
    </TTGlyph>
    <TTGlyph name="Iogonek" xMin="43" yMin="-430" xMax="460" yMax="1456">
      <component glyphName="I" x="0" y="0" flags="0x204"/>
      <component glyphName="ogonek" x="-31" y="0" flags="0x4"/>
    </TTGlyph>
    <TTGlyph name="Iogonek.smcp" xMin="60" yMin="-430" xMax="477" yMax="1165">
      <component glyphName="I.smcp" x="0" y="0" flags="0x204"/>
      <component glyphName="ogonek" x="-14" y="0" flags="0x4"/>
    </TTGlyph>
    <TTGlyph name="Iota" xMin="173" yMin="0" xMax="416" yMax="1456">
      <component glyphName="I" x="0" y="0" flags="0x204"/>
    </TTGlyph>
    <TTGlyph name="Iotadieresis" xMin="-66" yMin="0" xMax="659" yMax="1805">
      <component glyphName="I" x="0" y="0" flags="0x204"/>
      <component glyphName="dieresis" x="-230" y="349" flags="0x4"/>
    </TTGlyph>
    <TTGlyph name="Iotatonos" xMin="-28" yMin="0" xMax="516" yMax="1640">
      <component glyphName="I" x="100" y="0" flags="0x4"/>
      <component glyphName="tonos" x="-243" y="2" flags="0x4"/>
    </TTGlyph>
    <TTGlyph name="Itilde" xMin="-64" yMin="0" xMax="657" yMax="1891">
      <component glyphName="I" x="0" y="0" flags="0x204"/>
      <component glyphName="tilde" x="-192" y="364" flags="0x4"/>
    </TTGlyph>
    <TTGlyph name="Itilde.smcp" xMin="-96" yMin="0" xMax="625" yMax="1568">
      <component glyphName="I.smcp" x="0" y="0" flags="0x204"/>
      <component glyphName="tilde" x="-224" y="41" flags="0x4"/>
    </TTGlyph>
    <TTGlyph name="J" xMin="59" yMin="-21" xMax="998" yMax="1456">
      <contour>
        <pt x="755" y="1456" on="1"/>
        <pt x="998" y="1456" on="1"/>
        <pt x="998" y="421" on="1"/>
        <pt x="998" y="217" on="0"/>
        <pt x="738" y="-21" on="0"/>
        <pt x="534" y="-21" on="1"/>
        <pt x="315" y="-21" on="0"/>
        <pt x="59" y="197" on="0"/>
        <pt x="64" y="407" on="1"/>
        <pt x="66" y="413" on="1"/>
        <pt x="301" y="413" on="1"/>
        <pt x="301" y="289" on="0"/>
        <pt x="424" y="173" on="0"/>
        <pt x="534" y="173" on="1"/>
        <pt x="630" y="173" on="0"/>
        <pt x="755" y="307" on="0"/>
        <pt x="755" y="421" on="1"/>
      </contour>
    </TTGlyph>
    <TTGlyph name="J.smcp" xMin="47" yMin="-18" xMax="908" yMax="1165">
      <contour>
        <pt x="666" y="1165" on="1"/>
        <pt x="908" y="1165" on="1"/>
        <pt x="908" y="370" on="1"/>
        <pt x="908" y="193" on="0"/>
        <pt x="671" y="-18" on="0"/>
        <pt x="486" y="-18" on="1"/>
        <pt x="283" y="-18" on="0"/>
        <pt x="47" y="169" on="0"/>
        <pt x="53" y="347" on="1"/>
        <pt x="55" y="353" on="1"/>
        <pt x="289" y="353" on="1"/>
        <pt x="289" y="264" on="0"/>
        <pt x="396" y="174" on="0"/>
        <pt x="486" y="174" on="1"/>
        <pt x="564" y="174" on="0"/>
        <pt x="666" y="281" on="0"/>
        <pt x="666" y="370" on="1"/>
      </contour>
    </TTGlyph>
    <TTGlyph name="Jcircumflex" xMin="59" yMin="-21" xMax="1202" yMax="1855">
      <component glyphName="J" x="0" y="0" flags="0x204"/>
      <component glyphName="circumflex" x="374" y="337" flags="0x4"/>
    </TTGlyph>
    <TTGlyph name="Jcircumflex.smcp" xMin="47" yMin="-18" xMax="1118" yMax="1536">
      <component glyphName="J.smcp" x="0" y="0" flags="0x204"/>
      <component glyphName="circumflex" x="290" y="18" flags="0x4"/>
    </TTGlyph>
    <TTGlyph name="K" xMin="159" yMin="0" xMax="1327" yMax="1456">
      <contour>
        <pt x="570" y="630" on="1"/>
        <pt x="402" y="630" on="1"/>
        <pt x="402" y="0" on="1"/>
        <pt x="159" y="0" on="1"/>
        <pt x="159" y="1456" on="1"/>
        <pt x="402" y="1456" on="1"/>
        <pt x="402" y="839" on="1"/>
        <pt x="541" y="839" on="1"/>
        <pt x="998" y="1456" on="1"/>
        <pt x="1286" y="1456" on="1"/>
        <pt x="756" y="761" on="1"/>
        <pt x="1327" y="0" on="1"/>
        <pt x="1030" y="0" on="1"/>
      </contour>
    </TTGlyph>
    <TTGlyph name="K.smcp" xMin="142" yMin="0" xMax="1117" yMax="1165">
      <contour>
        <pt x="491" y="469" on="1"/>
        <pt x="384" y="469" on="1"/>
        <pt x="384" y="0" on="1"/>
        <pt x="142" y="0" on="1"/>
        <pt x="142" y="1165" on="1"/>
        <pt x="384" y="1165" on="1"/>
        <pt x="384" y="685" on="1"/>
        <pt x="469" y="685" on="1"/>
        <pt x="790" y="1165" on="1"/>
        <pt x="1091" y="1165" on="1"/>
        <pt x="679" y="610" on="1"/>
        <pt x="1117" y="0" on="1"/>
        <pt x="808" y="0" on="1"/>
      </contour>
    </TTGlyph>
    <TTGlyph name="Kappa" xMin="159" yMin="0" xMax="1327" yMax="1456">
      <component glyphName="K" x="0" y="0" flags="0x204"/>
    </TTGlyph>
    <TTGlyph name="Kcommaaccent" xMin="159" yMin="-486" xMax="1327" yMax="1456">
      <component glyphName="K" x="0" y="0" flags="0x204"/>
      <component glyphName="commaaccent" x="402" y="-358" flags="0x4"/>
    </TTGlyph>
    <TTGlyph name="Kcommaaccent.smcp" xMin="142" yMin="-488" xMax="1117" yMax="1165">
      <component glyphName="K.smcp" x="0" y="0" flags="0x204"/>
      <component glyphName="commaaccent" x="291" y="-360" flags="0x4"/>
    </TTGlyph>
    <TTGlyph name="L" xMin="159" yMin="0" xMax="1071" yMax="1456">
      <contour>
        <pt x="402" y="194" on="1"/>
        <pt x="1071" y="194" on="1"/>
        <pt x="1071" y="0" on="1"/>
        <pt x="159" y="0" on="1"/>
        <pt x="159" y="1456" on="1"/>
        <pt x="402" y="1456" on="1"/>
      </contour>
    </TTGlyph>
    <TTGlyph name="L.smcp" xMin="142" yMin="0" xMax="889" yMax="1165">
      <contour>
        <pt x="384" y="192" on="1"/>
        <pt x="889" y="192" on="1"/>
        <pt x="889" y="0" on="1"/>
        <pt x="142" y="0" on="1"/>
        <pt x="142" y="1165" on="1"/>
        <pt x="384" y="1165" on="1"/>
      </contour>
    </TTGlyph>
    <TTGlyph name="Lacute" xMin="159" yMin="0" xMax="1071" yMax="1784">
      <component glyphName="L" x="0" y="0" flags="0x204"/>
      <component glyphName="acute" x="42" y="306" flags="0x4"/>
    </TTGlyph>
    <TTGlyph name="Lacute.smcp" xMin="94" yMin="0" xMax="889" yMax="1471">
      <component glyphName="L.smcp" x="0" y="0" flags="0x204"/>
      <component glyphName="acute" x="-26" y="-7" flags="0x4"/>
    </TTGlyph>
    <TTGlyph name="Lambda" xMin="35" yMin="0" xMax="1297" yMax="1456">
      <contour>
        <pt x="668" y="1136" on="1"/>
        <pt x="662" y="1136" on="1"/>
        <pt x="286" y="0" on="1"/>
        <pt x="35" y="0" on="1"/>
        <pt x="550" y="1456" on="1"/>
        <pt x="781" y="1456" on="1"/>
        <pt x="1297" y="0" on="1"/>
        <pt x="1045" y="0" on="1"/>
      </contour>
    </TTGlyph>
    <TTGlyph name="Lcaron" xMin="159" yMin="0" xMax="1071" yMax="1458">
      <component glyphName="L" x="0" y="0" flags="0x204"/>
      <component glyphName="commaaccent" x="516" y="1196" flags="0x4"/>
    </TTGlyph>
    <TTGlyph name="Lcaron.smcp" xMin="142" yMin="0" xMax="889" yMax="1167">
      <component glyphName="L.smcp" x="0" y="0" flags="0x204"/>
      <component glyphName="commaaccent" x="400" y="905" flags="0x4"/>
    </TTGlyph>
    <TTGlyph name="Lcommaaccent" xMin="159" yMin="-484" xMax="1071" yMax="1456">
      <component glyphName="L" x="0" y="0" flags="0x204"/>
      <component glyphName="commaaccent" x="381" y="-356" flags="0x4"/>
    </TTGlyph>
    <TTGlyph name="Lcommaaccent.smcp" xMin="142" yMin="-486" xMax="889" yMax="1165">
      <component glyphName="L.smcp" x="0" y="0" flags="0x204"/>
      <component glyphName="commaaccent" x="245" y="-358" flags="0x4"/>
    </TTGlyph>
    <TTGlyph name="Ldot" xMin="159" yMin="0" xMax="1071" yMax="1456">
      <component glyphName="L" x="0" y="0" flags="0x204"/>
      <component glyphName="dotaccent" x="443" y="-555" flags="0x4"/>
    </TTGlyph>
    <TTGlyph name="Ldot.smcp" xMin="142" yMin="0" xMax="889" yMax="1165">
      <component glyphName="L.smcp" x="0" y="0" flags="0x204"/>
      <component glyphName="dotaccent" x="330" y="-717" flags="0x4"/>
    </TTGlyph>
    <TTGlyph name="Lslash" xMin="27" yMin="0" xMax="1054" yMax="1456">
      <contour>
        <pt x="385" y="864" on="1"/>
        <pt x="645" y="943" on="1"/>
        <pt x="645" y="759" on="1"/>
        <pt x="385" y="680" on="1"/>
        <pt x="385" y="194" on="1"/>
        <pt x="1054" y="194" on="1"/>
        <pt x="1054" y="0" on="1"/>
        <pt x="142" y="0" on="1"/>
        <pt x="142" y="607" on="1"/>
        <pt x="27" y="572" on="1"/>
        <pt x="27" y="756" on="1"/>
        <pt x="142" y="791" on="1"/>
        <pt x="142" y="1456" on="1"/>
        <pt x="385" y="1456" on="1"/>
      </contour>
    </TTGlyph>
    <TTGlyph name="M" xMin="159" yMin="0" xMax="1634" yMax="1456">
      <contour>
        <pt x="474" y="1456" on="1"/>
        <pt x="893" y="336" on="1"/>
        <pt x="899" y="336" on="1"/>
        <pt x="1319" y="1456" on="1"/>
        <pt x="1634" y="1456" on="1"/>
        <pt x="1634" y="0" on="1"/>
        <pt x="1391" y="0" on="1"/>
        <pt x="1391" y="496" on="1"/>
        <pt x="1415" y="1127" on="1"/>
        <pt x="1409" y="1128" on="1"/>
        <pt x="977" y="0" on="1"/>
        <pt x="814" y="0" on="1"/>
        <pt x="384" y="1125" on="1"/>
        <pt x="378" y="1124" on="1"/>
        <pt x="402" y="496" on="1"/>
        <pt x="402" y="0" on="1"/>
        <pt x="159" y="0" on="1"/>
        <pt x="159" y="1456" on="1"/>
      </contour>
    </TTGlyph>
    <TTGlyph name="M.smcp" xMin="142" yMin="0" xMax="1390" yMax="1165">
      <contour>
        <pt x="763" y="307" on="1"/>
        <pt x="769" y="307" on="1"/>
        <pt x="1086" y="1165" on="1"/>
        <pt x="1390" y="1165" on="1"/>
        <pt x="1390" y="0" on="1"/>
        <pt x="1147" y="0" on="1"/>
        <pt x="1147" y="758" on="1"/>
        <pt x="1141" y="759" on="1"/>
        <pt x="848" y="0" on="1"/>
        <pt x="683" y="0" on="1"/>
        <pt x="390" y="762" on="1"/>
        <pt x="384" y="761" on="1"/>
        <pt x="384" y="0" on="1"/>
        <pt x="142" y="0" on="1"/>
        <pt x="142" y="1165" on="1"/>
        <pt x="448" y="1165" on="1"/>
      </contour>
    </TTGlyph>
    <TTGlyph name="Mu" xMin="159" yMin="0" xMax="1634" yMax="1456">
      <component glyphName="M" x="0" y="0" flags="0x204"/>
    </TTGlyph>
    <TTGlyph name="N" xMin="159" yMin="0" xMax="1296" yMax="1456">
      <contour>
        <pt x="1296" y="0" on="1"/>
        <pt x="1054" y="0" on="1"/>
        <pt x="408" y="1063" on="1"/>
        <pt x="402" y="1061" on="1"/>
        <pt x="402" y="0" on="1"/>
        <pt x="159" y="0" on="1"/>
        <pt x="159" y="1456" on="1"/>
        <pt x="402" y="1456" on="1"/>
        <pt x="1048" y="394" on="1"/>
        <pt x="1054" y="396" on="1"/>
        <pt x="1054" y="1456" on="1"/>
        <pt x="1296" y="1456" on="1"/>
      </contour>
    </TTGlyph>
    <TTGlyph name="N.smcp" xMin="142" yMin="0" xMax="1157" yMax="1165">
      <contour>
        <pt x="1157" y="0" on="1"/>
        <pt x="915" y="0" on="1"/>
        <pt x="390" y="793" on="1"/>
        <pt x="384" y="792" on="1"/>
        <pt x="384" y="0" on="1"/>
        <pt x="142" y="0" on="1"/>
        <pt x="142" y="1165" on="1"/>
        <pt x="384" y="1165" on="1"/>
        <pt x="909" y="374" on="1"/>
        <pt x="915" y="375" on="1"/>
        <pt x="915" y="1165" on="1"/>
        <pt x="1157" y="1165" on="1"/>
      </contour>
    </TTGlyph>
    <TTGlyph name="Nacute" xMin="159" yMin="0" xMax="1296" yMax="1825">
      <component glyphName="N" x="0" y="0" flags="0x204"/>
      <component glyphName="acute" x="488" y="347" flags="0x4"/>
    </TTGlyph>
    <TTGlyph name="Nacute.smcp" xMin="142" yMin="0" xMax="1157" yMax="1502">
      <component glyphName="N.smcp" x="0" y="0" flags="0x204"/>
      <component glyphName="acute" x="394" y="24" flags="0x4"/>
    </TTGlyph>
    <TTGlyph name="Ncaron" xMin="159" yMin="0" xMax="1296" yMax="1870">
      <component glyphName="N" x="0" y="0" flags="0x204"/>
      <component glyphName="caron" x="259" y="349" flags="0x4"/>
    </TTGlyph>
    <TTGlyph name="Ncaron.smcp" xMin="142" yMin="0" xMax="1157" yMax="1547">
      <component glyphName="N.smcp" x="0" y="0" flags="0x204"/>
      <component glyphName="caron" x="165" y="26" flags="0x4"/>
    </TTGlyph>
    <TTGlyph name="Ncommaaccent" xMin="159" yMin="-484" xMax="1296" yMax="1456">
      <component glyphName="N" x="0" y="0" flags="0x204"/>
      <component glyphName="commaaccent" x="488" y="-356" flags="0x4"/>
    </TTGlyph>
    <TTGlyph name="Ncommaaccent.smcp" xMin="142" yMin="-486" xMax="1157" yMax="1165">
      <component glyphName="N.smcp" x="0" y="0" flags="0x204"/>
      <component glyphName="commaaccent" x="394" y="-358" flags="0x4"/>
    </TTGlyph>
    <TTGlyph name="Ntilde" xMin="159" yMin="0" xMax="1296" yMax="1891">
      <component glyphName="N" x="0" y="0" flags="0x204"/>
      <component glyphName="tilde" x="238" y="364" flags="0x4"/>
    </TTGlyph>
    <TTGlyph name="Ntilde.smcp" xMin="142" yMin="0" xMax="1157" yMax="1568">
      <component glyphName="N.smcp" x="0" y="0" flags="0x204"/>
      <component glyphName="tilde" x="144" y="41" flags="0x4"/>
    </TTGlyph>
    <TTGlyph name="Nu" xMin="159" yMin="0" xMax="1296" yMax="1456">
      <component glyphName="N" x="0" y="0" flags="0x204"/>
    </TTGlyph>
    <TTGlyph name="O" xMin="103" yMin="-21" xMax="1294" yMax="1477">
      <contour>
        <pt x="1294" y="597" on="1"/>
        <pt x="1294" y="330" on="0"/>
        <pt x="959" y="-21" on="0"/>
        <pt x="692" y="-21" on="1"/>
        <pt x="430" y="-21" on="0"/>
        <pt x="103" y="330" on="0"/>
        <pt x="103" y="597" on="1"/>
        <pt x="103" y="859" on="1"/>
        <pt x="103" y="1125" on="0"/>
        <pt x="430" y="1477" on="0"/>
        <pt x="691" y="1477" on="1"/>
        <pt x="958" y="1477" on="0"/>
        <pt x="1294" y="1125" on="0"/>
        <pt x="1294" y="859" on="1"/>
      </contour>
      <contour>
        <pt x="1052" y="861" on="1"/>
        <pt x="1052" y="1043" on="0"/>
        <pt x="857" y="1277" on="0"/>
        <pt x="691" y="1277" on="1"/>
        <pt x="531" y="1277" on="0"/>
        <pt x="345" y="1043" on="0"/>
        <pt x="345" y="861" on="1"/>
        <pt x="345" y="597" on="1"/>
        <pt x="345" y="413" on="0"/>
        <pt x="531" y="178" on="0"/>
        <pt x="692" y="178" on="1"/>
        <pt x="859" y="178" on="0"/>
        <pt x="1052" y="412" on="0"/>
        <pt x="1052" y="597" on="1"/>
      </contour>
    </TTGlyph>
    <TTGlyph name="O.smcp" xMin="102" yMin="-18" xMax="1124" yMax="1181">
      <contour>
        <pt x="1124" y="461" on="1"/>
        <pt x="1124" y="248" on="0"/>
        <pt x="840" y="-18" on="0"/>
        <pt x="613" y="-18" on="1"/>
        <pt x="387" y="-18" on="0"/>
        <pt x="102" y="248" on="0"/>
        <pt x="102" y="461" on="1"/>
        <pt x="102" y="704" on="1"/>
        <pt x="102" y="916" on="0"/>
        <pt x="385" y="1181" on="0"/>
        <pt x="612" y="1181" on="1"/>
        <pt x="839" y="1181" on="0"/>
        <pt x="1124" y="916" on="0"/>
        <pt x="1124" y="704" on="1"/>
      </contour>
      <contour>
        <pt x="881" y="705" on="1"/>
        <pt x="881" y="832" on="0"/>
        <pt x="736" y="988" on="0"/>
        <pt x="612" y="988" on="1"/>
        <pt x="487" y="988" on="0"/>
        <pt x="345" y="832" on="0"/>
        <pt x="345" y="705" on="1"/>
        <pt x="345" y="461" on="1"/>
        <pt x="345" y="332" on="0"/>
        <pt x="488" y="174" on="0"/>
        <pt x="613" y="174" on="1"/>
        <pt x="737" y="174" on="0"/>
        <pt x="881" y="332" on="0"/>
        <pt x="881" y="461" on="1"/>
      </contour>
    </TTGlyph>
    <TTGlyph name="OE" xMin="101" yMin="-21" xMax="1866" yMax="1477">
      <contour>
        <pt x="1866" y="0" on="1"/>
        <pt x="971" y="0" on="1"/>
        <pt x="879" y="-10" on="0"/>
        <pt x="750" y="-21" on="0"/>
        <pt x="683" y="-21" on="1"/>
        <pt x="423" y="-21" on="0"/>
        <pt x="101" y="310" on="0"/>
        <pt x="101" y="576" on="1"/>
        <pt x="101" y="880" on="1"/>
        <pt x="101" y="1145" on="0"/>
        <pt x="422" y="1477" on="0"/>
        <pt x="681" y="1477" on="1"/>
        <pt x="750" y="1477" on="0"/>
        <pt x="892" y="1465" on="0"/>
        <pt x="971" y="1456" on="1"/>
        <pt x="1859" y="1456" on="1"/>
        <pt x="1859" y="1261" on="1"/>
        <pt x="1127" y="1261" on="1"/>
        <pt x="1127" y="850" on="1"/>
        <pt x="1764" y="850" on="1"/>
        <pt x="1764" y="655" on="1"/>
        <pt x="1127" y="655" on="1"/>
        <pt x="1127" y="194" on="1"/>
        <pt x="1866" y="194" on="1"/>
      </contour>
      <contour>
        <pt x="683" y="174" on="1"/>
        <pt x="734" y="174" on="0"/>
        <pt x="835" y="181" on="0"/>
        <pt x="884" y="188" on="1"/>
        <pt x="884" y="1268" on="1"/>
        <pt x="831" y="1274" on="0"/>
        <pt x="730" y="1282" on="0"/>
        <pt x="681" y="1282" on="1"/>
        <pt x="522" y="1282" on="0"/>
        <pt x="343" y="1077" on="0"/>
        <pt x="343" y="882" on="1"/>
        <pt x="343" y="576" on="1"/>
        <pt x="343" y="380" on="0"/>
        <pt x="523" y="174" on="0"/>
      </contour>
    </TTGlyph>
    <TTGlyph name="Oacute" xMin="103" yMin="-21" xMax="1294" yMax="1846">
      <component glyphName="O" x="0" y="0" flags="0x204"/>
      <component glyphName="acute" x="461" y="368" flags="0x4"/>
    </TTGlyph>
    <TTGlyph name="Oacute.smcp" xMin="102" yMin="-18" xMax="1124" yMax="1519">
      <component glyphName="O.smcp" x="0" y="0" flags="0x204"/>
      <component glyphName="acute" x="360" y="41" flags="0x4"/>
    </TTGlyph>
    <TTGlyph name="Obreve" xMin="103" yMin="-21" xMax="1294" yMax="1905">
      <component glyphName="O" x="0" y="0" flags="0x204"/>
      <component glyphName="breve" x="260" y="449" flags="0x4"/>
    </TTGlyph>
    <TTGlyph name="Obreve.smcp" xMin="102" yMin="-18" xMax="1124" yMax="1578">
      <component glyphName="O.smcp" x="0" y="0" flags="0x204"/>
      <component glyphName="breve" x="159" y="122" flags="0x4"/>
    </TTGlyph>
    <TTGlyph name="Ocircumflex" xMin="103" yMin="-21" xMax="1294" yMax="1884">
      <component glyphName="O" x="0" y="0" flags="0x204"/>
      <component glyphName="circumflex" x="209" y="366" flags="0x4"/>
    </TTGlyph>
    <TTGlyph name="Ocircumflex.smcp" xMin="102" yMin="-18" xMax="1124" yMax="1557">
      <component glyphName="O.smcp" x="0" y="0" flags="0x204"/>
      <component glyphName="circumflex" x="108" y="39" flags="0x4"/>
    </TTGlyph>
    <TTGlyph name="Odieresis" xMin="103" yMin="-21" xMax="1294" yMax="1826">
      <component glyphName="O" x="0" y="0" flags="0x204"/>
      <component glyphName="dieresis" x="173" y="370" flags="0x4"/>
    </TTGlyph>
    <TTGlyph name="Odieresis.smcp" xMin="102" yMin="-18" xMax="1124" yMax="1499">
      <component glyphName="O.smcp" x="0" y="0" flags="0x204"/>
      <component glyphName="dieresis" x="72" y="43" flags="0x4"/>
    </TTGlyph>
    <TTGlyph name="Ograve" xMin="103" yMin="-21" xMax="1294" yMax="1847">
      <component glyphName="O" x="0" y="0" flags="0x204"/>
      <component glyphName="grave" x="278" y="369" flags="0x4"/>
    </TTGlyph>
    <TTGlyph name="Ograve.smcp" xMin="102" yMin="-18" xMax="1124" yMax="1520">
      <component glyphName="O.smcp" x="0" y="0" flags="0x204"/>
      <component glyphName="grave" x="177" y="42" flags="0x4"/>
    </TTGlyph>
    <TTGlyph name="Ohorn" xMin="98" yMin="-21" xMax="1548" yMax="1635">
      <contour>
        <pt x="1289" y="597" on="1"/>
        <pt x="1289" y="330" on="0"/>
        <pt x="954" y="-21" on="0"/>
        <pt x="687" y="-21" on="1"/>
        <pt x="425" y="-21" on="0"/>
        <pt x="98" y="330" on="0"/>
        <pt x="98" y="597" on="1"/>
        <pt x="98" y="859" on="1"/>
        <pt x="98" y="1125" on="0"/>
        <pt x="425" y="1477" on="0"/>
        <pt x="686" y="1477" on="1"/>
        <pt x="813" y="1477" on="0"/>
        <pt x="1029" y="1390" on="0"/>
        <pt x="1110" y="1312" on="1"/>
        <pt x="1223" y="1332" on="0"/>
        <pt x="1340" y="1498" on="0"/>
        <pt x="1340" y="1635" on="1"/>
        <pt x="1548" y="1635" on="1"/>
        <pt x="1548" y="1443" on="0"/>
        <pt x="1382" y="1192" on="0"/>
        <pt x="1227" y="1147" on="1"/>
        <pt x="1257" y="1082" on="0"/>
        <pt x="1289" y="936" on="0"/>
        <pt x="1289" y="859" on="1"/>
      </contour>
      <contour>
        <pt x="1047" y="861" on="1"/>
        <pt x="1047" y="1043" on="0"/>
        <pt x="852" y="1277" on="0"/>
        <pt x="686" y="1277" on="1"/>
        <pt x="526" y="1277" on="0"/>
        <pt x="340" y="1043" on="0"/>
        <pt x="340" y="861" on="1"/>
        <pt x="340" y="597" on="1"/>
        <pt x="340" y="413" on="0"/>
        <pt x="526" y="178" on="0"/>
        <pt x="687" y="178" on="1"/>
        <pt x="854" y="178" on="0"/>
        <pt x="1047" y="412" on="0"/>
        <pt x="1047" y="597" on="1"/>
      </contour>
    </TTGlyph>
    <TTGlyph name="Ohungarumlaut" xMin="103" yMin="-21" xMax="1294" yMax="1888">
      <component glyphName="O" x="0" y="0" flags="0x204"/>
      <component glyphName="hungarumlaut" x="310" y="370" flags="0x4"/>
    </TTGlyph>
    <TTGlyph name="Ohungarumlaut.smcp" xMin="102" yMin="-18" xMax="1129" yMax="1561">
      <component glyphName="O.smcp" x="0" y="0" flags="0x204"/>
      <component glyphName="hungarumlaut" x="209" y="43" flags="0x4"/>
    </TTGlyph>
    <TTGlyph name="Omacron" xMin="103" yMin="-21" xMax="1294" yMax="1803">
      <component glyphName="O" x="0" y="0" flags="0x204"/>
      <component glyphName="macron" x="204" y="347" flags="0x4"/>
    </TTGlyph>
    <TTGlyph name="Omacron.smcp" xMin="102" yMin="-18" xMax="1124" yMax="1476">
      <component glyphName="O.smcp" x="0" y="0" flags="0x204"/>
      <component glyphName="macron" x="103" y="20" flags="0x4"/>
    </TTGlyph>
    <TTGlyph name="Omega" xMin="108" yMin="0" xMax="1242" yMax="1477">
      <contour>
        <pt x="735" y="200" on="1"/>
        <pt x="853" y="228" on="0"/>
        <pt x="985" y="502" on="0"/>
        <pt x="985" y="745" on="1"/>
        <pt x="985" y="850" on="1"/>
        <pt x="985" y="1060" on="0"/>
        <pt x="820" y="1280" on="0"/>
        <pt x="674" y="1280" on="1"/>
        <pt x="528" y="1280" on="0"/>
        <pt x="365" y="1060" on="0"/>
        <pt x="365" y="850" on="1"/>
        <pt x="365" y="745" on="1"/>
        <pt x="365" y="501" on="0"/>
        <pt x="500" y="227" on="0"/>
        <pt x="621" y="200" on="1"/>
        <pt x="621" y="0" on="1"/>
        <pt x="121" y="0" on="1"/>
        <pt x="121" y="196" on="1"/>
        <pt x="356" y="196" on="1"/>
        <pt x="242" y="290" on="0"/>
        <pt x="108" y="584" on="0"/>
        <pt x="108" y="745" on="1"/>
        <pt x="108" y="848" on="1"/>
        <pt x="108" y="1126" on="0"/>
        <pt x="422" y="1477" on="0"/>
        <pt x="674" y="1477" on="1"/>
        <pt x="926" y="1477" on="0"/>
        <pt x="1242" y="1126" on="0"/>
        <pt x="1242" y="848" on="1"/>
        <pt x="1242" y="745" on="1"/>
        <pt x="1242" y="585" on="0"/>
        <pt x="1107" y="291" on="0"/>
        <pt x="995" y="196" on="1"/>
        <pt x="1236" y="196" on="1"/>
        <pt x="1236" y="0" on="1"/>
        <pt x="735" y="0" on="1"/>
      </contour>
    </TTGlyph>
    <TTGlyph name="Omegatonos" xMin="20" yMin="0" xMax="1262" yMax="1638">
      <component glyphName="Omega" x="20" y="0" flags="0x4"/>
      <component glyphName="tonos" x="-195" y="0" flags="0x4"/>
    </TTGlyph>
    <TTGlyph name="Omicron" xMin="103" yMin="-21" xMax="1294" yMax="1477">
      <component glyphName="O" x="0" y="0" flags="0x204"/>
    </TTGlyph>
    <TTGlyph name="Omicrontonos" xMin="30" yMin="-21" xMax="1314" yMax="1638">
      <component glyphName="O" x="20" y="0" flags="0x4"/>
      <component glyphName="tonos" x="-185" y="0" flags="0x4"/>
    </TTGlyph>
    <TTGlyph name="Oslash" xMin="103" yMin="-95" xMax="1294" yMax="1518">
      <contour>
        <pt x="1294" y="597" on="1"/>
        <pt x="1294" y="330" on="0"/>
        <pt x="959" y="-21" on="0"/>
        <pt x="692" y="-21" on="1"/>
        <pt x="610" y="-21" on="0"/>
        <pt x="463" y="15" on="0"/>
        <pt x="400" y="51" on="1"/>
        <pt x="314" y="-95" on="1"/>
        <pt x="166" y="-95" on="1"/>
        <pt x="296" y="126" on="1"/>
        <pt x="203" y="210" on="0"/>
        <pt x="103" y="454" on="0"/>
        <pt x="103" y="597" on="1"/>
        <pt x="103" y="859" on="1"/>
        <pt x="103" y="1125" on="0"/>
        <pt x="430" y="1477" on="0"/>
        <pt x="691" y="1477" on="1"/>
        <pt x="788" y="1477" on="0"/>
        <pt x="959" y="1426" on="0"/>
        <pt x="1032" y="1379" on="1"/>
        <pt x="1114" y="1518" on="1"/>
        <pt x="1262" y="1518" on="1"/>
        <pt x="1131" y="1296" on="1"/>
        <pt x="1209" y="1212" on="0"/>
        <pt x="1294" y="987" on="0"/>
        <pt x="1294" y="859" on="1"/>
      </contour>
      <contour>
        <pt x="345" y="597" on="1"/>
        <pt x="345" y="518" on="0"/>
        <pt x="380" y="383" on="0"/>
        <pt x="413" y="336" on="1"/>
        <pt x="419" y="335" on="1"/>
        <pt x="923" y="1193" on="1"/>
        <pt x="876" y="1233" on="0"/>
        <pt x="760" y="1277" on="0"/>
        <pt x="691" y="1277" on="1"/>
        <pt x="531" y="1277" on="0"/>
        <pt x="345" y="1043" on="0"/>
        <pt x="345" y="861" on="1"/>
      </contour>
      <contour>
        <pt x="1052" y="861" on="1"/>
        <pt x="1052" y="922" on="0"/>
        <pt x="1028" y="1031" on="0"/>
        <pt x="1007" y="1073" on="1"/>
        <pt x="1001" y="1074" on="1"/>
        <pt x="506" y="232" on="1"/>
        <pt x="545" y="205" on="0"/>
        <pt x="639" y="178" on="0"/>
        <pt x="692" y="178" on="1"/>
        <pt x="859" y="178" on="0"/>
        <pt x="1052" y="412" on="0"/>
        <pt x="1052" y="597" on="1"/>
      </contour>
    </TTGlyph>
    <TTGlyph name="Oslashacute" xMin="103" yMin="-95" xMax="1294" yMax="1887">
      <component glyphName="Oslash" x="0" y="0" flags="0x204"/>
      <component glyphName="acute" x="467" y="409" flags="0x4"/>
    </TTGlyph>
    <TTGlyph name="Otilde" xMin="103" yMin="-21" xMax="1294" yMax="1912">
      <component glyphName="O" x="0" y="0" flags="0x204"/>
      <component glyphName="tilde" x="211" y="385" flags="0x4"/>
    </TTGlyph>
    <TTGlyph name="Otilde.smcp" xMin="102" yMin="-18" xMax="1124" yMax="1585">
      <component glyphName="O.smcp" x="0" y="0" flags="0x204"/>
      <component glyphName="tilde" x="110" y="58" flags="0x4"/>
    </TTGlyph>
    <TTGlyph name="P" xMin="159" yMin="0" xMax="1242" yMax="1456">
      <contour>
        <pt x="402" y="552" on="1"/>
        <pt x="402" y="0" on="1"/>
        <pt x="159" y="0" on="1"/>
        <pt x="159" y="1456" on="1"/>
        <pt x="728" y="1456" on="1"/>
        <pt x="969" y="1456" on="0"/>
        <pt x="1242" y="1207" on="0"/>
        <pt x="1242" y="1004" on="1"/>
        <pt x="1242" y="799" on="0"/>
        <pt x="969" y="552" on="0"/>
        <pt x="728" y="552" on="1"/>
      </contour>
      <contour>
        <pt x="402" y="747" on="1"/>
        <pt x="728" y="747" on="1"/>
        <pt x="863" y="747" on="0"/>
        <pt x="999" y="891" on="0"/>
        <pt x="999" y="1002" on="1"/>
        <pt x="999" y="1113" on="0"/>
        <pt x="863" y="1261" on="0"/>
        <pt x="728" y="1261" on="1"/>
        <pt x="402" y="1261" on="1"/>
      </contour>
    </TTGlyph>
    <TTGlyph name="P.smcp" xMin="142" yMin="0" xMax="1088" yMax="1165">
      <contour>
        <pt x="384" y="390" on="1"/>
        <pt x="384" y="0" on="1"/>
        <pt x="142" y="0" on="1"/>
        <pt x="142" y="1165" on="1"/>
        <pt x="625" y="1165" on="1"/>
        <pt x="837" y="1165" on="0"/>
        <pt x="1088" y="948" on="0"/>
        <pt x="1088" y="777" on="1"/>
        <pt x="1088" y="605" on="0"/>
        <pt x="837" y="390" on="0"/>
        <pt x="625" y="390" on="1"/>
      </contour>
      <contour>
        <pt x="384" y="584" on="1"/>
        <pt x="625" y="584" on="1"/>
        <pt x="731" y="584" on="0"/>
        <pt x="845" y="695" on="0"/>
        <pt x="845" y="775" on="1"/>
        <pt x="845" y="856" on="0"/>
        <pt x="731" y="972" on="0"/>
        <pt x="625" y="972" on="1"/>
        <pt x="384" y="972" on="1"/>
      </contour>
    </TTGlyph>
    <TTGlyph name="Phi" xMin="72" yMin="0" xMax="1407" yMax="1456">
      <contour>
        <pt x="862" y="1244" on="1"/>
        <pt x="1100" y="1234" on="0"/>
        <pt x="1407" y="946" on="0"/>
        <pt x="1407" y="722" on="1"/>
        <pt x="1407" y="498" on="0"/>
        <pt x="1100" y="213" on="0"/>
        <pt x="862" y="204" on="1"/>
        <pt x="862" y="0" on="1"/>
        <pt x="619" y="0" on="1"/>
        <pt x="619" y="203" on="1"/>
        <pt x="378" y="212" on="0"/>
        <pt x="72" y="496" on="0"/>
        <pt x="72" y="720" on="1"/>
        <pt x="72" y="945" on="0"/>
        <pt x="379" y="1234" on="0"/>
        <pt x="619" y="1244" on="1"/>
        <pt x="619" y="1456" on="1"/>
        <pt x="862" y="1456" on="1"/>
      </contour>
      <contour>
        <pt x="311" y="720" on="1"/>
        <pt x="311" y="578" on="0"/>
        <pt x="471" y="416" on="0"/>
        <pt x="613" y="413" on="1"/>
        <pt x="619" y="415" on="1"/>
        <pt x="619" y="1033" on="1"/>
        <pt x="613" y="1035" on="1"/>
        <pt x="471" y="1031" on="0"/>
        <pt x="311" y="863" on="0"/>
      </contour>
      <contour>
        <pt x="1168" y="722" on="1"/>
        <pt x="1168" y="865" on="0"/>
        <pt x="1008" y="1031" on="0"/>
        <pt x="868" y="1035" on="1"/>
        <pt x="862" y="1033" on="1"/>
        <pt x="862" y="415" on="1"/>
        <pt x="868" y="413" on="1"/>
        <pt x="1008" y="416" on="0"/>
        <pt x="1168" y="580" on="0"/>
      </contour>
    </TTGlyph>
    <TTGlyph name="Pi" xMin="159" yMin="0" xMax="1297" yMax="1456">
      <contour>
        <pt x="1297" y="0" on="1"/>
        <pt x="1055" y="0" on="1"/>
        <pt x="1055" y="1261" on="1"/>
        <pt x="402" y="1261" on="1"/>
        <pt x="402" y="0" on="1"/>
        <pt x="159" y="0" on="1"/>
        <pt x="159" y="1456" on="1"/>
        <pt x="1297" y="1456" on="1"/>
      </contour>
    </TTGlyph>
    <TTGlyph name="Psi" xMin="72" yMin="0" xMax="1361" yMax="1456">
      <contour>
        <pt x="834" y="538" on="1"/>
        <pt x="840" y="536" on="1"/>
        <pt x="970" y="552" on="0"/>
        <pt x="1118" y="747" on="0"/>
        <pt x="1118" y="913" on="1"/>
        <pt x="1118" y="1456" on="1"/>
        <pt x="1361" y="1456" on="1"/>
        <pt x="1361" y="913" on="1"/>
        <pt x="1361" y="660" on="0"/>
        <pt x="1074" y="356" on="0"/>
        <pt x="834" y="331" on="1"/>
        <pt x="834" y="0" on="1"/>
        <pt x="592" y="0" on="1"/>
        <pt x="592" y="330" on="1"/>
        <pt x="354" y="353" on="0"/>
        <pt x="72" y="658" on="0"/>
        <pt x="72" y="913" on="1"/>
        <pt x="72" y="1456" on="1"/>
        <pt x="314" y="1456" on="1"/>
        <pt x="314" y="913" on="1"/>
        <pt x="314" y="750" on="0"/>
        <pt x="460" y="555" on="0"/>
        <pt x="586" y="537" on="1"/>
        <pt x="592" y="539" on="1"/>
        <pt x="592" y="1456" on="1"/>
        <pt x="834" y="1456" on="1"/>
      </contour>
    </TTGlyph>
    <TTGlyph name="Q" xMin="103" yMin="-234" xMax="1360" yMax="1477">
      <contour>
        <pt x="1294" y="597" on="1"/>
        <pt x="1294" y="462" on="0"/>
        <pt x="1202" y="230" on="0"/>
        <pt x="1118" y="146" on="1"/>
        <pt x="1360" y="-89" on="1"/>
        <pt x="1198" y="-234" on="1"/>
        <pt x="930" y="22" on="1"/>
        <pt x="876" y="0" on="0"/>
        <pt x="756" y="-21" on="0"/>
        <pt x="692" y="-21" on="1"/>
        <pt x="430" y="-21" on="0"/>
        <pt x="103" y="330" on="0"/>
        <pt x="103" y="597" on="1"/>
        <pt x="103" y="859" on="1"/>
        <pt x="103" y="1125" on="0"/>
        <pt x="430" y="1477" on="0"/>
        <pt x="691" y="1477" on="1"/>
        <pt x="958" y="1477" on="0"/>
        <pt x="1294" y="1125" on="0"/>
        <pt x="1294" y="859" on="1"/>
      </contour>
      <contour>
        <pt x="1052" y="861" on="1"/>
        <pt x="1052" y="1043" on="0"/>
        <pt x="857" y="1277" on="0"/>
        <pt x="691" y="1277" on="1"/>
        <pt x="531" y="1277" on="0"/>
        <pt x="345" y="1043" on="0"/>
        <pt x="345" y="861" on="1"/>
        <pt x="345" y="597" on="1"/>
        <pt x="345" y="413" on="0"/>
        <pt x="531" y="178" on="0"/>
        <pt x="692" y="178" on="1"/>
        <pt x="859" y="178" on="0"/>
        <pt x="1052" y="412" on="0"/>
        <pt x="1052" y="597" on="1"/>
      </contour>
    </TTGlyph>
    <TTGlyph name="Q.smcp" xMin="104" yMin="-129" xMax="1172" yMax="1181">
      <contour>
        <pt x="1126" y="461" on="1"/>
        <pt x="1126" y="371" on="0"/>
        <pt x="1071" y="214" on="0"/>
        <pt x="1020" y="153" on="1"/>
        <pt x="1172" y="1" on="1"/>
        <pt x="1011" y="-129" on="1"/>
        <pt x="852" y="29" on="1"/>
        <pt x="799" y="6" on="0"/>
        <pt x="679" y="-18" on="0"/>
        <pt x="615" y="-18" on="1"/>
        <pt x="389" y="-18" on="0"/>
        <pt x="104" y="248" on="0"/>
        <pt x="104" y="461" on="1"/>
        <pt x="104" y="704" on="1"/>
        <pt x="104" y="916" on="0"/>
        <pt x="387" y="1181" on="0"/>
        <pt x="614" y="1181" on="1"/>
        <pt x="840" y="1181" on="0"/>
        <pt x="1126" y="915" on="0"/>
        <pt x="1126" y="704" on="1"/>
      </contour>
      <contour>
        <pt x="883" y="705" on="1"/>
        <pt x="883" y="832" on="0"/>
        <pt x="738" y="988" on="0"/>
        <pt x="614" y="988" on="1"/>
        <pt x="489" y="988" on="0"/>
        <pt x="346" y="832" on="0"/>
        <pt x="346" y="705" on="1"/>
        <pt x="346" y="461" on="1"/>
        <pt x="346" y="332" on="0"/>
        <pt x="490" y="174" on="0"/>
        <pt x="615" y="174" on="1"/>
        <pt x="739" y="174" on="0"/>
        <pt x="883" y="332" on="0"/>
        <pt x="883" y="461" on="1"/>
      </contour>
    </TTGlyph>
    <TTGlyph name="R" xMin="159" yMin="0" xMax="1279" yMax="1456">
      <contour>
        <pt x="402" y="604" on="1"/>
        <pt x="402" y="0" on="1"/>
        <pt x="159" y="0" on="1"/>
        <pt x="159" y="1456" on="1"/>
        <pt x="697" y="1456" on="1"/>
        <pt x="941" y="1456" on="0"/>
        <pt x="1207" y="1236" on="0"/>
        <pt x="1207" y="1032" on="1"/>
        <pt x="1207" y="919" on="0"/>
        <pt x="1090" y="756" on="0"/>
        <pt x="978" y="707" on="1"/>
        <pt x="1101" y="668" on="0"/>
        <pt x="1209" y="491" on="0"/>
        <pt x="1209" y="362" on="1"/>
        <pt x="1209" y="241" on="1"/>
        <pt x="1209" y="177" on="0"/>
        <pt x="1241" y="55" on="0"/>
        <pt x="1279" y="23" on="1"/>
        <pt x="1279" y="0" on="1"/>
        <pt x="1029" y="0" on="1"/>
        <pt x="989" y="33" on="0"/>
        <pt x="966" y="175" on="0"/>
        <pt x="966" y="243" on="1"/>
        <pt x="966" y="360" on="1"/>
        <pt x="966" y="472" on="0"/>
        <pt x="838" y="604" on="0"/>
        <pt x="726" y="604" on="1"/>
      </contour>
      <contour>
        <pt x="402" y="799" on="1"/>
        <pt x="684" y="799" on="1"/>
        <pt x="830" y="799" on="0"/>
        <pt x="964" y="911" on="0"/>
        <pt x="964" y="1026" on="1"/>
        <pt x="964" y="1136" on="0"/>
        <pt x="832" y="1261" on="0"/>
        <pt x="697" y="1261" on="1"/>
        <pt x="402" y="1261" on="1"/>
      </contour>
    </TTGlyph>
    <TTGlyph name="R.smcp" xMin="142" yMin="0" xMax="1084" yMax="1165">
      <contour>
        <pt x="384" y="445" on="1"/>
        <pt x="384" y="0" on="1"/>
        <pt x="142" y="0" on="1"/>
        <pt x="142" y="1165" on="1"/>
        <pt x="604" y="1165" on="1"/>
        <pt x="813" y="1165" on="0"/>
        <pt x="1052" y="979" on="0"/>
        <pt x="1052" y="817" on="1"/>
        <pt x="1052" y="724" on="0"/>
        <pt x="952" y="591" on="0"/>
        <pt x="855" y="550" on="1"/>
        <pt x="964" y="520" on="0"/>
        <pt x="1059" y="377" on="0"/>
        <pt x="1059" y="271" on="1"/>
        <pt x="1059" y="172" on="1"/>
        <pt x="1059" y="131" on="0"/>
        <pt x="1070" y="36" on="0"/>
        <pt x="1084" y="16" on="1"/>
        <pt x="1084" y="0" on="1"/>
        <pt x="834" y="0" on="1"/>
        <pt x="822" y="20" on="0"/>
        <pt x="816" y="122" on="0"/>
        <pt x="816" y="173" on="1"/>
        <pt x="816" y="270" on="1"/>
        <pt x="816" y="355" on="0"/>
        <pt x="718" y="445" on="0"/>
        <pt x="624" y="445" on="1"/>
      </contour>
      <contour>
        <pt x="384" y="639" on="1"/>
        <pt x="604" y="639" on="1"/>
        <pt x="707" y="639" on="0"/>
        <pt x="809" y="725" on="0"/>
        <pt x="809" y="802" on="1"/>
        <pt x="809" y="878" on="0"/>
        <pt x="706" y="972" on="0"/>
        <pt x="604" y="972" on="1"/>
        <pt x="384" y="972" on="1"/>
      </contour>
    </TTGlyph>
    <TTGlyph name="Racute" xMin="159" yMin="0" xMax="1279" yMax="1825">
      <component glyphName="R" x="0" y="0" flags="0x204"/>
      <component glyphName="acute" x="387" y="347" flags="0x4"/>
    </TTGlyph>
    <TTGlyph name="Racute.smcp" xMin="142" yMin="0" xMax="1084" yMax="1502">
      <component glyphName="R.smcp" x="0" y="0" flags="0x204"/>
      <component glyphName="acute" x="289" y="24" flags="0x4"/>
    </TTGlyph>
    <TTGlyph name="Rcaron" xMin="159" yMin="0" xMax="1279" yMax="1870">
      <component glyphName="R" x="0" y="0" flags="0x204"/>
      <component glyphName="caron" x="158" y="349" flags="0x4"/>
    </TTGlyph>
    <TTGlyph name="Rcaron.smcp" xMin="142" yMin="0" xMax="1084" yMax="1547">
      <component glyphName="R.smcp" x="0" y="0" flags="0x204"/>
      <component glyphName="caron" x="60" y="26" flags="0x4"/>
    </TTGlyph>
    <TTGlyph name="Rcommaaccent" xMin="159" yMin="-484" xMax="1279" yMax="1456">
      <component glyphName="R" x="0" y="0" flags="0x204"/>
      <component glyphName="commaaccent" x="387" y="-356" flags="0x4"/>
    </TTGlyph>
    <TTGlyph name="Rcommaaccent.smcp" xMin="142" yMin="-486" xMax="1084" yMax="1165">
      <component glyphName="R.smcp" x="0" y="0" flags="0x204"/>
      <component glyphName="commaaccent" x="289" y="-358" flags="0x4"/>
    </TTGlyph>
    <TTGlyph name="Rho" xMin="159" yMin="0" xMax="1242" yMax="1456">
      <component glyphName="P" x="0" y="0" flags="0x204"/>
    </TTGlyph>
    <TTGlyph name="S" xMin="91" yMin="-21" xMax="1191" yMax="1477">
      <contour>
        <pt x="948" y="374" on="1"/>
        <pt x="948" y="465" on="0"/>
        <pt x="813" y="581" on="0"/>
        <pt x="642" y="627" on="1"/>
        <pt x="398" y="691" on="0"/>
        <pt x="135" y="902" on="0"/>
        <pt x="135" y="1073" on="1"/>
        <pt x="135" y="1249" on="0"/>
        <pt x="426" y="1477" on="0"/>
        <pt x="656" y="1477" on="1"/>
        <pt x="896" y="1477" on="0"/>
        <pt x="1187" y="1219" on="0"/>
        <pt x="1182" y="1038" on="1"/>
        <pt x="1180" y="1032" on="1"/>
        <pt x="947" y="1032" on="1"/>
        <pt x="947" y="1144" on="0"/>
        <pt x="795" y="1283" on="0"/>
        <pt x="654" y="1283" on="1"/>
        <pt x="521" y="1283" on="0"/>
        <pt x="378" y="1167" on="0"/>
        <pt x="378" y="1075" on="1"/>
        <pt x="378" y="992" on="0"/>
        <pt x="533" y="882" on="0"/>
        <pt x="712" y="833" on="1"/>
        <pt x="947" y="770" on="0"/>
        <pt x="1191" y="548" on="0"/>
        <pt x="1191" y="376" on="1"/>
        <pt x="1191" y="194" on="0"/>
        <pt x="900" y="-21" on="0"/>
        <pt x="663" y="-21" on="1"/>
        <pt x="435" y="-21" on="0"/>
        <pt x="91" y="220" on="0"/>
        <pt x="96" y="430" on="1"/>
        <pt x="98" y="436" on="1"/>
        <pt x="332" y="436" on="1"/>
        <pt x="332" y="303" on="0"/>
        <pt x="516" y="172" on="0"/>
        <pt x="663" y="172" on="1"/>
        <pt x="798" y="172" on="0"/>
        <pt x="948" y="281" on="0"/>
      </contour>
    </TTGlyph>
    <TTGlyph name="S.smcp" xMin="81" yMin="-18" xMax="1049" yMax="1181">
      <contour>
        <pt x="807" y="315" on="1"/>
        <pt x="807" y="376" on="0"/>
        <pt x="696" y="455" on="0"/>
        <pt x="552" y="487" on="1"/>
        <pt x="327" y="538" on="0"/>
        <pt x="122" y="693" on="0"/>
        <pt x="122" y="849" on="1"/>
        <pt x="122" y="996" on="0"/>
        <pt x="368" y="1181" on="0"/>
        <pt x="577" y="1181" on="1"/>
        <pt x="791" y="1181" on="0"/>
        <pt x="1032" y="988" on="0"/>
        <pt x="1027" y="821" on="1"/>
        <pt x="1025" y="815" on="1"/>
        <pt x="792" y="815" on="1"/>
        <pt x="792" y="895" on="0"/>
        <pt x="683" y="988" on="0"/>
        <pt x="577" y="988" on="1"/>
        <pt x="469" y="988" on="0"/>
        <pt x="364" y="911" on="0"/>
        <pt x="364" y="850" on="1"/>
        <pt x="364" y="786" on="0"/>
        <pt x="467" y="712" on="0"/>
        <pt x="627" y="677" on="1"/>
        <pt x="842" y="627" on="0"/>
        <pt x="1049" y="468" on="0"/>
        <pt x="1049" y="317" on="1"/>
        <pt x="1049" y="162" on="0"/>
        <pt x="789" y="-18" on="0"/>
        <pt x="570" y="-18" on="1"/>
        <pt x="354" y="-18" on="0"/>
        <pt x="81" y="168" on="0"/>
        <pt x="87" y="345" on="1"/>
        <pt x="88" y="351" on="1"/>
        <pt x="321" y="351" on="1"/>
        <pt x="322" y="258" on="0"/>
        <pt x="462" y="174" on="0"/>
        <pt x="570" y="174" on="1"/>
        <pt x="687" y="174" on="0"/>
        <pt x="807" y="252" on="0"/>
      </contour>
    </TTGlyph>
    <TTGlyph name="Sacute" xMin="91" yMin="-21" xMax="1191" yMax="1846">
      <component glyphName="S" x="0" y="0" flags="0x204"/>
      <component glyphName="acute" x="392" y="368" flags="0x4"/>
    </TTGlyph>
    <TTGlyph name="Sacute.smcp" xMin="81" yMin="-18" xMax="1049" yMax="1520">
      <component glyphName="S.smcp" x="0" y="0" flags="0x204"/>
      <component glyphName="acute" x="317" y="42" flags="0x4"/>
    </TTGlyph>
    <TTGlyph name="Scaron" xMin="91" yMin="-21" xMax="1191" yMax="1891">
      <component glyphName="S" x="0" y="0" flags="0x204"/>
      <component glyphName="caron" x="163" y="370" flags="0x4"/>
    </TTGlyph>
    <TTGlyph name="Scaron.smcp" xMin="81" yMin="-18" xMax="1049" yMax="1565">
      <component glyphName="S.smcp" x="0" y="0" flags="0x204"/>
      <component glyphName="caron" x="88" y="44" flags="0x4"/>
    </TTGlyph>
    <TTGlyph name="Scedilla" xMin="91" yMin="-455" xMax="1191" yMax="1477">
      <component glyphName="S" x="0" y="0" flags="0x204"/>
      <component glyphName="cedilla" x="413" y="-8" flags="0x4"/>
    </TTGlyph>
    <TTGlyph name="Scedilla.smcp" xMin="81" yMin="-452" xMax="1049" yMax="1181">
      <component glyphName="S.smcp" x="0" y="0" flags="0x204"/>
      <component glyphName="cedilla" x="330" y="-5" flags="0x4"/>
    </TTGlyph>
    <TTGlyph name="Scircumflex" xMin="91" yMin="-21" xMax="1191" yMax="1884">
      <component glyphName="S" x="0" y="0" flags="0x204"/>
      <component glyphName="circumflex" x="140" y="366" flags="0x4"/>
    </TTGlyph>
    <TTGlyph name="Scircumflex.smcp" xMin="81" yMin="-18" xMax="1049" yMax="1558">
      <component glyphName="S.smcp" x="0" y="0" flags="0x204"/>
      <component glyphName="circumflex" x="65" y="40" flags="0x4"/>
    </TTGlyph>
    <TTGlyph name="Scommaaccent" xMin="91" yMin="-504" xMax="1191" yMax="1477">
      <component glyphName="S" x="0" y="0" flags="0x204"/>
      <component glyphName="commaaccent" x="400" y="-376" flags="0x4"/>
    </TTGlyph>
    <TTGlyph name="Sigma" xMin="71" yMin="0" xMax="1100" yMax="1456">
      <contour>
        <pt x="790" y="719" on="1"/>
        <pt x="387" y="195" on="1"/>
        <pt x="1100" y="195" on="1"/>
        <pt x="1100" y="0" on="1"/>
        <pt x="71" y="0" on="1"/>
        <pt x="71" y="152" on="1"/>
        <pt x="533" y="729" on="1"/>
        <pt x="71" y="1304" on="1"/>
        <pt x="71" y="1456" on="1"/>
        <pt x="1062" y="1456" on="1"/>
        <pt x="1062" y="1261" on="1"/>
        <pt x="388" y="1261" on="1"/>
        <pt x="790" y="739" on="1"/>
      </contour>
    </TTGlyph>
    <TTGlyph name="T" xMin="31" yMin="0" xMax="1154" yMax="1456">
      <contour>
        <pt x="1154" y="1261" on="1"/>
        <pt x="714" y="1261" on="1"/>
        <pt x="714" y="0" on="1"/>
        <pt x="471" y="0" on="1"/>
        <pt x="471" y="1261" on="1"/>
        <pt x="31" y="1261" on="1"/>
        <pt x="31" y="1456" on="1"/>
        <pt x="1154" y="1456" on="1"/>
      </contour>
    </TTGlyph>
    <TTGlyph name="T.smcp" xMin="60" yMin="0" xMax="1001" yMax="1165">
      <contour>
        <pt x="1001" y="972" on="1"/>
        <pt x="649" y="972" on="1"/>
        <pt x="649" y="0" on="1"/>
        <pt x="406" y="0" on="1"/>
        <pt x="406" y="972" on="1"/>
        <pt x="60" y="972" on="1"/>
        <pt x="60" y="1165" on="1"/>
        <pt x="1001" y="1165" on="1"/>
      </contour>
    </TTGlyph>
    <TTGlyph name="Tau" xMin="31" yMin="0" xMax="1154" yMax="1456">
      <component glyphName="T" x="0" y="0" flags="0x204"/>
    </TTGlyph>
    <TTGlyph name="Tbar" xMin="31" yMin="0" xMax="1154" yMax="1456">
      <contour>
        <pt x="921" y="786" on="1"/>
        <pt x="714" y="786" on="1"/>
        <pt x="714" y="0" on="1"/>
        <pt x="471" y="0" on="1"/>
        <pt x="471" y="786" on="1"/>
        <pt x="266" y="786" on="1"/>
        <pt x="266" y="956" on="1"/>
        <pt x="471" y="956" on="1"/>
        <pt x="471" y="1261" on="1"/>
        <pt x="31" y="1261" on="1"/>
        <pt x="31" y="1456" on="1"/>
        <pt x="1154" y="1456" on="1"/>
        <pt x="1154" y="1261" on="1"/>
        <pt x="714" y="1261" on="1"/>
        <pt x="714" y="956" on="1"/>
        <pt x="921" y="956" on="1"/>
      </contour>
    </TTGlyph>
    <TTGlyph name="Tbar.smcp" xMin="60" yMin="0" xMax="1001" yMax="1165">
      <component glyphName="T.smcp" x="0" y="0" flags="0x204"/>
      <component glyphName="crossbar" x="45" y="-33" flags="0x4"/>
    </TTGlyph>
    <TTGlyph name="Tcaron" xMin="31" yMin="0" xMax="1154" yMax="1870">
      <component glyphName="T" x="0" y="0" flags="0x204"/>
      <component glyphName="caron" x="128" y="349" flags="0x4"/>
    </TTGlyph>
    <TTGlyph name="Tcaron.smcp" xMin="60" yMin="0" xMax="1001" yMax="1547">
      <component glyphName="T.smcp" x="0" y="0" flags="0x204"/>
      <component glyphName="caron" x="57" y="26" flags="0x4"/>
    </TTGlyph>
    <TTGlyph name="Tcommaaccent" xMin="31" yMin="-484" xMax="1154" yMax="1456">
      <component glyphName="T" x="0" y="0" flags="0x204"/>
      <component glyphName="commaaccent" x="357" y="-356" flags="0x4"/>
    </TTGlyph>
    <TTGlyph name="Tcommaaccent.smcp" xMin="60" yMin="-486" xMax="1001" yMax="1165">
      <component glyphName="T.smcp" x="0" y="0" flags="0x204"/>
      <component glyphName="commaaccent" x="286" y="-358" flags="0x4"/>
    </TTGlyph>
    <TTGlyph name="Theta" xMin="103" yMin="-21" xMax="1294" yMax="1477">
      <contour>
        <pt x="931" y="633" on="1"/>
        <pt x="483" y="633" on="1"/>
        <pt x="483" y="828" on="1"/>
        <pt x="931" y="828" on="1"/>
      </contour>
      <contour>
        <pt x="1294" y="597" on="1"/>
        <pt x="1294" y="330" on="0"/>
        <pt x="959" y="-21" on="0"/>
        <pt x="692" y="-21" on="1"/>
        <pt x="430" y="-21" on="0"/>
        <pt x="103" y="330" on="0"/>
        <pt x="103" y="597" on="1"/>
        <pt x="103" y="859" on="1"/>
        <pt x="103" y="1125" on="0"/>
        <pt x="430" y="1477" on="0"/>
        <pt x="691" y="1477" on="1"/>
        <pt x="958" y="1477" on="0"/>
        <pt x="1294" y="1125" on="0"/>
        <pt x="1294" y="859" on="1"/>
      </contour>
      <contour>
        <pt x="1052" y="861" on="1"/>
        <pt x="1052" y="1043" on="0"/>
        <pt x="857" y="1277" on="0"/>
        <pt x="691" y="1277" on="1"/>
        <pt x="531" y="1277" on="0"/>
        <pt x="345" y="1043" on="0"/>
        <pt x="345" y="861" on="1"/>
        <pt x="345" y="597" on="1"/>
        <pt x="345" y="413" on="0"/>
        <pt x="531" y="178" on="0"/>
        <pt x="692" y="178" on="1"/>
        <pt x="859" y="178" on="0"/>
        <pt x="1052" y="412" on="0"/>
        <pt x="1052" y="597" on="1"/>
      </contour>
    </TTGlyph>
    <TTGlyph name="Thorn" xMin="148" yMin="0" xMax="1150" yMax="1456">
      <contour>
        <pt x="391" y="1456" on="1"/>
        <pt x="391" y="1176" on="1"/>
        <pt x="637" y="1176" on="1"/>
        <pt x="879" y="1176" on="0"/>
        <pt x="1150" y="933" on="0"/>
        <pt x="1150" y="738" on="1"/>
        <pt x="1150" y="542" on="0"/>
        <pt x="879" y="300" on="0"/>
        <pt x="637" y="300" on="1"/>
        <pt x="391" y="300" on="1"/>
        <pt x="391" y="0" on="1"/>
        <pt x="148" y="0" on="1"/>
        <pt x="148" y="1456" on="1"/>
      </contour>
      <contour>
        <pt x="391" y="981" on="1"/>
        <pt x="391" y="495" on="1"/>
        <pt x="637" y="495" on="1"/>
        <pt x="772" y="495" on="0"/>
        <pt x="907" y="634" on="0"/>
        <pt x="907" y="736" on="1"/>
        <pt x="907" y="840" on="0"/>
        <pt x="772" y="981" on="0"/>
        <pt x="637" y="981" on="1"/>
      </contour>
    </TTGlyph>
    <TTGlyph name="U" xMin="134" yMin="-21" xMax="1265" yMax="1456">
      <contour>
        <pt x="1265" y="1456" on="1"/>
        <pt x="1265" y="480" on="1"/>
        <pt x="1265" y="238" on="0"/>
        <pt x="949" y="-21" on="0"/>
        <pt x="694" y="-21" on="1"/>
        <pt x="444" y="-21" on="0"/>
        <pt x="134" y="239" on="0"/>
        <pt x="134" y="480" on="1"/>
        <pt x="134" y="1456" on="1"/>
        <pt x="377" y="1456" on="1"/>
        <pt x="377" y="480" on="1"/>
        <pt x="377" y="327" on="0"/>
        <pt x="549" y="173" on="0"/>
        <pt x="694" y="173" on="1"/>
        <pt x="844" y="173" on="0"/>
        <pt x="1022" y="327" on="0"/>
        <pt x="1022" y="480" on="1"/>
        <pt x="1022" y="1456" on="1"/>
      </contour>
    </TTGlyph>
    <TTGlyph name="U.smcp" xMin="126" yMin="-18" xMax="1147" yMax="1165">
      <contour>
        <pt x="1147" y="1165" on="1"/>
        <pt x="1147" y="407" on="1"/>
        <pt x="1147" y="207" on="0"/>
        <pt x="866" y="-18" on="0"/>
        <pt x="637" y="-18" on="1"/>
        <pt x="408" y="-18" on="0"/>
        <pt x="126" y="207" on="0"/>
        <pt x="126" y="407" on="1"/>
        <pt x="126" y="1165" on="1"/>
        <pt x="368" y="1165" on="1"/>
        <pt x="368" y="407" on="1"/>
        <pt x="368" y="296" on="0"/>
        <pt x="512" y="174" on="0"/>
        <pt x="637" y="174" on="1"/>
        <pt x="762" y="174" on="0"/>
        <pt x="905" y="295" on="0"/>
        <pt x="905" y="407" on="1"/>
        <pt x="905" y="1165" on="1"/>
      </contour>
    </TTGlyph>
    <TTGlyph name="Uacute" xMin="134" yMin="-21" xMax="1265" yMax="1825">
      <component glyphName="U" x="0" y="0" flags="0x204"/>
      <component glyphName="acute" x="462" y="347" flags="0x4"/>
    </TTGlyph>
    <TTGlyph name="Uacute.smcp" xMin="126" yMin="-18" xMax="1147" yMax="1504">
      <component glyphName="U.smcp" x="0" y="0" flags="0x204"/>
      <component glyphName="acute" x="385" y="26" flags="0x4"/>
    </TTGlyph>
    <TTGlyph name="Ubreve" xMin="134" yMin="-21" xMax="1265" yMax="1884">
      <component glyphName="U" x="0" y="0" flags="0x204"/>
      <component glyphName="breve" x="261" y="428" flags="0x4"/>
    </TTGlyph>
    <TTGlyph name="Ubreve.smcp" xMin="126" yMin="-18" xMax="1147" yMax="1563">
      <component glyphName="U.smcp" x="0" y="0" flags="0x204"/>
      <component glyphName="breve" x="184" y="107" flags="0x4"/>
    </TTGlyph>
    <TTGlyph name="Ucircumflex" xMin="134" yMin="-21" xMax="1265" yMax="1863">
      <component glyphName="U" x="0" y="0" flags="0x204"/>
      <component glyphName="circumflex" x="210" y="345" flags="0x4"/>
    </TTGlyph>
    <TTGlyph name="Ucircumflex.smcp" xMin="126" yMin="-18" xMax="1147" yMax="1542">
      <component glyphName="U.smcp" x="0" y="0" flags="0x204"/>
      <component glyphName="circumflex" x="133" y="24" flags="0x4"/>
    </TTGlyph>
    <TTGlyph name="Udieresis" xMin="134" yMin="-21" xMax="1265" yMax="1805">
      <component glyphName="U" x="0" y="0" flags="0x204"/>
      <component glyphName="dieresis" x="174" y="349" flags="0x4"/>
    </TTGlyph>
    <TTGlyph name="Udieresis.smcp" xMin="126" yMin="-18" xMax="1147" yMax="1484">
      <component glyphName="U.smcp" x="0" y="0" flags="0x204"/>
      <component glyphName="dieresis" x="97" y="28" flags="0x4"/>
    </TTGlyph>
    <TTGlyph name="Ugrave" xMin="134" yMin="-21" xMax="1265" yMax="1826">
      <component glyphName="U" x="0" y="0" flags="0x204"/>
      <component glyphName="grave" x="279" y="348" flags="0x4"/>
    </TTGlyph>
    <TTGlyph name="Ugrave.smcp" xMin="126" yMin="-18" xMax="1147" yMax="1505">
      <component glyphName="U.smcp" x="0" y="0" flags="0x204"/>
      <component glyphName="grave" x="202" y="27" flags="0x4"/>
    </TTGlyph>
    <TTGlyph name="Uhorn" xMin="134" yMin="-21" xMax="1644" yMax="1598">
      <contour>
        <pt x="1265" y="1456" on="1"/>
        <pt x="1265" y="1276" on="1"/>
        <pt x="1271" y="1274" on="1"/>
        <pt x="1354" y="1299" on="0"/>
        <pt x="1436" y="1466" on="0"/>
        <pt x="1436" y="1598" on="1"/>
        <pt x="1644" y="1598" on="1"/>
        <pt x="1644" y="1384" on="0"/>
        <pt x="1452" y="1129" on="0"/>
        <pt x="1265" y="1097" on="1"/>
        <pt x="1265" y="480" on="1"/>
        <pt x="1265" y="238" on="0"/>
        <pt x="949" y="-21" on="0"/>
        <pt x="694" y="-21" on="1"/>
        <pt x="444" y="-21" on="0"/>
        <pt x="134" y="239" on="0"/>
        <pt x="134" y="480" on="1"/>
        <pt x="134" y="1456" on="1"/>
        <pt x="377" y="1456" on="1"/>
        <pt x="377" y="480" on="1"/>
        <pt x="377" y="327" on="0"/>
        <pt x="549" y="173" on="0"/>
        <pt x="694" y="173" on="1"/>
        <pt x="844" y="173" on="0"/>
        <pt x="1022" y="327" on="0"/>
        <pt x="1022" y="480" on="1"/>
        <pt x="1022" y="1456" on="1"/>
      </contour>
    </TTGlyph>
    <TTGlyph name="Uhungarumlaut" xMin="134" yMin="-21" xMax="1265" yMax="1867">
      <component glyphName="U" x="0" y="0" flags="0x204"/>
      <component glyphName="hungarumlaut" x="311" y="349" flags="0x4"/>
    </TTGlyph>
    <TTGlyph name="Uhungarumlaut.smcp" xMin="126" yMin="-18" xMax="1154" yMax="1546">
      <component glyphName="U.smcp" x="0" y="0" flags="0x204"/>
      <component glyphName="hungarumlaut" x="234" y="28" flags="0x4"/>
    </TTGlyph>
    <TTGlyph name="Umacron" xMin="134" yMin="-21" xMax="1265" yMax="1782">
      <component glyphName="U" x="0" y="0" flags="0x204"/>
      <component glyphName="macron" x="205" y="326" flags="0x4"/>
    </TTGlyph>
    <TTGlyph name="Umacron.smcp" xMin="126" yMin="-18" xMax="1147" yMax="1461">
      <component glyphName="U.smcp" x="0" y="0" flags="0x204"/>
      <component glyphName="macron" x="128" y="5" flags="0x4"/>
    </TTGlyph>
    <TTGlyph name="Uogonek" xMin="134" yMin="-430" xMax="1265" yMax="1456">
      <component glyphName="U" x="0" y="0" flags="0x204"/>
      <component glyphName="ogonek" x="415" y="0" flags="0x4"/>
    </TTGlyph>
    <TTGlyph name="Uogonek.smcp" xMin="126" yMin="-430" xMax="1147" yMax="1165">
      <component glyphName="U.smcp" x="0" y="0" flags="0x204"/>
      <component glyphName="ogonek" x="357" y="0" flags="0x4"/>
    </TTGlyph>
    <TTGlyph name="Upsilon" xMin="13" yMin="0" xMax="1257" yMax="1456">
      <component glyphName="Y" x="0" y="0" flags="0x204"/>
    </TTGlyph>
    <TTGlyph name="Upsilondieresis" xMin="13" yMin="0" xMax="1257" yMax="1805">
      <component glyphName="Y" x="0" y="0" flags="0x204"/>
      <component glyphName="dieresis" x="112" y="349" flags="0x4"/>
    </TTGlyph>
    <TTGlyph name="Upsilontonos" xMin="-158" yMin="0" xMax="1357" yMax="1638">
      <component glyphName="Y" x="100" y="0" flags="0x4"/>
      <component glyphName="tonos" x="-373" y="0" flags="0x4"/>
    </TTGlyph>
    <TTGlyph name="Uring" xMin="134" yMin="-21" xMax="1265" yMax="1935">
      <component glyphName="U" x="0" y="0" flags="0x204"/>
      <component glyphName="ring" x="359" y="435" flags="0x4"/>
    </TTGlyph>
    <TTGlyph name="Uring.smcp" xMin="126" yMin="-18" xMax="1147" yMax="1614">
      <component glyphName="U.smcp" x="0" y="0" flags="0x204"/>
      <component glyphName="ring" x="282" y="114" flags="0x4"/>
    </TTGlyph>
    <TTGlyph name="Utilde" xMin="134" yMin="-21" xMax="1265" yMax="1891">
      <component glyphName="U" x="0" y="0" flags="0x204"/>
      <component glyphName="tilde" x="212" y="364" flags="0x4"/>
    </TTGlyph>
    <TTGlyph name="Utilde.smcp" xMin="126" yMin="-18" xMax="1147" yMax="1570">
      <component glyphName="U.smcp" x="0" y="0" flags="0x204"/>
      <component glyphName="tilde" x="135" y="43" flags="0x4"/>
    </TTGlyph>
    <TTGlyph name="V" xMin="15" yMin="0" xMax="1285" yMax="1456">
      <contour>
        <pt x="621" y="381" on="1"/>
        <pt x="647" y="280" on="1"/>
        <pt x="653" y="280" on="1"/>
        <pt x="678" y="379" on="1"/>
        <pt x="1026" y="1456" on="1"/>
        <pt x="1285" y="1456" on="1"/>
        <pt x="765" y="0" on="1"/>
        <pt x="534" y="0" on="1"/>
        <pt x="15" y="1456" on="1"/>
        <pt x="274" y="1456" on="1"/>
      </contour>
    </TTGlyph>
    <TTGlyph name="V.smcp" xMin="28" yMin="0" xMax="1163" yMax="1165">
      <contour>
        <pt x="576" y="309" on="1"/>
        <pt x="592" y="244" on="1"/>
        <pt x="598" y="244" on="1"/>
        <pt x="613" y="306" on="1"/>
        <pt x="906" y="1165" on="1"/>
        <pt x="1163" y="1165" on="1"/>
        <pt x="718" y="0" on="1"/>
        <pt x="471" y="0" on="1"/>
        <pt x="28" y="1165" on="1"/>
        <pt x="285" y="1165" on="1"/>
      </contour>
    </TTGlyph>
    <TTGlyph name="W" xMin="40" yMin="0" xMax="1763" yMax="1456">
      <contour>
        <pt x="512" y="388" on="1"/>
        <pt x="512" y="386" on="1"/>
        <pt x="513" y="391" on="1"/>
        <pt x="804" y="1456" on="1"/>
        <pt x="998" y="1456" on="1"/>
        <pt x="1292" y="388" on="1"/>
        <pt x="1293" y="381" on="1"/>
        <pt x="1294" y="391" on="1"/>
        <pt x="1524" y="1456" on="1"/>
        <pt x="1763" y="1456" on="1"/>
        <pt x="1417" y="0" on="1"/>
        <pt x="1196" y="0" on="1"/>
        <pt x="905" y="1045" on="1"/>
        <pt x="899" y="1045" on="1"/>
        <pt x="607" y="0" on="1"/>
        <pt x="385" y="0" on="1"/>
        <pt x="40" y="1456" on="1"/>
        <pt x="279" y="1456" on="1"/>
      </contour>
    </TTGlyph>
    <TTGlyph name="W.smcp" xMin="52" yMin="0" xMax="1495" yMax="1165">
      <contour>
        <pt x="1079" y="352" on="1"/>
        <pt x="1085" y="352" on="1"/>
        <pt x="1238" y="1165" on="1"/>
        <pt x="1495" y="1165" on="1"/>
        <pt x="1210" y="0" on="1"/>
        <pt x="979" y="0" on="1"/>
        <pt x="775" y="775" on="1"/>
        <pt x="769" y="775" on="1"/>
        <pt x="567" y="0" on="1"/>
        <pt x="336" y="0" on="1"/>
        <pt x="52" y="1165" on="1"/>
        <pt x="308" y="1165" on="1"/>
        <pt x="462" y="349" on="1"/>
        <pt x="468" y="349" on="1"/>
        <pt x="669" y="1165" on="1"/>
        <pt x="879" y="1165" on="1"/>
      </contour>
    </TTGlyph>
    <TTGlyph name="Wacute" xMin="40" yMin="0" xMax="1763" yMax="1825">
      <component glyphName="W" x="0" y="0" flags="0x204"/>
      <component glyphName="acute" x="663" y="347" flags="0x4"/>
    </TTGlyph>
    <TTGlyph name="Wcircumflex" xMin="40" yMin="0" xMax="1763" yMax="1863">
      <component glyphName="W" x="0" y="0" flags="0x204"/>
      <component glyphName="circumflex" x="411" y="345" flags="0x4"/>
    </TTGlyph>
    <TTGlyph name="Wcircumflex.smcp" xMin="52" yMin="0" xMax="1495" yMax="1540">
      <component glyphName="W.smcp" x="0" y="0" flags="0x204"/>
      <component glyphName="circumflex" x="278" y="22" flags="0x4"/>
    </TTGlyph>
    <TTGlyph name="Wdieresis" xMin="40" yMin="0" xMax="1763" yMax="1805">
      <component glyphName="W" x="0" y="0" flags="0x204"/>
      <component glyphName="dieresis" x="375" y="349" flags="0x4"/>
    </TTGlyph>
    <TTGlyph name="Wgrave" xMin="40" yMin="0" xMax="1763" yMax="1826">
      <component glyphName="W" x="0" y="0" flags="0x204"/>
      <component glyphName="grave" x="480" y="348" flags="0x4"/>
    </TTGlyph>
    <TTGlyph name="X" xMin="50" yMin="0" xMax="1262" yMax="1456">
      <contour>
        <pt x="650" y="918" on="1"/>
        <pt x="957" y="1456" on="1"/>
        <pt x="1245" y="1456" on="1"/>
        <pt x="797" y="734" on="1"/>
        <pt x="1262" y="0" on="1"/>
        <pt x="970" y="0" on="1"/>
        <pt x="654" y="547" on="1"/>
        <pt x="338" y="0" on="1"/>
        <pt x="50" y="0" on="1"/>
        <pt x="508" y="734" on="1"/>
        <pt x="60" y="1456" on="1"/>
        <pt x="346" y="1456" on="1"/>
      </contour>
    </TTGlyph>
    <TTGlyph name="X.smcp" xMin="44" yMin="0" xMax="1105" yMax="1165">
      <contour>
        <pt x="572" y="760" on="1"/>
        <pt x="813" y="1165" on="1"/>
        <pt x="1096" y="1165" on="1"/>
        <pt x="722" y="588" on="1"/>
        <pt x="1105" y="0" on="1"/>
        <pt x="824" y="0" on="1"/>
        <pt x="575" y="413" on="1"/>
        <pt x="327" y="0" on="1"/>
        <pt x="44" y="0" on="1"/>
        <pt x="428" y="588" on="1"/>
        <pt x="53" y="1165" on="1"/>
        <pt x="334" y="1165" on="1"/>
      </contour>
    </TTGlyph>
    <TTGlyph name="Xi" xMin="112" yMin="0" xMax="1069" yMax="1456">
      <contour>
        <pt x="112" y="194" on="1"/>
        <pt x="1069" y="194" on="1"/>
        <pt x="1069" y="0" on="1"/>
        <pt x="112" y="0" on="1"/>
      </contour>
      <contour>
        <pt x="208" y="844" on="1"/>
        <pt x="967" y="844" on="1"/>
        <pt x="967" y="653" on="1"/>
        <pt x="208" y="653" on="1"/>
      </contour>
      <contour>
        <pt x="122" y="1456" on="1"/>
        <pt x="1044" y="1456" on="1"/>
        <pt x="1044" y="1261" on="1"/>
        <pt x="122" y="1261" on="1"/>
      </contour>
    </TTGlyph>
    <TTGlyph name="Y" xMin="13" yMin="0" xMax="1257" yMax="1456">
      <contour>
        <pt x="634" y="748" on="1"/>
        <pt x="986" y="1456" on="1"/>
        <pt x="1257" y="1456" on="1"/>
        <pt x="752" y="511" on="1"/>
        <pt x="752" y="0" on="1"/>
        <pt x="510" y="0" on="1"/>
        <pt x="510" y="524" on="1"/>
        <pt x="13" y="1456" on="1"/>
        <pt x="284" y="1456" on="1"/>
      </contour>
    </TTGlyph>
    <TTGlyph name="Y.smcp" xMin="19" yMin="0" xMax="1084" yMax="1165">
      <contour>
        <pt x="552" y="623" on="1"/>
        <pt x="817" y="1165" on="1"/>
        <pt x="1084" y="1165" on="1"/>
        <pt x="670" y="407" on="1"/>
        <pt x="670" y="0" on="1"/>
        <pt x="427" y="0" on="1"/>
        <pt x="427" y="418" on="1"/>
        <pt x="19" y="1165" on="1"/>
        <pt x="286" y="1165" on="1"/>
      </contour>
    </TTGlyph>
    <TTGlyph name="Yacute" xMin="13" yMin="0" xMax="1257" yMax="1825">
      <component glyphName="Y" x="0" y="0" flags="0x204"/>
      <component glyphName="acute" x="400" y="347" flags="0x4"/>
    </TTGlyph>
    <TTGlyph name="Yacute.smcp" xMin="19" yMin="0" xMax="1084" yMax="1502">
      <component glyphName="Y.smcp" x="0" y="0" flags="0x204"/>
      <component glyphName="acute" x="312" y="24" flags="0x4"/>
    </TTGlyph>
    <TTGlyph name="Ycircumflex" xMin="13" yMin="0" xMax="1257" yMax="1863">
      <component glyphName="Y" x="0" y="0" flags="0x204"/>
      <component glyphName="circumflex" x="148" y="345" flags="0x4"/>
    </TTGlyph>
    <TTGlyph name="Ycircumflex.smcp" xMin="19" yMin="0" xMax="1084" yMax="1540">
      <component glyphName="Y.smcp" x="0" y="0" flags="0x204"/>
      <component glyphName="circumflex" x="60" y="22" flags="0x4"/>
    </TTGlyph>
    <TTGlyph name="Ydieresis" xMin="13" yMin="0" xMax="1257" yMax="1805">
      <component glyphName="Y" x="0" y="0" flags="0x204"/>
      <component glyphName="dieresis" x="112" y="349" flags="0x4"/>
    </TTGlyph>
    <TTGlyph name="Ydieresis.smcp" xMin="19" yMin="0" xMax="1084" yMax="1482">
      <component glyphName="Y.smcp" x="0" y="0" flags="0x204"/>
      <component glyphName="dieresis" x="24" y="26" flags="0x4"/>
    </TTGlyph>
    <TTGlyph name="Ygrave" xMin="13" yMin="0" xMax="1257" yMax="1826">
      <component glyphName="Y" x="0" y="0" flags="0x204"/>
      <component glyphName="grave" x="217" y="348" flags="0x4"/>
    </TTGlyph>
    <TTGlyph name="Z" xMin="88" yMin="0" xMax="1137" yMax="1456">
      <contour>
        <pt x="377" y="194" on="1"/>
        <pt x="1137" y="194" on="1"/>
        <pt x="1137" y="0" on="1"/>
        <pt x="88" y="0" on="1"/>
        <pt x="88" y="152" on="1"/>
        <pt x="819" y="1261" on="1"/>
        <pt x="94" y="1261" on="1"/>
        <pt x="94" y="1456" on="1"/>
        <pt x="1112" y="1456" on="1"/>
        <pt x="1112" y="1310" on="1"/>
      </contour>
    </TTGlyph>
    <TTGlyph name="Z.smcp" xMin="74" yMin="0" xMax="1003" yMax="1165">
      <contour>
        <pt x="382" y="192" on="1"/>
        <pt x="1003" y="192" on="1"/>
        <pt x="1003" y="0" on="1"/>
        <pt x="74" y="0" on="1"/>
        <pt x="74" y="122" on="1"/>
        <pt x="675" y="972" on="1"/>
        <pt x="107" y="972" on="1"/>
        <pt x="107" y="1165" on="1"/>
        <pt x="987" y="1165" on="1"/>
        <pt x="987" y="1048" on="1"/>
      </contour>
    </TTGlyph>
    <TTGlyph name="Zacute" xMin="88" yMin="0" xMax="1137" yMax="1826">
      <component glyphName="Z" x="0" y="0" flags="0x204"/>
      <component glyphName="acute" x="367" y="348" flags="0x4"/>
    </TTGlyph>
    <TTGlyph name="Zacute.smcp" xMin="74" yMin="0" xMax="1003" yMax="1503">
      <component glyphName="Z.smcp" x="0" y="0" flags="0x204"/>
      <component glyphName="acute" x="296" y="25" flags="0x4"/>
    </TTGlyph>
    <TTGlyph name="Zcaron" xMin="88" yMin="0" xMax="1137" yMax="1871">
      <component glyphName="Z" x="0" y="0" flags="0x204"/>
      <component glyphName="caron" x="138" y="350" flags="0x4"/>
    </TTGlyph>
    <TTGlyph name="Zcaron.smcp" xMin="74" yMin="0" xMax="1003" yMax="1548">
      <component glyphName="Z.smcp" x="0" y="0" flags="0x204"/>
      <component glyphName="caron" x="67" y="27" flags="0x4"/>
    </TTGlyph>
    <TTGlyph name="Zdotaccent" xMin="88" yMin="0" xMax="1137" yMax="1826">
      <component glyphName="Z" x="0" y="0" flags="0x204"/>
      <component glyphName="dotaccent" x="320" y="364" flags="0x4"/>
    </TTGlyph>
    <TTGlyph name="Zdotaccent.smcp" xMin="74" yMin="0" xMax="1003" yMax="1503">
      <component glyphName="Z.smcp" x="0" y="0" flags="0x204"/>
      <component glyphName="dotaccent" x="249" y="41" flags="0x4"/>
    </TTGlyph>
    <TTGlyph name="Zeta" xMin="88" yMin="0" xMax="1137" yMax="1456">
      <component glyphName="Z" x="0" y="0" flags="0x204"/>
    </TTGlyph>
    <TTGlyph name="a" xMin="82" yMin="-21" xMax="1025" yMax="1102">
      <contour>
        <pt x="779" y="0" on="1"/>
        <pt x="766" y="41" on="0"/>
        <pt x="749" y="119" on="0"/>
        <pt x="746" y="158" on="1"/>
        <pt x="696" y="82" on="0"/>
        <pt x="533" y="-21" on="0"/>
        <pt x="432" y="-21" on="1"/>
        <pt x="263" y="-21" on="0"/>
        <pt x="82" y="153" on="0"/>
        <pt x="82" y="305" on="1"/>
        <pt x="82" y="462" on="0"/>
        <pt x="330" y="637" on="0"/>
        <pt x="555" y="637" on="1"/>
        <pt x="744" y="637" on="1"/>
        <pt x="744" y="732" on="1"/>
        <pt x="744" y="817" on="0"/>
        <pt x="644" y="913" on="0"/>
        <pt x="551" y="913" on="1"/>
        <pt x="468" y="913" on="0"/>
        <pt x="370" y="833" on="0"/>
        <pt x="370" y="770" on="1"/>
        <pt x="136" y="770" on="1"/>
        <pt x="135" y="776" on="1"/>
        <pt x="128" y="904" on="0"/>
        <pt x="371" y="1102" on="0"/>
        <pt x="566" y="1102" on="1"/>
        <pt x="755" y="1102" on="0"/>
        <pt x="987" y="910" on="0"/>
        <pt x="987" y="730" on="1"/>
        <pt x="987" y="249" on="1"/>
        <pt x="987" y="182" on="0"/>
        <pt x="1005" y="59" on="0"/>
        <pt x="1025" y="0" on="1"/>
      </contour>
      <contour>
        <pt x="481" y="174" on="1"/>
        <pt x="573" y="174" on="0"/>
        <pt x="720" y="266" on="0"/>
        <pt x="744" y="325" on="1"/>
        <pt x="744" y="485" on="1"/>
        <pt x="551" y="485" on="1"/>
        <pt x="445" y="485" on="0"/>
        <pt x="325" y="380" on="0"/>
        <pt x="325" y="309" on="1"/>
        <pt x="325" y="247" on="0"/>
        <pt x="406" y="174" on="0"/>
      </contour>
    </TTGlyph>
    <TTGlyph name="aacute" xMin="82" yMin="-21" xMax="1025" yMax="1503">
      <component glyphName="a" x="0" y="0" flags="0x204"/>
      <component glyphName="acute" x="312" y="25" flags="0x4"/>
    </TTGlyph>
    <TTGlyph name="abreve" xMin="82" yMin="-21" xMax="1025" yMax="1562">
      <component glyphName="a" x="0" y="0" flags="0x204"/>
      <component glyphName="breve" x="111" y="106" flags="0x4"/>
    </TTGlyph>
    <TTGlyph name="acircumflex" xMin="82" yMin="-21" xMax="1025" yMax="1541">
      <component glyphName="a" x="0" y="0" flags="0x204"/>
      <component glyphName="circumflex" x="60" y="23" flags="0x4"/>
    </TTGlyph>
    <TTGlyph name="acute" xMin="120" yMin="1212" xMax="582" yMax="1478">
      <contour>
        <pt x="311" y="1478" on="1"/>
        <pt x="580" y="1478" on="1"/>
        <pt x="582" y="1472" on="1"/>
        <pt x="309" y="1212" on="1"/>
        <pt x="120" y="1212" on="1"/>
      </contour>
    </TTGlyph>
    <TTGlyph name="acutecomb" xMin="-714" yMin="1206" xMax="-378" yMax="1537">
      <contour>
        <pt x="-584" y="1537" on="1"/>
        <pt x="-378" y="1537" on="1"/>
        <pt x="-568" y="1206" on="1"/>
        <pt x="-714" y="1206" on="1"/>
      </contour>
    </TTGlyph>
    <TTGlyph name="adieresis" xMin="82" yMin="-21" xMax="1025" yMax="1483">
      <component glyphName="a" x="0" y="0" flags="0x204"/>
      <component glyphName="dieresis" x="24" y="27" flags="0x4"/>
    </TTGlyph>
    <TTGlyph name="ae" xMin="52" yMin="-21" xMax="1668" yMax="1102">
      <contour>
        <pt x="1254" y="-21" on="1"/>
        <pt x="1122" y="-21" on="0"/>
        <pt x="918" y="68" on="0"/>
        <pt x="851" y="151" on="1"/>
        <pt x="792" y="77" on="0"/>
        <pt x="578" y="-21" on="0"/>
        <pt x="429" y="-21" on="1"/>
        <pt x="249" y="-21" on="0"/>
        <pt x="52" y="158" on="0"/>
        <pt x="52" y="312" on="1"/>
        <pt x="52" y="470" on="0"/>
        <pt x="293" y="642" on="0"/>
        <pt x="524" y="642" on="1"/>
        <pt x="730" y="642" on="1"/>
        <pt x="730" y="713" on="1"/>
        <pt x="730" y="804" on="0"/>
        <pt x="637" y="907" on="0"/>
        <pt x="551" y="907" on="1"/>
        <pt x="458" y="907" on="0"/>
        <pt x="351" y="817" on="0"/>
        <pt x="351" y="752" on="1"/>
        <pt x="118" y="770" on="1"/>
        <pt x="116" y="776" on="1"/>
        <pt x="110" y="917" on="0"/>
        <pt x="352" y="1102" on="0"/>
        <pt x="553" y="1102" on="1"/>
        <pt x="660" y="1102" on="0"/>
        <pt x="831" y="1036" on="0"/>
        <pt x="887" y="972" on="1"/>
        <pt x="950" y="1035" on="0"/>
        <pt x="1118" y="1102" on="0"/>
        <pt x="1218" y="1102" on="1"/>
        <pt x="1432" y="1102" on="0"/>
        <pt x="1668" y="840" on="0"/>
        <pt x="1668" y="612" on="1"/>
        <pt x="1668" y="471" on="1"/>
        <pt x="988" y="471" on="1"/>
        <pt x="985" y="465" on="1"/>
        <pt x="989" y="334" on="0"/>
        <pt x="1129" y="173" on="0"/>
        <pt x="1268" y="173" on="1"/>
        <pt x="1366" y="173" on="0"/>
        <pt x="1492" y="219" on="0"/>
        <pt x="1573" y="265" on="1"/>
        <pt x="1646" y="100" on="1"/>
        <pt x="1589" y="55" on="0"/>
        <pt x="1387" y="-21" on="0"/>
      </contour>
      <contour>
        <pt x="476" y="164" on="1"/>
        <pt x="543" y="164" on="0"/>
        <pt x="689" y="237" on="0"/>
        <pt x="730" y="286" on="1"/>
        <pt x="730" y="475" on="1"/>
        <pt x="526" y="475" on="1"/>
        <pt x="417" y="475" on="0"/>
        <pt x="295" y="377" on="0"/>
        <pt x="295" y="308" on="1"/>
        <pt x="295" y="243" on="0"/>
        <pt x="386" y="164" on="0"/>
      </contour>
      <contour>
        <pt x="1218" y="907" on="1"/>
        <pt x="1114" y="907" on="0"/>
        <pt x="998" y="764" on="0"/>
        <pt x="988" y="647" on="1"/>
        <pt x="990" y="642" on="1"/>
        <pt x="1428" y="642" on="1"/>
        <pt x="1428" y="672" on="1"/>
        <pt x="1428" y="777" on="0"/>
        <pt x="1325" y="907" on="0"/>
      </contour>
    </TTGlyph>
    <TTGlyph name="aeacute" xMin="52" yMin="-21" xMax="1668" yMax="1504">
      <component glyphName="ae" x="0" y="0" flags="0x204"/>
      <component glyphName="acute" x="622" y="26" flags="0x4"/>
    </TTGlyph>
    <TTGlyph name="agrave" xMin="82" yMin="-21" xMax="1025" yMax="1504">
      <component glyphName="a" x="0" y="0" flags="0x204"/>
      <component glyphName="grave" x="129" y="26" flags="0x4"/>
    </TTGlyph>
    <TTGlyph name="alpha" xMin="86" yMin="-21" xMax="1159" yMax="1102">
      <contour>
        <pt x="1015" y="1081" on="1"/>
        <pt x="1015" y="303" on="1"/>
        <pt x="1015" y="237" on="0"/>
        <pt x="1053" y="185" on="0"/>
        <pt x="1088" y="185" on="1"/>
        <pt x="1102" y="185" on="0"/>
        <pt x="1125" y="187" on="0"/>
        <pt x="1134" y="191" on="1"/>
        <pt x="1159" y="10" on="1"/>
        <pt x="1126" y="-8" on="0"/>
        <pt x="1064" y="-21" on="0"/>
        <pt x="1025" y="-21" on="1"/>
        <pt x="942" y="-21" on="0"/>
        <pt x="828" y="49" on="0"/>
        <pt x="800" y="123" on="1"/>
        <pt x="748" y="52" on="0"/>
        <pt x="603" y="-21" on="0"/>
        <pt x="508" y="-21" on="1"/>
        <pt x="309" y="-21" on="0"/>
        <pt x="86" y="269" on="0"/>
        <pt x="86" y="505" on="1"/>
        <pt x="86" y="526" on="1"/>
        <pt x="86" y="785" on="0"/>
        <pt x="309" y="1102" on="0"/>
        <pt x="510" y="1102" on="1"/>
        <pt x="604" y="1102" on="0"/>
        <pt x="749" y="1026" on="0"/>
        <pt x="801" y="954" on="1"/>
        <pt x="850" y="1081" on="1"/>
      </contour>
      <contour>
        <pt x="329" y="505" on="1"/>
        <pt x="329" y="355" on="0"/>
        <pt x="444" y="173" on="0"/>
        <pt x="569" y="173" on="1"/>
        <pt x="639" y="173" on="0"/>
        <pt x="739" y="231" on="0"/>
        <pt x="772" y="284" on="1"/>
        <pt x="772" y="303" on="1"/>
        <pt x="772" y="795" on="1"/>
        <pt x="738" y="848" on="0"/>
        <pt x="639" y="907" on="0"/>
        <pt x="571" y="907" on="1"/>
        <pt x="447" y="907" on="0"/>
        <pt x="329" y="694" on="0"/>
        <pt x="329" y="526" on="1"/>
      </contour>
    </TTGlyph>
    <TTGlyph name="alphatonos" xMin="86" yMin="-21" xMax="1159" yMax="1619">
      <component glyphName="alpha" x="0" y="0" flags="0x204"/>
      <component glyphName="tonos" x="324" y="-19" flags="0x4"/>
    </TTGlyph>
    <TTGlyph name="amacron" xMin="82" yMin="-21" xMax="1025" yMax="1460">
      <component glyphName="a" x="0" y="0" flags="0x204"/>
      <component glyphName="macron" x="55" y="4" flags="0x4"/>
    </TTGlyph>
    <TTGlyph name="ampersand" xMin="62" yMin="-21" xMax="1267" yMax="1477">
      <contour>
        <pt x="62" y="393" on="1"/>
        <pt x="62" y="513" on="0"/>
        <pt x="198" y="690" on="0"/>
        <pt x="334" y="780" on="1"/>
        <pt x="261" y="875" on="0"/>
        <pt x="189" y="1029" on="0"/>
        <pt x="189" y="1109" on="1"/>
        <pt x="189" y="1280" on="0"/>
        <pt x="395" y="1477" on="0"/>
        <pt x="570" y="1477" on="1"/>
        <pt x="729" y="1477" on="0"/>
        <pt x="928" y="1286" on="0"/>
        <pt x="928" y="1151" on="1"/>
        <pt x="928" y="1053" on="0"/>
        <pt x="825" y="900" on="0"/>
        <pt x="731" y="831" on="1"/>
        <pt x="631" y="759" on="1"/>
        <pt x="936" y="397" on="1"/>
        <pt x="976" y="460" on="0"/>
        <pt x="1021" y="610" on="0"/>
        <pt x="1021" y="694" on="1"/>
        <pt x="1218" y="694" on="1"/>
        <pt x="1218" y="557" on="0"/>
        <pt x="1145" y="327" on="0"/>
        <pt x="1071" y="237" on="1"/>
        <pt x="1267" y="5" on="1"/>
        <pt x="1265" y="0" on="1"/>
        <pt x="991" y="0" on="1"/>
        <pt x="910" y="95" on="1"/>
        <pt x="828" y="38" on="0"/>
        <pt x="641" y="-21" on="0"/>
        <pt x="537" y="-21" on="1"/>
        <pt x="320" y="-21" on="0"/>
        <pt x="62" y="209" on="0"/>
      </contour>
      <contour>
        <pt x="544" y="173" on="1"/>
        <pt x="606" y="173" on="0"/>
        <pt x="728" y="209" on="0"/>
        <pt x="783" y="244" on="1"/>
        <pt x="455" y="631" on="1"/>
        <pt x="425" y="609" on="1"/>
        <pt x="353" y="553" on="0"/>
        <pt x="305" y="449" on="0"/>
        <pt x="305" y="401" on="1"/>
        <pt x="305" y="301" on="0"/>
        <pt x="431" y="173" on="0"/>
      </contour>
      <contour>
        <pt x="417" y="1112" on="1"/>
        <pt x="417" y="1064" on="0"/>
        <pt x="466" y="962" on="0"/>
        <pt x="514" y="900" on="1"/>
        <pt x="628" y="976" on="1"/>
        <pt x="685" y="1013" on="0"/>
        <pt x="724" y="1094" on="0"/>
        <pt x="724" y="1143" on="1"/>
        <pt x="724" y="1197" on="0"/>
        <pt x="639" y="1282" on="0"/>
        <pt x="570" y="1282" on="1"/>
        <pt x="496" y="1282" on="0"/>
        <pt x="417" y="1184" on="0"/>
      </contour>
    </TTGlyph>
    <TTGlyph name="anoteleia" xMin="160" yMin="594" xMax="402" yMax="834">
      <component glyphName="periodcentered" x="0" y="0" flags="0x204"/>
    </TTGlyph>
    <TTGlyph name="aogonek" xMin="82" yMin="-430" xMax="1067" yMax="1102">
      <component glyphName="a" x="0" y="0" flags="0x204"/>
      <component glyphName="ogonek" x="576" y="0" flags="0x4"/>
    </TTGlyph>
    <TTGlyph name="approxequal" xMin="101" yMin="249" xMax="1058" yMax="1027">
      <contour>
        <pt x="111" y="877" on="1"/>
        <pt x="158" y="945" on="0"/>
        <pt x="282" y="1023" on="0"/>
        <pt x="347" y="1023" on="1"/>
        <pt x="416" y="1024" on="0"/>
        <pt x="494" y="996" on="0"/>
        <pt x="587" y="950" on="1"/>
        <pt x="666" y="909" on="0"/>
        <pt x="746" y="881" on="0"/>
        <pt x="812" y="881" on="1"/>
        <pt x="876" y="881" on="0"/>
        <pt x="1000" y="958" on="0"/>
        <pt x="1048" y="1027" on="1"/>
        <pt x="1058" y="829" on="1"/>
        <pt x="1010" y="760" on="0"/>
        <pt x="886" y="683" on="0"/>
        <pt x="822" y="683" on="1"/>
        <pt x="756" y="683" on="0"/>
        <pt x="676" y="711" on="0"/>
        <pt x="597" y="752" on="1"/>
        <pt x="504" y="798" on="0"/>
        <pt x="426" y="826" on="0"/>
        <pt x="357" y="825" on="1"/>
        <pt x="292" y="825" on="0"/>
        <pt x="168" y="747" on="0"/>
        <pt x="121" y="679" on="1"/>
      </contour>
      <contour>
        <pt x="101" y="447" on="1"/>
        <pt x="148" y="515" on="0"/>
        <pt x="272" y="593" on="0"/>
        <pt x="337" y="593" on="1"/>
        <pt x="406" y="594" on="0"/>
        <pt x="484" y="566" on="0"/>
        <pt x="577" y="520" on="1"/>
        <pt x="656" y="479" on="0"/>
        <pt x="736" y="451" on="0"/>
        <pt x="802" y="451" on="1"/>
        <pt x="866" y="451" on="0"/>
        <pt x="990" y="528" on="0"/>
        <pt x="1038" y="597" on="1"/>
        <pt x="1048" y="399" on="1"/>
        <pt x="1000" y="330" on="0"/>
        <pt x="876" y="253" on="0"/>
        <pt x="812" y="253" on="1"/>
        <pt x="746" y="253" on="0"/>
        <pt x="666" y="281" on="0"/>
        <pt x="587" y="322" on="1"/>
        <pt x="494" y="368" on="0"/>
        <pt x="416" y="396" on="0"/>
        <pt x="347" y="395" on="1"/>
        <pt x="282" y="395" on="0"/>
        <pt x="158" y="317" on="0"/>
        <pt x="111" y="249" on="1"/>
      </contour>
    </TTGlyph>
    <TTGlyph name="aring" xMin="82" yMin="-21" xMax="1025" yMax="1613">
      <component glyphName="a" x="0" y="0" flags="0x204"/>
      <component glyphName="ring" x="209" y="113" flags="0x4"/>
    </TTGlyph>
    <TTGlyph name="aringacute" xMin="82" yMin="-21" xMax="1025" yMax="1792">
      <component glyphName="a" x="0" y="0" flags="0x204"/>
      <component glyphName="ringacute" x="214" y="99" flags="0x4"/>
    </TTGlyph>
    <TTGlyph name="asciicircum" xMin="53" yMin="729" xMax="821" yMax="1456">
      <contour>
        <pt x="259" y="729" on="1"/>
        <pt x="53" y="729" on="1"/>
        <pt x="352" y="1456" on="1"/>
        <pt x="523" y="1456" on="1"/>
        <pt x="821" y="729" on="1"/>
        <pt x="616" y="729" on="1"/>
        <pt x="451" y="1142" on="1"/>
        <pt x="439" y="1196" on="1"/>
        <pt x="433" y="1196" on="1"/>
        <pt x="421" y="1142" on="1"/>
      </contour>
    </TTGlyph>
    <TTGlyph name="asciitilde" xMin="117" yMin="387" xMax="1244" yMax="815">
      <contour>
        <pt x="1244" y="750" on="1"/>
        <pt x="1244" y="599" on="0"/>
        <pt x="1068" y="387" on="0"/>
        <pt x="935" y="387" on="1"/>
        <pt x="848" y="387" on="0"/>
        <pt x="703" y="452" on="0"/>
        <pt x="620" y="523" on="1"/>
        <pt x="565" y="569" on="0"/>
        <pt x="477" y="613" on="0"/>
        <pt x="431" y="613" on="1"/>
        <pt x="371" y="613" on="0"/>
        <pt x="287" y="510" on="0"/>
        <pt x="287" y="438" on="1"/>
        <pt x="117" y="460" on="1"/>
        <pt x="117" y="610" on="0"/>
        <pt x="289" y="815" on="0"/>
        <pt x="424" y="815" on="1"/>
        <pt x="510" y="815" on="0"/>
        <pt x="661" y="748" on="0"/>
        <pt x="741" y="680" on="1"/>
        <pt x="795" y="632" on="0"/>
        <pt x="881" y="590" on="0"/>
        <pt x="928" y="590" on="1"/>
        <pt x="987" y="590" on="0"/>
        <pt x="1073" y="699" on="0"/>
        <pt x="1073" y="773" on="1"/>
      </contour>
    </TTGlyph>
    <TTGlyph name="asterisk" xMin="27" yMin="591" xMax="866" yMax="1456">
      <contour>
        <pt x="325" y="972" on="1"/>
        <pt x="27" y="1061" on="1"/>
        <pt x="80" y="1230" on="1"/>
        <pt x="376" y="1113" on="1"/>
        <pt x="363" y="1456" on="1"/>
        <pt x="537" y="1456" on="1"/>
        <pt x="522" y="1106" on="1"/>
        <pt x="813" y="1221" on="1"/>
        <pt x="866" y="1050" on="1"/>
        <pt x="563" y="962" on="1"/>
        <pt x="758" y="696" on="1"/>
        <pt x="617" y="591" on="1"/>
        <pt x="440" y="878" on="1"/>
        <pt x="266" y="599" on="1"/>
        <pt x="123" y="701" on="1"/>
      </contour>
    </TTGlyph>
    <TTGlyph name="at" xMin="74" yMin="-453" xMax="1747" yMax="1424">
      <contour>
        <pt x="1731" y="507" on="1"/>
        <pt x="1722" y="291" on="0"/>
        <pt x="1492" y="-21" on="0"/>
        <pt x="1263" y="-21" on="1"/>
        <pt x="1188" y="-21" on="0"/>
        <pt x="1079" y="63" on="0"/>
        <pt x="1055" y="140" on="1"/>
        <pt x="1008" y="60" on="0"/>
        <pt x="870" y="-19" on="0"/>
        <pt x="778" y="-19" on="1"/>
        <pt x="645" y="-19" on="0"/>
        <pt x="502" y="220" on="0"/>
        <pt x="520" y="416" on="1"/>
        <pt x="544" y="672" on="0"/>
        <pt x="777" y="982" on="0"/>
        <pt x="943" y="982" on="1"/>
        <pt x="1053" y="982" on="0"/>
        <pt x="1188" y="930" on="0"/>
        <pt x="1268" y="876" on="1"/>
        <pt x="1265" y="872" on="1"/>
        <pt x="1270" y="872" on="1"/>
        <pt x="1219" y="293" on="1"/>
        <pt x="1211" y="192" on="0"/>
        <pt x="1263" y="116" on="0"/>
        <pt x="1306" y="116" on="1"/>
        <pt x="1425" y="116" on="0"/>
        <pt x="1568" y="337" on="0"/>
        <pt x="1576" y="507" on="1"/>
        <pt x="1592" y="874" on="0"/>
        <pt x="1280" y="1284" on="0"/>
        <pt x="952" y="1284" on="1"/>
        <pt x="646" y="1284" on="0"/>
        <pt x="279" y="842" on="0"/>
        <pt x="264" y="478" on="1"/>
        <pt x="246" y="113" on="0"/>
        <pt x="577" y="-307" on="0"/>
        <pt x="887" y="-307" on="1"/>
        <pt x="974" y="-307" on="0"/>
        <pt x="1154" y="-267" on="0"/>
        <pt x="1218" y="-234" on="1"/>
        <pt x="1256" y="-364" on="1"/>
        <pt x="1189" y="-406" on="0"/>
        <pt x="982" y="-453" on="0"/>
        <pt x="883" y="-453" on="1"/>
        <pt x="496" y="-453" on="0"/>
        <pt x="74" y="46" on="0"/>
        <pt x="91" y="478" on="1"/>
        <pt x="109" y="902" on="0"/>
        <pt x="577" y="1424" on="0"/>
        <pt x="956" y="1424" on="1"/>
        <pt x="1339" y="1424" on="0"/>
        <pt x="1747" y="932" on="0"/>
      </contour>
      <contour>
        <pt x="721" y="416" on="1"/>
        <pt x="711" y="283" on="0"/>
        <pt x="771" y="145" on="0"/>
        <pt x="840" y="145" on="1"/>
        <pt x="899" y="145" on="0"/>
        <pt x="999" y="194" on="0"/>
        <pt x="1038" y="257" on="1"/>
        <pt x="1038" y="265" on="0"/>
        <pt x="1039" y="281" on="0"/>
        <pt x="1040" y="293" on="1"/>
        <pt x="1085" y="808" on="1"/>
        <pt x="1062" y="817" on="0"/>
        <pt x="1010" y="828" on="0"/>
        <pt x="982" y="828" on="1"/>
        <pt x="864" y="828" on="0"/>
        <pt x="740" y="623" on="0"/>
      </contour>
    </TTGlyph>
    <TTGlyph name="atilde" xMin="82" yMin="-21" xMax="1025" yMax="1569">
      <component glyphName="a" x="0" y="0" flags="0x204"/>
      <component glyphName="tilde" x="62" y="42" flags="0x4"/>
    </TTGlyph>
    <TTGlyph name="b" xMin="128" yMin="-21" xMax="1078" yMax="1560">
      <contour>
        <pt x="1078" y="505" on="1"/>
        <pt x="1078" y="268" on="0"/>
        <pt x="857" y="-21" on="0"/>
        <pt x="656" y="-21" on="1"/>
        <pt x="555" y="-21" on="0"/>
        <pt x="406" y="61" on="0"/>
        <pt x="356" y="140" on="1"/>
        <pt x="332" y="0" on="1"/>
        <pt x="128" y="0" on="1"/>
        <pt x="128" y="1560" on="1"/>
        <pt x="371" y="1560" on="1"/>
        <pt x="371" y="959" on="1"/>
        <pt x="421" y="1028" on="0"/>
        <pt x="561" y="1102" on="0"/>
        <pt x="654" y="1102" on="1"/>
        <pt x="857" y="1102" on="0"/>
        <pt x="1078" y="786" on="0"/>
        <pt x="1078" y="526" on="1"/>
      </contour>
      <contour>
        <pt x="835" y="526" on="1"/>
        <pt x="835" y="695" on="0"/>
        <pt x="719" y="903" on="0"/>
        <pt x="593" y="903" on="1"/>
        <pt x="512" y="903" on="0"/>
        <pt x="403" y="831" on="0"/>
        <pt x="371" y="767" on="1"/>
        <pt x="371" y="313" on="1"/>
        <pt x="402" y="248" on="0"/>
        <pt x="512" y="177" on="0"/>
        <pt x="595" y="177" on="1"/>
        <pt x="721" y="177" on="0"/>
        <pt x="835" y="354" on="0"/>
        <pt x="835" y="505" on="1"/>
      </contour>
    </TTGlyph>
    <TTGlyph name="backslash" xMin="21" yMin="-125" xMax="865" yMax="1456">
      <contour>
        <pt x="21" y="1456" on="1"/>
        <pt x="257" y="1456" on="1"/>
        <pt x="865" y="-125" on="1"/>
        <pt x="629" y="-125" on="1"/>
      </contour>
    </TTGlyph>
    <TTGlyph name="bar" xMin="174" yMin="-270" xMax="341" yMax="1456">
      <contour>
        <pt x="341" y="-270" on="1"/>
        <pt x="174" y="-270" on="1"/>
        <pt x="174" y="1456" on="1"/>
        <pt x="341" y="1456" on="1"/>
      </contour>
    </TTGlyph>
    <TTGlyph name="beta" xMin="150" yMin="-393" xMax="1130" yMax="1477">
      <contour>
        <pt x="617" y="1477" on="1"/>
        <pt x="821" y="1477" on="0"/>
        <pt x="1066" y="1262" on="0"/>
        <pt x="1066" y="1082" on="1"/>
        <pt x="1066" y="988" on="0"/>
        <pt x="967" y="831" on="0"/>
        <pt x="879" y="783" on="1"/>
        <pt x="998" y="739" on="0"/>
        <pt x="1130" y="549" on="0"/>
        <pt x="1130" y="421" on="1"/>
        <pt x="1130" y="212" on="0"/>
        <pt x="884" y="-21" on="0"/>
        <pt x="679" y="-21" on="1"/>
        <pt x="601" y="-21" on="0"/>
        <pt x="452" y="20" on="0"/>
        <pt x="392" y="62" on="1"/>
        <pt x="392" y="-393" on="1"/>
        <pt x="150" y="-393" on="1"/>
        <pt x="150" y="1055" on="1"/>
        <pt x="150" y="1234" on="0"/>
        <pt x="423" y="1477" on="0"/>
      </contour>
      <contour>
        <pt x="613" y="861" on="1"/>
        <pt x="721" y="861" on="0"/>
        <pt x="823" y="972" on="0"/>
        <pt x="823" y="1073" on="1"/>
        <pt x="823" y="1158" on="0"/>
        <pt x="714" y="1282" on="0"/>
        <pt x="617" y="1282" on="1"/>
        <pt x="520" y="1282" on="0"/>
        <pt x="392" y="1154" on="0"/>
        <pt x="392" y="1055" on="1"/>
        <pt x="392" y="256" on="1"/>
        <pt x="433" y="216" on="0"/>
        <pt x="559" y="173" on="0"/>
        <pt x="637" y="173" on="1"/>
        <pt x="752" y="173" on="0"/>
        <pt x="887" y="311" on="0"/>
        <pt x="887" y="420" on="1"/>
        <pt x="887" y="528" on="0"/>
        <pt x="766" y="676" on="0"/>
        <pt x="660" y="676" on="1"/>
        <pt x="539" y="676" on="1"/>
        <pt x="539" y="861" on="1"/>
      </contour>
    </TTGlyph>
    <TTGlyph name="braceleft" xMin="56" yMin="-360" xMax="657" yMax="1597">
      <contour>
        <pt x="609" y="-360" on="1"/>
        <pt x="414" y="-305" on="0"/>
        <pt x="249" y="-65" on="0"/>
        <pt x="249" y="106" on="1"/>
        <pt x="249" y="309" on="1"/>
        <pt x="249" y="413" on="0"/>
        <pt x="154" y="529" on="0"/>
        <pt x="56" y="529" on="1"/>
        <pt x="56" y="707" on="1"/>
        <pt x="154" y="707" on="0"/>
        <pt x="249" y="823" on="0"/>
        <pt x="249" y="929" on="1"/>
        <pt x="249" y="1132" on="1"/>
        <pt x="249" y="1303" on="0"/>
        <pt x="414" y="1542" on="0"/>
        <pt x="609" y="1597" on="1"/>
        <pt x="657" y="1457" on="1"/>
        <pt x="559" y="1424" on="0"/>
        <pt x="478" y="1256" on="0"/>
        <pt x="478" y="1132" on="1"/>
        <pt x="478" y="929" on="1"/>
        <pt x="478" y="825" on="0"/>
        <pt x="392" y="664" on="0"/>
        <pt x="305" y="619" on="1"/>
        <pt x="392" y="572" on="0"/>
        <pt x="478" y="411" on="0"/>
        <pt x="478" y="309" on="1"/>
        <pt x="478" y="106" on="1"/>
        <pt x="478" y="-18" on="0"/>
        <pt x="559" y="-186" on="0"/>
        <pt x="657" y="-219" on="1"/>
      </contour>
    </TTGlyph>
    <TTGlyph name="braceright" xMin="27" yMin="-360" xMax="629" yMax="1597">
      <contour>
        <pt x="27" y="-219" on="1"/>
        <pt x="124" y="-186" on="0"/>
        <pt x="207" y="-18" on="0"/>
        <pt x="207" y="106" on="1"/>
        <pt x="207" y="309" on="1"/>
        <pt x="207" y="414" on="0"/>
        <pt x="296" y="574" on="0"/>
        <pt x="389" y="618" on="1"/>
        <pt x="296" y="661" on="0"/>
        <pt x="207" y="822" on="0"/>
        <pt x="207" y="929" on="1"/>
        <pt x="207" y="1132" on="1"/>
        <pt x="207" y="1256" on="0"/>
        <pt x="124" y="1424" on="0"/>
        <pt x="27" y="1457" on="1"/>
        <pt x="75" y="1597" on="1"/>
        <pt x="269" y="1542" on="0"/>
        <pt x="435" y="1303" on="0"/>
        <pt x="435" y="1132" on="1"/>
        <pt x="435" y="929" on="1"/>
        <pt x="435" y="823" on="0"/>
        <pt x="529" y="707" on="0"/>
        <pt x="629" y="707" on="1"/>
        <pt x="629" y="529" on="1"/>
        <pt x="529" y="529" on="0"/>
        <pt x="435" y="413" on="0"/>
        <pt x="435" y="309" on="1"/>
        <pt x="435" y="106" on="1"/>
        <pt x="435" y="-65" on="0"/>
        <pt x="269" y="-305" on="0"/>
        <pt x="75" y="-360" on="1"/>
      </contour>
    </TTGlyph>
    <TTGlyph name="bracketleft" xMin="132" yMin="-324" xMax="540" yMax="1678">
      <contour>
        <pt x="540" y="1488" on="1"/>
        <pt x="375" y="1488" on="1"/>
        <pt x="375" y="-135" on="1"/>
        <pt x="540" y="-135" on="1"/>
        <pt x="540" y="-324" on="1"/>
        <pt x="132" y="-324" on="1"/>
        <pt x="132" y="1678" on="1"/>
        <pt x="540" y="1678" on="1"/>
      </contour>
    </TTGlyph>
    <TTGlyph name="bracketright" xMin="12" yMin="-324" xMax="422" yMax="1678">
      <contour>
        <pt x="12" y="1678" on="1"/>
        <pt x="422" y="1678" on="1"/>
        <pt x="422" y="-324" on="1"/>
        <pt x="12" y="-324" on="1"/>
        <pt x="12" y="-135" on="1"/>
        <pt x="179" y="-135" on="1"/>
        <pt x="179" y="1488" on="1"/>
        <pt x="12" y="1488" on="1"/>
      </contour>
    </TTGlyph>
    <TTGlyph name="breve" xMin="118" yMin="1173" xMax="761" yMax="1456">
      <contour>
        <pt x="754" y="1456" on="1"/>
        <pt x="757" y="1450" on="1"/>
        <pt x="761" y="1327" on="0"/>
        <pt x="587" y="1173" on="0"/>
        <pt x="440" y="1173" on="1"/>
        <pt x="292" y="1173" on="0"/>
        <pt x="118" y="1327" on="0"/>
        <pt x="123" y="1450" on="1"/>
        <pt x="126" y="1456" on="1"/>
        <pt x="306" y="1456" on="1"/>
        <pt x="306" y="1398" on="0"/>
        <pt x="371" y="1324" on="0"/>
        <pt x="440" y="1324" on="1"/>
        <pt x="507" y="1324" on="0"/>
        <pt x="573" y="1398" on="0"/>
        <pt x="573" y="1456" on="1"/>
      </contour>
    </TTGlyph>
    <TTGlyph name="breveacutecomb" xMin="118" yMin="1228" xMax="766" yMax="1680">
      <contour>
        <pt x="758" y="1456" on="1"/>
        <pt x="760" y="1450" on="1"/>
        <pt x="766" y="1353" on="0"/>
        <pt x="590" y="1228" on="0"/>
        <pt x="443" y="1228" on="1"/>
        <pt x="293" y="1228" on="0"/>
        <pt x="118" y="1352" on="0"/>
        <pt x="125" y="1450" on="1"/>
        <pt x="127" y="1456" on="1"/>
        <pt x="308" y="1456" on="1"/>
        <pt x="308" y="1409" on="0"/>
        <pt x="373" y="1351" on="0"/>
        <pt x="443" y="1351" on="1"/>
        <pt x="510" y="1351" on="0"/>
        <pt x="576" y="1410" on="0"/>
        <pt x="576" y="1456" on="1"/>
      </contour>
      <contour>
        <pt x="489" y="1680" on="1"/>
        <pt x="668" y="1680" on="1"/>
        <pt x="670" y="1675" on="1"/>
        <pt x="506" y="1487" on="1"/>
        <pt x="374" y="1487" on="1"/>
      </contour>
    </TTGlyph>
    <TTGlyph name="brevegravecomb" xMin="118" yMin="1228" xMax="766" yMax="1680">
      <contour>
        <pt x="528" y="1487" on="1"/>
        <pt x="377" y="1487" on="1"/>
        <pt x="191" y="1674" on="1"/>
        <pt x="193" y="1680" on="1"/>
        <pt x="391" y="1680" on="1"/>
      </contour>
      <contour>
        <pt x="758" y="1456" on="1"/>
        <pt x="760" y="1450" on="1"/>
        <pt x="766" y="1353" on="0"/>
        <pt x="590" y="1228" on="0"/>
        <pt x="443" y="1228" on="1"/>
        <pt x="293" y="1228" on="0"/>
        <pt x="118" y="1352" on="0"/>
        <pt x="125" y="1450" on="1"/>
        <pt x="127" y="1456" on="1"/>
        <pt x="308" y="1456" on="1"/>
        <pt x="308" y="1409" on="0"/>
        <pt x="373" y="1351" on="0"/>
        <pt x="443" y="1351" on="1"/>
        <pt x="510" y="1351" on="0"/>
        <pt x="576" y="1410" on="0"/>
        <pt x="576" y="1456" on="1"/>
      </contour>
    </TTGlyph>
    <TTGlyph name="brevehookcomb" xMin="118" yMin="1235" xMax="756" yMax="1829">
      <contour>
        <pt x="748" y="1456" on="1"/>
        <pt x="750" y="1450" on="1"/>
        <pt x="756" y="1355" on="0"/>
        <pt x="584" y="1235" on="0"/>
        <pt x="438" y="1235" on="1"/>
        <pt x="291" y="1235" on="0"/>
        <pt x="118" y="1355" on="0"/>
        <pt x="125" y="1450" on="1"/>
        <pt x="127" y="1456" on="1"/>
        <pt x="304" y="1456" on="1"/>
        <pt x="304" y="1411" on="0"/>
        <pt x="369" y="1354" on="0"/>
        <pt x="438" y="1354" on="1"/>
        <pt x="505" y="1354" on="0"/>
        <pt x="570" y="1411" on="0"/>
        <pt x="570" y="1456" on="1"/>
      </contour>
      <contour>
        <pt x="361" y="1510" on="1"/>
        <pt x="353" y="1628" on="1"/>
        <pt x="424" y="1631" on="0"/>
        <pt x="485" y="1653" on="0"/>
        <pt x="480" y="1676" on="1"/>
        <pt x="480" y="1682" on="1"/>
        <pt x="485" y="1709" on="0"/>
        <pt x="409" y="1734" on="0"/>
        <pt x="341" y="1734" on="1"/>
        <pt x="348" y="1829" on="1"/>
        <pt x="508" y="1829" on="0"/>
        <pt x="679" y="1750" on="0"/>
        <pt x="679" y="1682" on="1"/>
        <pt x="679" y="1630" on="0"/>
        <pt x="595" y="1575" on="0"/>
        <pt x="534" y="1569" on="1"/>
        <pt x="533" y="1510" on="1"/>
      </contour>
    </TTGlyph>
    <TTGlyph name="brevetildecomb" xMin="118" yMin="1232" xMax="757" yMax="1756">
      <contour>
        <pt x="749" y="1456" on="1"/>
        <pt x="751" y="1450" on="1"/>
        <pt x="757" y="1354" on="0"/>
        <pt x="584" y="1232" on="0"/>
        <pt x="438" y="1232" on="1"/>
        <pt x="291" y="1232" on="0"/>
        <pt x="118" y="1354" on="0"/>
        <pt x="125" y="1450" on="1"/>
        <pt x="127" y="1456" on="1"/>
        <pt x="306" y="1456" on="1"/>
        <pt x="306" y="1410" on="0"/>
        <pt x="369" y="1352" on="0"/>
        <pt x="438" y="1352" on="1"/>
        <pt x="505" y="1352" on="0"/>
        <pt x="570" y="1410" on="0"/>
        <pt x="570" y="1456" on="1"/>
      </contour>
      <contour>
        <pt x="728" y="1727" on="1"/>
        <pt x="728" y="1652" on="0"/>
        <pt x="633" y="1545" on="0"/>
        <pt x="562" y="1545" on="1"/>
        <pt x="506" y="1545" on="0"/>
        <pt x="376" y="1616" on="0"/>
        <pt x="335" y="1616" on="1"/>
        <pt x="304" y="1616" on="0"/>
        <pt x="262" y="1565" on="0"/>
        <pt x="262" y="1529" on="1"/>
        <pt x="158" y="1556" on="1"/>
        <pt x="158" y="1630" on="0"/>
        <pt x="252" y="1741" on="0"/>
        <pt x="324" y="1741" on="1"/>
        <pt x="368" y="1741" on="0"/>
        <pt x="509" y="1670" on="0"/>
        <pt x="551" y="1670" on="1"/>
        <pt x="581" y="1670" on="0"/>
        <pt x="625" y="1720" on="0"/>
        <pt x="625" y="1756" on="1"/>
      </contour>
    </TTGlyph>
    <TTGlyph name="brokenbar" xMin="136" yMin="-270" xMax="365" yMax="1456">
      <contour>
        <pt x="136" y="-270" on="1"/>
        <pt x="136" y="525" on="1"/>
        <pt x="365" y="525" on="1"/>
        <pt x="365" y="-270" on="1"/>
      </contour>
      <contour>
        <pt x="365" y="698" on="1"/>
        <pt x="136" y="698" on="1"/>
        <pt x="136" y="1456" on="1"/>
        <pt x="365" y="1456" on="1"/>
      </contour>
    </TTGlyph>
    <TTGlyph name="bullet" xMin="136" yMin="511" xMax="580" yMax="1016">
      <contour>
        <pt x="136" y="801" on="1"/>
        <pt x="136" y="895" on="0"/>
        <pt x="256" y="1016" on="0"/>
        <pt x="357" y="1016" on="1"/>
        <pt x="459" y="1016" on="0"/>
        <pt x="580" y="896" on="0"/>
        <pt x="580" y="801" on="1"/>
        <pt x="580" y="724" on="1"/>
        <pt x="580" y="628" on="0"/>
        <pt x="460" y="511" on="0"/>
        <pt x="358" y="511" on="1"/>
        <pt x="257" y="511" on="0"/>
        <pt x="136" y="629" on="0"/>
        <pt x="136" y="724" on="1"/>
      </contour>
    </TTGlyph>
    <TTGlyph name="c" xMin="81" yMin="-21" xMax="1013" yMax="1102">
      <contour>
        <pt x="575" y="173" on="1"/>
        <pt x="664" y="173" on="0"/>
        <pt x="786" y="278" on="0"/>
        <pt x="786" y="357" on="1"/>
        <pt x="1006" y="357" on="1"/>
        <pt x="1008" y="351" on="1"/>
        <pt x="1013" y="199" on="0"/>
        <pt x="756" y="-21" on="0"/>
        <pt x="575" y="-21" on="1"/>
        <pt x="336" y="-21" on="0"/>
        <pt x="81" y="287" on="0"/>
        <pt x="81" y="523" on="1"/>
        <pt x="81" y="558" on="1"/>
        <pt x="81" y="793" on="0"/>
        <pt x="336" y="1102" on="0"/>
        <pt x="575" y="1102" on="1"/>
        <pt x="770" y="1102" on="0"/>
        <pt x="1013" y="875" on="0"/>
        <pt x="1009" y="700" on="1"/>
        <pt x="1007" y="694" on="1"/>
        <pt x="786" y="694" on="1"/>
        <pt x="786" y="783" on="0"/>
        <pt x="669" y="907" on="0"/>
        <pt x="575" y="907" on="1"/>
        <pt x="438" y="907" on="0"/>
        <pt x="324" y="708" on="0"/>
        <pt x="324" y="558" on="1"/>
        <pt x="324" y="523" on="1"/>
        <pt x="324" y="370" on="0"/>
        <pt x="438" y="173" on="0"/>
      </contour>
    </TTGlyph>
    <TTGlyph name="cacute" xMin="81" yMin="-21" xMax="1013" yMax="1503">
      <component glyphName="c" x="0" y="0" flags="0x204"/>
      <component glyphName="acute" x="296" y="25" flags="0x4"/>
    </TTGlyph>
    <TTGlyph name="caron" xMin="121" yMin="1252" xMax="813" yMax="1521">
      <contour>
        <pt x="466" y="1385" on="1"/>
        <pt x="598" y="1521" on="1"/>
        <pt x="813" y="1521" on="1"/>
        <pt x="813" y="1504" on="1"/>
        <pt x="545" y="1252" on="1"/>
        <pt x="388" y="1252" on="1"/>
        <pt x="121" y="1502" on="1"/>
        <pt x="121" y="1521" on="1"/>
        <pt x="334" y="1521" on="1"/>
      </contour>
    </TTGlyph>
    <TTGlyph name="ccaron" xMin="81" yMin="-21" xMax="1013" yMax="1548">
      <component glyphName="c" x="0" y="0" flags="0x204"/>
      <component glyphName="caron" x="67" y="27" flags="0x4"/>
    </TTGlyph>
    <TTGlyph name="ccedilla" xMin="81" yMin="-451" xMax="1013" yMax="1102">
      <component glyphName="c" x="0" y="0" flags="0x204"/>
      <component glyphName="cedilla" x="318" y="-4" flags="0x4"/>
    </TTGlyph>
    <TTGlyph name="ccircumflex" xMin="81" yMin="-21" xMax="1013" yMax="1541">
      <component glyphName="c" x="0" y="0" flags="0x204"/>
      <component glyphName="circumflex" x="44" y="23" flags="0x4"/>
    </TTGlyph>
    <TTGlyph name="cedilla" xMin="109" yMin="-447" xMax="457" yMax="3">
      <contour>
        <pt x="318" y="3" on="1"/>
        <pt x="307" y="-51" on="1"/>
        <pt x="371" y="-62" on="0"/>
        <pt x="457" y="-144" on="0"/>
        <pt x="457" y="-224" on="1"/>
        <pt x="457" y="-326" on="0"/>
        <pt x="287" y="-447" on="0"/>
        <pt x="130" y="-447" on="1"/>
        <pt x="123" y="-310" on="1"/>
        <pt x="185" y="-310" on="0"/>
        <pt x="260" y="-266" on="0"/>
        <pt x="260" y="-221" on="1"/>
        <pt x="260" y="-177" on="0"/>
        <pt x="191" y="-141" on="0"/>
        <pt x="109" y="-136" on="1"/>
        <pt x="141" y="3" on="1"/>
      </contour>
    </TTGlyph>
    <TTGlyph name="cent" xMin="91" yMin="-245" xMax="1023" yMax="1318">
      <contour>
        <pt x="585" y="173" on="1"/>
        <pt x="674" y="173" on="0"/>
        <pt x="796" y="278" on="0"/>
        <pt x="796" y="357" on="1"/>
        <pt x="1018" y="357" on="1"/>
        <pt x="1020" y="352" on="1"/>
        <pt x="1023" y="223" on="0"/>
        <pt x="832" y="19" on="0"/>
        <pt x="687" y="-10" on="1"/>
        <pt x="687" y="-245" on="1"/>
        <pt x="487" y="-245" on="1"/>
        <pt x="487" y="-13" on="1"/>
        <pt x="294" y="18" on="0"/>
        <pt x="91" y="313" on="0"/>
        <pt x="91" y="523" on="1"/>
        <pt x="91" y="558" on="1"/>
        <pt x="91" y="766" on="0"/>
        <pt x="294" y="1062" on="0"/>
        <pt x="487" y="1094" on="1"/>
        <pt x="487" y="1318" on="1"/>
        <pt x="687" y="1318" on="1"/>
        <pt x="687" y="1093" on="1"/>
        <pt x="841" y="1064" on="0"/>
        <pt x="1023" y="849" on="0"/>
        <pt x="1020" y="699" on="1"/>
        <pt x="1018" y="694" on="1"/>
        <pt x="796" y="694" on="1"/>
        <pt x="796" y="783" on="0"/>
        <pt x="679" y="907" on="0"/>
        <pt x="585" y="907" on="1"/>
        <pt x="448" y="907" on="0"/>
        <pt x="334" y="708" on="0"/>
        <pt x="334" y="558" on="1"/>
        <pt x="334" y="523" on="1"/>
        <pt x="334" y="370" on="0"/>
        <pt x="448" y="173" on="0"/>
      </contour>
    </TTGlyph>
    <TTGlyph name="chi" xMin="62" yMin="-435" xMax="1092" yMax="1098">
      <contour>
        <pt x="193" y="1098" on="1"/>
        <pt x="333" y="1098" on="0"/>
        <pt x="486" y="938" on="0"/>
        <pt x="528" y="826" on="1"/>
        <pt x="605" y="643" on="1"/>
        <pt x="611" y="643" on="1"/>
        <pt x="825" y="1082" on="1"/>
        <pt x="1070" y="1082" on="1"/>
        <pt x="722" y="365" on="1"/>
        <pt x="916" y="-93" on="1"/>
        <pt x="942" y="-154" on="0"/>
        <pt x="1002" y="-222" on="0"/>
        <pt x="1044" y="-227" on="1"/>
        <pt x="1059" y="-227" on="0"/>
        <pt x="1077" y="-227" on="0"/>
        <pt x="1092" y="-225" on="1"/>
        <pt x="1085" y="-423" on="1"/>
        <pt x="1066" y="-429" on="0"/>
        <pt x="1012" y="-435" on="0"/>
        <pt x="989" y="-434" on="1"/>
        <pt x="876" y="-429" on="0"/>
        <pt x="737" y="-269" on="0"/>
        <pt x="686" y="-134" on="1"/>
        <pt x="592" y="84" on="1"/>
        <pt x="586" y="85" on="1"/>
        <pt x="343" y="-416" on="1"/>
        <pt x="95" y="-416" on="1"/>
        <pt x="474" y="361" on="1"/>
        <pt x="308" y="748" on="1"/>
        <pt x="280" y="815" on="0"/>
        <pt x="190" y="898" on="0"/>
        <pt x="131" y="898" on="1"/>
        <pt x="119" y="898" on="0"/>
        <pt x="78" y="894" on="0"/>
        <pt x="64" y="893" on="1"/>
        <pt x="62" y="1079" on="1"/>
        <pt x="93" y="1087" on="0"/>
        <pt x="160" y="1098" on="0"/>
      </contour>
    </TTGlyph>
    <TTGlyph name="circumflex" xMin="155" yMin="1252" xMax="828" yMax="1518">
      <contour>
        <pt x="828" y="1276" on="1"/>
        <pt x="828" y="1252" on="1"/>
        <pt x="633" y="1252" on="1"/>
        <pt x="490" y="1391" on="1"/>
        <pt x="348" y="1252" on="1"/>
        <pt x="155" y="1252" on="1"/>
        <pt x="155" y="1278" on="1"/>
        <pt x="419" y="1518" on="1"/>
        <pt x="562" y="1518" on="1"/>
      </contour>
    </TTGlyph>
    <TTGlyph name="circumflexacutecomb" xMin="106" yMin="1252" xMax="1194" yMax="1694">
      <contour>
        <pt x="399" y="1514" on="1"/>
        <pt x="597" y="1514" on="1"/>
        <pt x="890" y="1258" on="1"/>
        <pt x="887" y="1252" on="1"/>
        <pt x="658" y="1252" on="1"/>
        <pt x="498" y="1401" on="1"/>
        <pt x="338" y="1252" on="1"/>
        <pt x="109" y="1252" on="1"/>
        <pt x="106" y="1258" on="1"/>
      </contour>
      <contour>
        <pt x="954" y="1694" on="1"/>
        <pt x="1194" y="1694" on="1"/>
        <pt x="985" y="1427" on="1"/>
        <pt x="810" y="1427" on="1"/>
      </contour>
    </TTGlyph>
    <TTGlyph name="circumflexgravecomb" xMin="-205" yMin="1252" xMax="882" yMax="1694">
      <contour>
        <pt x="882" y="1258" on="1"/>
        <pt x="879" y="1252" on="1"/>
        <pt x="650" y="1252" on="1"/>
        <pt x="490" y="1401" on="1"/>
        <pt x="331" y="1252" on="1"/>
        <pt x="102" y="1252" on="1"/>
        <pt x="99" y="1258" on="1"/>
        <pt x="392" y="1514" on="1"/>
        <pt x="589" y="1514" on="1"/>
      </contour>
      <contour>
        <pt x="178" y="1427" on="1"/>
        <pt x="3" y="1427" on="1"/>
        <pt x="-205" y="1694" on="1"/>
        <pt x="34" y="1694" on="1"/>
      </contour>
    </TTGlyph>
    <TTGlyph name="circumflexhookcomb" xMin="99" yMin="1252" xMax="1115" yMax="1739">
      <contour>
        <pt x="882" y="1258" on="1"/>
        <pt x="880" y="1252" on="1"/>
        <pt x="669" y="1252" on="1"/>
        <pt x="490" y="1420" on="1"/>
        <pt x="311" y="1252" on="1"/>
        <pt x="101" y="1252" on="1"/>
        <pt x="99" y="1258" on="1"/>
        <pt x="379" y="1514" on="1"/>
        <pt x="602" y="1514" on="1"/>
      </contour>
      <contour>
        <pt x="834" y="1389" on="1"/>
        <pt x="827" y="1514" on="1"/>
        <pt x="891" y="1518" on="0"/>
        <pt x="946" y="1543" on="0"/>
        <pt x="946" y="1572" on="1"/>
        <pt x="946" y="1604" on="0"/>
        <pt x="876" y="1634" on="0"/>
        <pt x="817" y="1634" on="1"/>
        <pt x="824" y="1739" on="1"/>
        <pt x="964" y="1739" on="0"/>
        <pt x="1115" y="1651" on="0"/>
        <pt x="1115" y="1575" on="1"/>
        <pt x="1115" y="1517" on="0"/>
        <pt x="1040" y="1455" on="0"/>
        <pt x="986" y="1448" on="1"/>
        <pt x="985" y="1389" on="1"/>
      </contour>
    </TTGlyph>
    <TTGlyph name="circumflextildecomb" xMin="100" yMin="1255" xMax="877" yMax="1786">
      <contour>
        <pt x="877" y="1261" on="1"/>
        <pt x="875" y="1255" on="1"/>
        <pt x="667" y="1255" on="1"/>
        <pt x="488" y="1422" on="1"/>
        <pt x="310" y="1255" on="1"/>
        <pt x="102" y="1255" on="1"/>
        <pt x="100" y="1261" on="1"/>
        <pt x="391" y="1517" on="1"/>
        <pt x="586" y="1517" on="1"/>
      </contour>
      <contour>
        <pt x="759" y="1754" on="1"/>
        <pt x="759" y="1684" on="0"/>
        <pt x="668" y="1577" on="0"/>
        <pt x="603" y="1577" on="1"/>
        <pt x="551" y="1577" on="0"/>
        <pt x="424" y="1646" on="0"/>
        <pt x="386" y="1646" on="1"/>
        <pt x="358" y="1646" on="0"/>
        <pt x="316" y="1592" on="0"/>
        <pt x="316" y="1559" on="1"/>
        <pt x="221" y="1585" on="1"/>
        <pt x="221" y="1654" on="0"/>
        <pt x="310" y="1764" on="0"/>
        <pt x="376" y="1764" on="1"/>
        <pt x="417" y="1764" on="0"/>
        <pt x="554" y="1696" on="0"/>
        <pt x="592" y="1696" on="1"/>
        <pt x="619" y="1696" on="0"/>
        <pt x="664" y="1752" on="0"/>
        <pt x="664" y="1786" on="1"/>
      </contour>
    </TTGlyph>
    <TTGlyph name="colon" xMin="153" yMin="0" xMax="395" yMax="1109">
      <component glyphName="period" x="0" y="0" flags="0x4"/>
      <component glyphName="period" x="0" y="876" flags="0x4"/>
    </TTGlyph>
    <TTGlyph name="comma" xMin="54" yMin="-281" xMax="363" yMax="238">
      <contour>
        <pt x="363" y="31" on="1"/>
        <pt x="208" y="-281" on="1"/>
        <pt x="54" y="-281" on="1"/>
        <pt x="124" y="40" on="1"/>
        <pt x="124" y="238" on="1"/>
        <pt x="363" y="238" on="1"/>
      </contour>
    </TTGlyph>
    <TTGlyph name="commaaccent" xMin="81" yMin="-128" xMax="317" yMax="262">
      <contour>
        <pt x="317" y="110" on="1"/>
        <pt x="191" y="-128" on="1"/>
        <pt x="81" y="-128" on="1"/>
        <pt x="142" y="120" on="1"/>
        <pt x="142" y="262" on="1"/>
        <pt x="317" y="262" on="1"/>
      </contour>
    </TTGlyph>
    <TTGlyph name="commaaccentrotate" xMin="144" yMin="1129" xMax="389" yMax="1548">
      <contour>
        <pt x="144" y="1293" on="1"/>
        <pt x="263" y="1548" on="1"/>
        <pt x="389" y="1548" on="1"/>
        <pt x="362" y="1283" on="1"/>
        <pt x="362" y="1129" on="1"/>
        <pt x="144" y="1129" on="1"/>
      </contour>
    </TTGlyph>
    <TTGlyph name="copyright" xMin="87" yMin="-21" xMax="1506" yMax="1476">
      <contour>
        <pt x="1110" y="596" on="1"/>
        <pt x="1112" y="590" on="1"/>
        <pt x="1116" y="439" on="0"/>
        <pt x="940" y="282" on="0"/>
        <pt x="783" y="282" on="1"/>
        <pt x="623" y="282" on="0"/>
        <pt x="434" y="494" on="0"/>
        <pt x="434" y="669" on="1"/>
        <pt x="434" y="788" on="1"/>
        <pt x="434" y="961" on="0"/>
        <pt x="623" y="1175" on="0"/>
        <pt x="783" y="1175" on="1"/>
        <pt x="940" y="1175" on="0"/>
        <pt x="1117" y="1016" on="0"/>
        <pt x="1113" y="867" on="1"/>
        <pt x="1111" y="861" on="1"/>
        <pt x="963" y="861" on="1"/>
        <pt x="963" y="955" on="0"/>
        <pt x="873" y="1040" on="0"/>
        <pt x="783" y="1040" on="1"/>
        <pt x="689" y="1040" on="0"/>
        <pt x="588" y="902" on="0"/>
        <pt x="588" y="789" on="1"/>
        <pt x="588" y="669" on="1"/>
        <pt x="588" y="554" on="0"/>
        <pt x="689" y="417" on="0"/>
        <pt x="783" y="417" on="1"/>
        <pt x="873" y="417" on="0"/>
        <pt x="962" y="500" on="0"/>
        <pt x="962" y="596" on="1"/>
      </contour>
      <contour>
        <pt x="209" y="729" on="1"/>
        <pt x="209" y="465" on="0"/>
        <pt x="552" y="104" on="0"/>
        <pt x="797" y="104" on="1"/>
        <pt x="1041" y="104" on="0"/>
        <pt x="1384" y="465" on="0"/>
        <pt x="1384" y="729" on="1"/>
        <pt x="1384" y="992" on="0"/>
        <pt x="1041" y="1351" on="0"/>
        <pt x="797" y="1351" on="1"/>
        <pt x="551" y="1351" on="0"/>
        <pt x="209" y="992" on="0"/>
      </contour>
      <contour>
        <pt x="87" y="729" on="1"/>
        <pt x="87" y="1044" on="0"/>
        <pt x="501" y="1476" on="0"/>
        <pt x="797" y="1476" on="1"/>
        <pt x="1092" y="1476" on="0"/>
        <pt x="1506" y="1044" on="0"/>
        <pt x="1506" y="729" on="1"/>
        <pt x="1506" y="413" on="0"/>
        <pt x="1091" y="-21" on="0"/>
        <pt x="797" y="-21" on="1"/>
        <pt x="501" y="-21" on="0"/>
        <pt x="87" y="413" on="0"/>
      </contour>
    </TTGlyph>
    <TTGlyph name="crossbar" xMin="151" yMin="647" xMax="806" yMax="817">
      <contour>
        <pt x="806" y="647" on="1"/>
        <pt x="151" y="647" on="1"/>
        <pt x="151" y="817" on="1"/>
        <pt x="806" y="817" on="1"/>
      </contour>
    </TTGlyph>
    <TTGlyph name="currency" xMin="93" yMin="-27" xMax="1359" yMax="1265">
      <contour>
        <pt x="1085" y="107" on="1"/>
        <pt x="1008" y="46" on="0"/>
        <pt x="823" y="-20" on="0"/>
        <pt x="723" y="-20" on="1"/>
        <pt x="622" y="-20" on="0"/>
        <pt x="438" y="45" on="0"/>
        <pt x="363" y="106" on="1"/>
        <pt x="234" y="-26" on="1"/>
        <pt x="93" y="118" on="1"/>
        <pt x="228" y="255" on="1"/>
        <pt x="179" y="331" on="0"/>
        <pt x="128" y="510" on="0"/>
        <pt x="128" y="608" on="1"/>
        <pt x="128" y="709" on="0"/>
        <pt x="184" y="894" on="0"/>
        <pt x="237" y="973" on="1"/>
        <pt x="93" y="1120" on="1"/>
        <pt x="234" y="1264" on="1"/>
        <pt x="376" y="1119" on="1"/>
        <pt x="450" y="1174" on="0"/>
        <pt x="626" y="1234" on="0"/>
        <pt x="723" y="1234" on="1"/>
        <pt x="819" y="1234" on="0"/>
        <pt x="997" y="1173" on="0"/>
        <pt x="1072" y="1117" on="1"/>
        <pt x="1217" y="1265" on="1"/>
        <pt x="1359" y="1120" on="1"/>
        <pt x="1211" y="969" on="1"/>
        <pt x="1262" y="891" on="0"/>
        <pt x="1318" y="708" on="0"/>
        <pt x="1318" y="608" on="1"/>
        <pt x="1318" y="511" on="0"/>
        <pt x="1267" y="334" on="0"/>
        <pt x="1220" y="259" on="1"/>
        <pt x="1359" y="118" on="1"/>
        <pt x="1217" y="-27" on="1"/>
      </contour>
      <contour>
        <pt x="313" y="608" on="1"/>
        <pt x="313" y="423" on="0"/>
        <pt x="552" y="165" on="0"/>
        <pt x="723" y="165" on="1"/>
        <pt x="893" y="165" on="0"/>
        <pt x="1132" y="423" on="0"/>
        <pt x="1132" y="608" on="1"/>
        <pt x="1132" y="792" on="0"/>
        <pt x="893" y="1048" on="0"/>
        <pt x="723" y="1048" on="1"/>
        <pt x="552" y="1048" on="0"/>
        <pt x="313" y="792" on="0"/>
      </contour>
    </TTGlyph>
    <TTGlyph name="cyrillicbreve" xMin="118" yMin="1173" xMax="761" yMax="1456">
      <component glyphName="breve" x="0" y="0" flags="0x204"/>
    </TTGlyph>
    <TTGlyph name="cyrillichook" xMin="-80" yMin="-437" xMax="398" yMax="205">
      <contour>
        <pt x="398" y="205" on="1"/>
        <pt x="398" y="-63" on="1"/>
        <pt x="398" y="-242" on="0"/>
        <pt x="212" y="-437" on="0"/>
        <pt x="46" y="-437" on="1"/>
        <pt x="10" y="-437" on="0"/>
        <pt x="-48" y="-429" on="0"/>
        <pt x="-80" y="-420" on="1"/>
        <pt x="-66" y="-222" on="1"/>
        <pt x="-49" y="-227" on="0"/>
        <pt x="8" y="-234" on="0"/>
        <pt x="31" y="-234" on="1"/>
        <pt x="90" y="-234" on="0"/>
        <pt x="155" y="-146" on="0"/>
        <pt x="155" y="-63" on="1"/>
        <pt x="155" y="205" on="1"/>
      </contour>
    </TTGlyph>
    <TTGlyph name="cyrillichookleft" xMin="24" yMin="-417" xMax="467" yMax="66">
      <contour>
        <pt x="271" y="66" on="1"/>
        <pt x="370" y="14" on="0"/>
        <pt x="467" y="-127" on="0"/>
        <pt x="467" y="-203" on="1"/>
        <pt x="467" y="-304" on="0"/>
        <pt x="328" y="-417" on="0"/>
        <pt x="222" y="-417" on="1"/>
        <pt x="156" y="-417" on="0"/>
        <pt x="62" y="-392" on="0"/>
        <pt x="24" y="-373" on="1"/>
        <pt x="59" y="-231" on="1"/>
        <pt x="87" y="-241" on="0"/>
        <pt x="136" y="-254" on="0"/>
        <pt x="168" y="-254" on="1"/>
        <pt x="225" y="-254" on="0"/>
        <pt x="272" y="-208" on="0"/>
        <pt x="272" y="-174" on="1"/>
        <pt x="272" y="-126" on="0"/>
        <pt x="213" y="-48" on="0"/>
        <pt x="158" y="0" on="1"/>
      </contour>
    </TTGlyph>
    <TTGlyph name="cyrillictic" xMin="92" yMin="-358" xMax="335" yMax="200">
      <contour>
        <pt x="335" y="-358" on="1"/>
        <pt x="92" y="-358" on="1"/>
        <pt x="92" y="200" on="1"/>
        <pt x="335" y="200" on="1"/>
      </contour>
    </TTGlyph>
    <TTGlyph name="d" xMin="83" yMin="-21" xMax="1027" yMax="1560">
      <contour>
        <pt x="83" y="526" on="1"/>
        <pt x="83" y="785" on="0"/>
        <pt x="305" y="1102" on="0"/>
        <pt x="506" y="1102" on="1"/>
        <pt x="594" y="1102" on="0"/>
        <pt x="733" y="1031" on="0"/>
        <pt x="784" y="965" on="1"/>
        <pt x="784" y="1560" on="1"/>
        <pt x="1027" y="1560" on="1"/>
        <pt x="1027" y="0" on="1"/>
        <pt x="823" y="0" on="1"/>
        <pt x="799" y="134" on="1"/>
        <pt x="747" y="58" on="0"/>
        <pt x="601" y="-21" on="0"/>
        <pt x="504" y="-21" on="1"/>
        <pt x="305" y="-21" on="0"/>
        <pt x="83" y="269" on="0"/>
        <pt x="83" y="505" on="1"/>
      </contour>
      <contour>
        <pt x="326" y="505" on="1"/>
        <pt x="326" y="355" on="0"/>
        <pt x="441" y="177" on="0"/>
        <pt x="566" y="177" on="1"/>
        <pt x="643" y="177" on="0"/>
        <pt x="750" y="243" on="0"/>
        <pt x="784" y="304" on="1"/>
        <pt x="784" y="776" on="1"/>
        <pt x="750" y="836" on="0"/>
        <pt x="642" y="903" on="0"/>
        <pt x="568" y="903" on="1"/>
        <pt x="444" y="903" on="0"/>
        <pt x="326" y="694" on="0"/>
        <pt x="326" y="526" on="1"/>
      </contour>
    </TTGlyph>
    <TTGlyph name="dagger" xMin="64" yMin="0" xMax="1054" yMax="1456">
      <contour>
        <pt x="1054" y="882" on="1"/>
        <pt x="678" y="882" on="1"/>
        <pt x="678" y="0" on="1"/>
        <pt x="435" y="0" on="1"/>
        <pt x="435" y="882" on="1"/>
        <pt x="64" y="882" on="1"/>
        <pt x="64" y="1082" on="1"/>
        <pt x="435" y="1082" on="1"/>
        <pt x="435" y="1456" on="1"/>
        <pt x="678" y="1456" on="1"/>
        <pt x="678" y="1082" on="1"/>
        <pt x="1054" y="1082" on="1"/>
      </contour>
    </TTGlyph>
    <TTGlyph name="daggerdbl" xMin="92" yMin="-416" xMax="1081" yMax="1456">
      <contour>
        <pt x="1081" y="0" on="1"/>
        <pt x="705" y="0" on="1"/>
        <pt x="705" y="-416" on="1"/>
        <pt x="462" y="-416" on="1"/>
        <pt x="462" y="0" on="1"/>
        <pt x="92" y="0" on="1"/>
        <pt x="92" y="194" on="1"/>
        <pt x="462" y="194" on="1"/>
        <pt x="462" y="886" on="1"/>
        <pt x="92" y="886" on="1"/>
        <pt x="92" y="1082" on="1"/>
        <pt x="462" y="1082" on="1"/>
        <pt x="462" y="1456" on="1"/>
        <pt x="705" y="1456" on="1"/>
        <pt x="705" y="1082" on="1"/>
        <pt x="1081" y="1082" on="1"/>
        <pt x="1081" y="886" on="1"/>
        <pt x="705" y="886" on="1"/>
        <pt x="705" y="194" on="1"/>
        <pt x="1081" y="194" on="1"/>
      </contour>
    </TTGlyph>
    <TTGlyph name="dasiaoxia" xMin="108" yMin="1135" xMax="716" yMax="1477">
      <contour>
        <pt x="403" y="1164" on="1"/>
        <pt x="505" y="1477" on="1"/>
        <pt x="716" y="1477" on="1"/>
        <pt x="716" y="1456" on="1"/>
        <pt x="486" y="1137" on="1"/>
        <pt x="403" y="1137" on="1"/>
      </contour>
      <contour>
        <pt x="108" y="1284" on="1"/>
        <pt x="264" y="1476" on="1"/>
        <pt x="372" y="1476" on="1"/>
        <pt x="291" y="1272" on="1"/>
        <pt x="291" y="1135" on="1"/>
        <pt x="108" y="1135" on="1"/>
      </contour>
    </TTGlyph>
    <TTGlyph name="dcaron" xMin="83" yMin="-21" xMax="1338" yMax="1560">
      <component glyphName="d" x="0" y="0" flags="0x4"/>
      <component glyphName="commaaccent" x="1021" y="1298" flags="0x4"/>
    </TTGlyph>
    <TTGlyph name="dcroat" xMin="83" yMin="-21" xMax="1199" yMax="1560">
      <contour>
        <pt x="1199" y="1225" on="1"/>
        <pt x="1027" y="1225" on="1"/>
        <pt x="1027" y="0" on="1"/>
        <pt x="823" y="0" on="1"/>
        <pt x="799" y="134" on="1"/>
        <pt x="747" y="58" on="0"/>
        <pt x="601" y="-21" on="0"/>
        <pt x="504" y="-21" on="1"/>
        <pt x="305" y="-21" on="0"/>
        <pt x="83" y="269" on="0"/>
        <pt x="83" y="505" on="1"/>
        <pt x="83" y="526" on="1"/>
        <pt x="83" y="785" on="0"/>
        <pt x="305" y="1102" on="0"/>
        <pt x="506" y="1102" on="1"/>
        <pt x="594" y="1102" on="0"/>
        <pt x="733" y="1031" on="0"/>
        <pt x="784" y="965" on="1"/>
        <pt x="784" y="1225" on="1"/>
        <pt x="544" y="1225" on="1"/>
        <pt x="544" y="1395" on="1"/>
        <pt x="784" y="1395" on="1"/>
        <pt x="784" y="1560" on="1"/>
        <pt x="1027" y="1560" on="1"/>
        <pt x="1027" y="1395" on="1"/>
        <pt x="1199" y="1395" on="1"/>
      </contour>
      <contour>
        <pt x="326" y="505" on="1"/>
        <pt x="326" y="355" on="0"/>
        <pt x="441" y="177" on="0"/>
        <pt x="566" y="177" on="1"/>
        <pt x="643" y="177" on="0"/>
        <pt x="750" y="243" on="0"/>
        <pt x="784" y="304" on="1"/>
        <pt x="784" y="776" on="1"/>
        <pt x="750" y="836" on="0"/>
        <pt x="642" y="903" on="0"/>
        <pt x="568" y="903" on="1"/>
        <pt x="444" y="903" on="0"/>
        <pt x="326" y="694" on="0"/>
        <pt x="326" y="526" on="1"/>
      </contour>
    </TTGlyph>
    <TTGlyph name="degree" xMin="127" yMin="944" xMax="651" yMax="1477">
      <contour>
        <pt x="127" y="1208" on="1"/>
        <pt x="127" y="1318" on="0"/>
        <pt x="282" y="1477" on="0"/>
        <pt x="391" y="1477" on="1"/>
        <pt x="498" y="1477" on="0"/>
        <pt x="651" y="1318" on="0"/>
        <pt x="651" y="1208" on="1"/>
        <pt x="651" y="1098" on="0"/>
        <pt x="498" y="944" on="0"/>
        <pt x="391" y="944" on="1"/>
        <pt x="282" y="944" on="0"/>
        <pt x="127" y="1098" on="0"/>
      </contour>
      <contour>
        <pt x="266" y="1208" on="1"/>
        <pt x="266" y="1155" on="0"/>
        <pt x="339" y="1084" on="0"/>
        <pt x="391" y="1084" on="1"/>
        <pt x="442" y="1084" on="0"/>
        <pt x="513" y="1154" on="0"/>
        <pt x="513" y="1208" on="1"/>
        <pt x="513" y="1262" on="0"/>
        <pt x="442" y="1336" on="0"/>
        <pt x="391" y="1336" on="1"/>
        <pt x="339" y="1336" on="0"/>
        <pt x="266" y="1262" on="0"/>
      </contour>
    </TTGlyph>
    <TTGlyph name="delta" xMin="83" yMin="-21" xMax="1076" yMax="1456">
      <contour>
        <pt x="957" y="1456" on="1"/>
        <pt x="957" y="1263" on="1"/>
        <pt x="529" y="1263" on="1"/>
        <pt x="527" y="1257" on="1"/>
        <pt x="836" y="1031" on="1"/>
        <pt x="944" y="950" on="0"/>
        <pt x="1076" y="704" on="0"/>
        <pt x="1076" y="551" on="1"/>
        <pt x="1076" y="530" on="1"/>
        <pt x="1076" y="286" on="0"/>
        <pt x="811" y="-21" on="0"/>
        <pt x="580" y="-21" on="1"/>
        <pt x="348" y="-21" on="0"/>
        <pt x="83" y="279" on="0"/>
        <pt x="83" y="516" on="1"/>
        <pt x="83" y="537" on="1"/>
        <pt x="83" y="744" on="0"/>
        <pt x="296" y="1032" on="0"/>
        <pt x="473" y="1062" on="1"/>
        <pt x="480" y="1063" on="1"/>
        <pt x="481" y="1069" on="1"/>
        <pt x="189" y="1304" on="1"/>
        <pt x="189" y="1456" on="1"/>
      </contour>
      <contour>
        <pt x="578" y="907" on="1"/>
        <pt x="451" y="907" on="0"/>
        <pt x="326" y="706" on="0"/>
        <pt x="326" y="551" on="1"/>
        <pt x="326" y="530" on="1"/>
        <pt x="326" y="371" on="0"/>
        <pt x="450" y="173" on="0"/>
        <pt x="580" y="173" on="1"/>
        <pt x="707" y="173" on="0"/>
        <pt x="834" y="372" on="0"/>
        <pt x="834" y="530" on="1"/>
        <pt x="834" y="551" on="1"/>
        <pt x="834" y="706" on="0"/>
        <pt x="707" y="907" on="0"/>
      </contour>
    </TTGlyph>
    <TTGlyph name="dieresis" xMin="164" yMin="1252" xMax="889" yMax="1456">
      <contour>
        <pt x="889" y="1252" on="1"/>
        <pt x="647" y="1252" on="1"/>
        <pt x="647" y="1456" on="1"/>
        <pt x="889" y="1456" on="1"/>
      </contour>
      <contour>
        <pt x="405" y="1252" on="1"/>
        <pt x="164" y="1252" on="1"/>
        <pt x="164" y="1456" on="1"/>
        <pt x="405" y="1456" on="1"/>
      </contour>
    </TTGlyph>
    <TTGlyph name="dieresistonos" xMin="157" yMin="1252" xMax="910" yMax="1746">
      <contour>
        <pt x="910" y="1252" on="1"/>
        <pt x="685" y="1252" on="1"/>
        <pt x="685" y="1456" on="1"/>
        <pt x="910" y="1456" on="1"/>
      </contour>
      <contour>
        <pt x="382" y="1252" on="1"/>
        <pt x="157" y="1252" on="1"/>
        <pt x="157" y="1456" on="1"/>
        <pt x="382" y="1456" on="1"/>
      </contour>
      <contour>
        <pt x="508" y="1746" on="1"/>
        <pt x="757" y="1746" on="1"/>
        <pt x="607" y="1473" on="1"/>
        <pt x="461" y="1473" on="1"/>
      </contour>
    </TTGlyph>
    <TTGlyph name="divide" xMin="67" yMin="170" xMax="1079" yMax="1206">
      <contour>
        <pt x="1079" y="582" on="1"/>
        <pt x="67" y="582" on="1"/>
        <pt x="67" y="794" on="1"/>
        <pt x="1079" y="794" on="1"/>
      </contour>
      <contour>
        <pt x="696" y="985" on="1"/>
        <pt x="453" y="985" on="1"/>
        <pt x="453" y="1206" on="1"/>
        <pt x="696" y="1206" on="1"/>
      </contour>
      <contour>
        <pt x="696" y="170" on="1"/>
        <pt x="453" y="170" on="1"/>
        <pt x="453" y="391" on="1"/>
        <pt x="696" y="391" on="1"/>
      </contour>
    </TTGlyph>
    <TTGlyph name="dollar" xMin="101" yMin="-211" xMax="1062" yMax="1691">
      <contour>
        <pt x="819" y="380" on="1"/>
        <pt x="819" y="465" on="0"/>
        <pt x="708" y="577" on="0"/>
        <pt x="578" y="623" on="1"/>
        <pt x="367" y="695" on="0"/>
        <pt x="156" y="898" on="0"/>
        <pt x="156" y="1073" on="1"/>
        <pt x="156" y="1239" on="0"/>
        <pt x="358" y="1453" on="0"/>
        <pt x="531" y="1473" on="1"/>
        <pt x="531" y="1691" on="1"/>
        <pt x="691" y="1691" on="1"/>
        <pt x="691" y="1471" on="1"/>
        <pt x="862" y="1445" on="0"/>
        <pt x="1055" y="1204" on="0"/>
        <pt x="1055" y="1005" on="1"/>
        <pt x="813" y="1005" on="1"/>
        <pt x="813" y="1130" on="0"/>
        <pt x="701" y="1276" on="0"/>
        <pt x="603" y="1276" on="1"/>
        <pt x="501" y="1276" on="0"/>
        <pt x="399" y="1167" on="0"/>
        <pt x="399" y="1075" on="1"/>
        <pt x="399" y="989" on="0"/>
        <pt x="506" y="881" on="0"/>
        <pt x="645" y="832" on="1"/>
        <pt x="856" y="756" on="0"/>
        <pt x="1062" y="556" on="0"/>
        <pt x="1062" y="382" on="1"/>
        <pt x="1062" y="209" on="0"/>
        <pt x="852" y="3" on="0"/>
        <pt x="670" y="-16" on="1"/>
        <pt x="670" y="-211" on="1"/>
        <pt x="511" y="-211" on="1"/>
        <pt x="511" y="-17" on="1"/>
        <pt x="332" y="2" on="0"/>
        <pt x="101" y="223" on="0"/>
        <pt x="105" y="438" on="1"/>
        <pt x="107" y="443" on="1"/>
        <pt x="343" y="443" on="1"/>
        <pt x="343" y="301" on="0"/>
        <pt x="482" y="179" on="0"/>
        <pt x="586" y="179" on="1"/>
        <pt x="697" y="179" on="0"/>
        <pt x="819" y="287" on="0"/>
      </contour>
    </TTGlyph>
    <TTGlyph name="dotaccent" xMin="154" yMin="1239" xMax="413" yMax="1462">
      <contour>
        <pt x="413" y="1239" on="1"/>
        <pt x="154" y="1239" on="1"/>
        <pt x="154" y="1462" on="1"/>
        <pt x="413" y="1462" on="1"/>
      </contour>
    </TTGlyph>
    <TTGlyph name="dotbelow" xMin="-734" yMin="-347" xMax="-464" yMax="-124">
      <contour>
        <pt x="-464" y="-347" on="1"/>
        <pt x="-734" y="-347" on="1"/>
        <pt x="-734" y="-124" on="1"/>
        <pt x="-464" y="-124" on="1"/>
      </contour>
    </TTGlyph>
    <TTGlyph name="dotlessi" xMin="143" yMin="0" xMax="386" yMax="1082">
      <contour>
        <pt x="386" y="0" on="1"/>
        <pt x="143" y="0" on="1"/>
        <pt x="143" y="1082" on="1"/>
        <pt x="386" y="1082" on="1"/>
      </contour>
    </TTGlyph>
    <TTGlyph name="e" xMin="89" yMin="-21" xMax="1016" yMax="1103">
      <contour>
        <pt x="592" y="-21" on="1"/>
        <pt x="362" y="-21" on="0"/>
        <pt x="89" y="280" on="0"/>
        <pt x="89" y="516" on="1"/>
        <pt x="89" y="556" on="1"/>
        <pt x="89" y="792" on="0"/>
        <pt x="360" y="1103" on="0"/>
        <pt x="564" y="1102" on="1"/>
        <pt x="783" y="1102" on="0"/>
        <pt x="1016" y="837" on="0"/>
        <pt x="1016" y="614" on="1"/>
        <pt x="1016" y="471" on="1"/>
        <pt x="341" y="471" on="1"/>
        <pt x="339" y="466" on="1"/>
        <pt x="345" y="337" on="0"/>
        <pt x="484" y="173" on="0"/>
        <pt x="607" y="173" on="1"/>
        <pt x="705" y="173" on="0"/>
        <pt x="845" y="221" on="0"/>
        <pt x="910" y="266" on="1"/>
        <pt x="988" y="107" on="1"/>
        <pt x="927" y="53" on="0"/>
        <pt x="725" y="-21" on="0"/>
      </contour>
      <contour>
        <pt x="564" y="907" on="1"/>
        <pt x="474" y="907" on="0"/>
        <pt x="358" y="764" on="0"/>
        <pt x="344" y="654" on="1"/>
        <pt x="346" y="649" on="1"/>
        <pt x="775" y="649" on="1"/>
        <pt x="775" y="674" on="1"/>
        <pt x="775" y="777" on="0"/>
        <pt x="670" y="907" on="0"/>
      </contour>
    </TTGlyph>
    <TTGlyph name="eacute" xMin="89" yMin="-21" xMax="1016" yMax="1504">
      <component glyphName="e" x="0" y="0" flags="0x204"/>
      <component glyphName="acute" x="314" y="26" flags="0x4"/>
    </TTGlyph>
    <TTGlyph name="ebreve" xMin="89" yMin="-21" xMax="1016" yMax="1563">
      <component glyphName="e" x="0" y="0" flags="0x204"/>
      <component glyphName="breve" x="113" y="107" flags="0x4"/>
    </TTGlyph>
    <TTGlyph name="ecaron" xMin="89" yMin="-21" xMax="1016" yMax="1549">
      <component glyphName="e" x="0" y="0" flags="0x204"/>
      <component glyphName="caron" x="85" y="28" flags="0x4"/>
    </TTGlyph>
    <TTGlyph name="ecircumflex" xMin="89" yMin="-21" xMax="1016" yMax="1542">
      <component glyphName="e" x="0" y="0" flags="0x204"/>
      <component glyphName="circumflex" x="62" y="24" flags="0x4"/>
    </TTGlyph>
    <TTGlyph name="edieresis" xMin="89" yMin="-21" xMax="1016" yMax="1484">
      <component glyphName="e" x="0" y="0" flags="0x204"/>
      <component glyphName="dieresis" x="26" y="28" flags="0x4"/>
    </TTGlyph>
    <TTGlyph name="edotaccent" xMin="89" yMin="-21" xMax="1016" yMax="1504">
      <component glyphName="e" x="0" y="0" flags="0x204"/>
      <component glyphName="dotaccent" x="267" y="42" flags="0x4"/>
    </TTGlyph>
    <TTGlyph name="egrave" xMin="89" yMin="-21" xMax="1016" yMax="1505">
      <component glyphName="e" x="0" y="0" flags="0x204"/>
      <component glyphName="grave" x="131" y="27" flags="0x4"/>
    </TTGlyph>
    <TTGlyph name="eight" xMin="97" yMin="-21" xMax="1066" yMax="1477">
      <contour>
        <pt x="1029" y="1072" on="1"/>
        <pt x="1029" y="962" on="0"/>
        <pt x="909" y="792" on="0"/>
        <pt x="806" y="747" on="1"/>
        <pt x="925" y="701" on="0"/>
        <pt x="1066" y="517" on="0"/>
        <pt x="1066" y="397" on="1"/>
        <pt x="1066" y="194" on="0"/>
        <pt x="798" y="-21" on="0"/>
        <pt x="583" y="-21" on="1"/>
        <pt x="365" y="-21" on="0"/>
        <pt x="97" y="194" on="0"/>
        <pt x="97" y="397" on="1"/>
        <pt x="97" y="517" on="0"/>
        <pt x="236" y="701" on="0"/>
        <pt x="357" y="748" on="1"/>
        <pt x="253" y="792" on="0"/>
        <pt x="135" y="961" on="0"/>
        <pt x="135" y="1072" on="1"/>
        <pt x="135" y="1266" on="0"/>
        <pt x="380" y="1477" on="0"/>
        <pt x="581" y="1477" on="1"/>
        <pt x="780" y="1477" on="0"/>
        <pt x="1029" y="1266" on="0"/>
      </contour>
      <contour>
        <pt x="824" y="409" on="1"/>
        <pt x="824" y="516" on="0"/>
        <pt x="687" y="650" on="0"/>
        <pt x="581" y="650" on="1"/>
        <pt x="473" y="650" on="0"/>
        <pt x="340" y="517" on="0"/>
        <pt x="340" y="409" on="1"/>
        <pt x="340" y="299" on="0"/>
        <pt x="472" y="173" on="0"/>
        <pt x="583" y="173" on="1"/>
        <pt x="690" y="173" on="0"/>
        <pt x="824" y="300" on="0"/>
      </contour>
      <contour>
        <pt x="786" y="1063" on="1"/>
        <pt x="786" y="1159" on="0"/>
        <pt x="672" y="1282" on="0"/>
        <pt x="581" y="1282" on="1"/>
        <pt x="487" y="1282" on="0"/>
        <pt x="378" y="1163" on="0"/>
        <pt x="378" y="1063" on="1"/>
        <pt x="378" y="964" on="0"/>
        <pt x="489" y="845" on="0"/>
        <pt x="583" y="845" on="1"/>
        <pt x="675" y="845" on="0"/>
        <pt x="786" y="964" on="0"/>
      </contour>
    </TTGlyph>
    <TTGlyph name="eight.lnum" xMin="109" yMin="-21" xMax="1117" yMax="1477">
      <contour>
        <pt x="1081" y="1072" on="1"/>
        <pt x="1081" y="961" on="0"/>
        <pt x="955" y="792" on="0"/>
        <pt x="846" y="747" on="1"/>
        <pt x="970" y="701" on="0"/>
        <pt x="1117" y="517" on="0"/>
        <pt x="1117" y="397" on="1"/>
        <pt x="1117" y="194" on="0"/>
        <pt x="838" y="-21" on="0"/>
        <pt x="614" y="-21" on="1"/>
        <pt x="387" y="-21" on="0"/>
        <pt x="109" y="194" on="0"/>
        <pt x="109" y="397" on="1"/>
        <pt x="109" y="517" on="0"/>
        <pt x="253" y="701" on="0"/>
        <pt x="379" y="748" on="1"/>
        <pt x="270" y="792" on="0"/>
        <pt x="146" y="961" on="0"/>
        <pt x="146" y="1072" on="1"/>
        <pt x="146" y="1266" on="0"/>
        <pt x="402" y="1477" on="0"/>
        <pt x="612" y="1477" on="1"/>
        <pt x="821" y="1477" on="0"/>
        <pt x="1081" y="1266" on="0"/>
      </contour>
      <contour>
        <pt x="875" y="409" on="1"/>
        <pt x="875" y="516" on="0"/>
        <pt x="727" y="650" on="0"/>
        <pt x="612" y="650" on="1"/>
        <pt x="495" y="650" on="0"/>
        <pt x="352" y="517" on="0"/>
        <pt x="352" y="409" on="1"/>
        <pt x="352" y="299" on="0"/>
        <pt x="495" y="173" on="0"/>
        <pt x="614" y="173" on="1"/>
        <pt x="730" y="173" on="0"/>
        <pt x="875" y="300" on="0"/>
      </contour>
      <contour>
        <pt x="838" y="1063" on="1"/>
        <pt x="838" y="1159" on="0"/>
        <pt x="713" y="1282" on="0"/>
        <pt x="612" y="1282" on="1"/>
        <pt x="510" y="1282" on="0"/>
        <pt x="389" y="1163" on="0"/>
        <pt x="389" y="1063" on="1"/>
        <pt x="389" y="964" on="0"/>
        <pt x="511" y="845" on="0"/>
        <pt x="614" y="845" on="1"/>
        <pt x="715" y="845" on="0"/>
        <pt x="838" y="964" on="0"/>
      </contour>
    </TTGlyph>
    <TTGlyph name="eight.smcp" xMin="82" yMin="-17" xMax="999" yMax="1181">
      <contour>
        <pt x="964" y="860" on="1"/>
        <pt x="964" y="774" on="0"/>
        <pt x="862" y="642" on="0"/>
        <pt x="775" y="604" on="1"/>
        <pt x="878" y="564" on="0"/>
        <pt x="999" y="421" on="0"/>
        <pt x="999" y="328" on="1"/>
        <pt x="999" y="166" on="0"/>
        <pt x="742" y="-17" on="0"/>
        <pt x="549" y="-17" on="1"/>
        <pt x="348" y="-17" on="0"/>
        <pt x="82" y="166" on="0"/>
        <pt x="82" y="328" on="1"/>
        <pt x="82" y="421" on="0"/>
        <pt x="206" y="564" on="0"/>
        <pt x="313" y="604" on="1"/>
        <pt x="221" y="642" on="0"/>
        <pt x="117" y="774" on="0"/>
        <pt x="117" y="860" on="1"/>
        <pt x="117" y="1013" on="0"/>
        <pt x="361" y="1181" on="0"/>
        <pt x="548" y="1181" on="1"/>
        <pt x="727" y="1181" on="0"/>
        <pt x="964" y="1013" on="0"/>
      </contour>
      <contour>
        <pt x="756" y="341" on="1"/>
        <pt x="756" y="412" on="0"/>
        <pt x="634" y="506" on="0"/>
        <pt x="548" y="506" on="1"/>
        <pt x="454" y="506" on="0"/>
        <pt x="325" y="413" on="0"/>
        <pt x="325" y="341" on="1"/>
        <pt x="325" y="267" on="0"/>
        <pt x="454" y="175" on="0"/>
        <pt x="549" y="175" on="1"/>
        <pt x="635" y="175" on="0"/>
        <pt x="756" y="267" on="0"/>
      </contour>
      <contour>
        <pt x="721" y="846" on="1"/>
        <pt x="721" y="909" on="0"/>
        <pt x="620" y="988" on="0"/>
        <pt x="548" y="988" on="1"/>
        <pt x="467" y="988" on="0"/>
        <pt x="359" y="910" on="0"/>
        <pt x="359" y="846" on="1"/>
        <pt x="359" y="782" on="0"/>
        <pt x="469" y="700" on="0"/>
        <pt x="549" y="700" on="1"/>
        <pt x="620" y="700" on="0"/>
        <pt x="721" y="782" on="0"/>
      </contour>
    </TTGlyph>
    <TTGlyph name="eight.sup" xMin="104" yMin="-11" xMax="782" yMax="812">
      <contour>
        <pt x="758" y="592" on="1"/>
        <pt x="758" y="534" on="0"/>
        <pt x="684" y="443" on="0"/>
        <pt x="621" y="416" on="1"/>
        <pt x="695" y="388" on="0"/>
        <pt x="782" y="288" on="0"/>
        <pt x="782" y="226" on="1"/>
        <pt x="782" y="114" on="0"/>
        <pt x="593" y="-11" on="0"/>
        <pt x="450" y="-11" on="1"/>
        <pt x="301" y="-11" on="0"/>
        <pt x="104" y="114" on="0"/>
        <pt x="104" y="226" on="1"/>
        <pt x="104" y="289" on="0"/>
        <pt x="193" y="388" on="0"/>
        <pt x="271" y="416" on="1"/>
        <pt x="204" y="443" on="0"/>
        <pt x="128" y="534" on="0"/>
        <pt x="128" y="592" on="1"/>
        <pt x="128" y="697" on="0"/>
        <pt x="310" y="812" on="0"/>
        <pt x="449" y="812" on="1"/>
        <pt x="583" y="812" on="0"/>
        <pt x="758" y="697" on="0"/>
      </contour>
      <contour>
        <pt x="592" y="235" on="1"/>
        <pt x="592" y="282" on="0"/>
        <pt x="508" y="342" on="0"/>
        <pt x="449" y="342" on="1"/>
        <pt x="383" y="342" on="0"/>
        <pt x="294" y="282" on="0"/>
        <pt x="294" y="235" on="1"/>
        <pt x="294" y="189" on="0"/>
        <pt x="383" y="134" on="0"/>
        <pt x="450" y="134" on="1"/>
        <pt x="509" y="134" on="0"/>
        <pt x="592" y="189" on="0"/>
      </contour>
      <contour>
        <pt x="566" y="580" on="1"/>
        <pt x="566" y="619" on="0"/>
        <pt x="498" y="666" on="0"/>
        <pt x="449" y="666" on="1"/>
        <pt x="393" y="666" on="0"/>
        <pt x="320" y="620" on="0"/>
        <pt x="320" y="580" on="1"/>
        <pt x="320" y="538" on="0"/>
        <pt x="395" y="488" on="0"/>
        <pt x="450" y="488" on="1"/>
        <pt x="498" y="488" on="0"/>
        <pt x="566" y="539" on="0"/>
      </contour>
    </TTGlyph>
    <TTGlyph name="ellipsis" xMin="153" yMin="0" xMax="1258" yMax="233">
      <component glyphName="period" x="0" y="0" flags="0x4"/>
      <component glyphName="period" x="443" y="0" flags="0x4"/>
      <component glyphName="period" x="863" y="0" flags="0x4"/>
    </TTGlyph>
    <TTGlyph name="emacron" xMin="89" yMin="-21" xMax="1016" yMax="1461">
      <component glyphName="e" x="0" y="0" flags="0x204"/>
      <component glyphName="macron" x="57" y="5" flags="0x4"/>
    </TTGlyph>
    <TTGlyph name="emdash" xMin="173" yMin="621" xMax="1509" yMax="817">
      <component glyphName="minus" x="-80" y="0" scalex="1.59997558594" scaley="1.0" flags="0x4"/>
    </TTGlyph>
    <TTGlyph name="endash" xMin="167" yMin="621" xMax="1253" yMax="817">
      <component glyphName="minus" x="-38" y="0" scalex="1.29998779297" scaley="1.0" flags="0x4"/>
    </TTGlyph>
    <TTGlyph name="eng" xMin="126" yMin="-437" xMax="1030" yMax="1102">
      <contour>
        <pt x="348" y="1082" on="1"/>
        <pt x="361" y="932" on="1"/>
        <pt x="415" y="1013" on="0"/>
        <pt x="574" y="1102" on="0"/>
        <pt x="672" y="1102" on="1"/>
        <pt x="841" y="1102" on="0"/>
        <pt x="1030" y="894" on="0"/>
        <pt x="1030" y="673" on="1"/>
        <pt x="1030" y="-63" on="1"/>
        <pt x="1030" y="-242" on="0"/>
        <pt x="843" y="-437" on="0"/>
        <pt x="677" y="-437" on="1"/>
        <pt x="641" y="-437" on="0"/>
        <pt x="582" y="-429" on="0"/>
        <pt x="550" y="-420" on="1"/>
        <pt x="564" y="-222" on="1"/>
        <pt x="581" y="-227" on="0"/>
        <pt x="641" y="-234" on="0"/>
        <pt x="663" y="-234" on="1"/>
        <pt x="722" y="-234" on="0"/>
        <pt x="787" y="-147" on="0"/>
        <pt x="787" y="-63" on="1"/>
        <pt x="787" y="671" on="1"/>
        <pt x="787" y="797" on="0"/>
        <pt x="689" y="903" on="0"/>
        <pt x="589" y="903" on="1"/>
        <pt x="514" y="903" on="0"/>
        <pt x="404" y="849" on="0"/>
        <pt x="369" y="800" on="1"/>
        <pt x="369" y="0" on="1"/>
        <pt x="126" y="0" on="1"/>
        <pt x="126" y="1082" on="1"/>
      </contour>
    </TTGlyph>
    <TTGlyph name="eogonek" xMin="89" yMin="-378" xMax="1016" yMax="1103">
      <component glyphName="e" x="0" y="0" flags="0x204"/>
      <component glyphName="ogonek" x="483" y="52" flags="0x4"/>
    </TTGlyph>
    <TTGlyph name="epsilon" xMin="96" yMin="-20" xMax="1033" yMax="1101">
      <contour>
        <pt x="96" y="306" on="1"/>
        <pt x="96" y="396" on="0"/>
        <pt x="200" y="524" on="0"/>
        <pt x="299" y="557" on="1"/>
        <pt x="212" y="593" on="0"/>
        <pt x="115" y="714" on="0"/>
        <pt x="115" y="786" on="1"/>
        <pt x="115" y="936" on="0"/>
        <pt x="363" y="1101" on="0"/>
        <pt x="573" y="1101" on="1"/>
        <pt x="761" y="1101" on="0"/>
        <pt x="1016" y="923" on="0"/>
        <pt x="1011" y="781" on="1"/>
        <pt x="1009" y="775" on="1"/>
        <pt x="777" y="775" on="1"/>
        <pt x="777" y="835" on="0"/>
        <pt x="655" y="914" on="0"/>
        <pt x="566" y="914" on="1"/>
        <pt x="464" y="914" on="0"/>
        <pt x="358" y="831" on="0"/>
        <pt x="358" y="774" on="1"/>
        <pt x="358" y="711" on="0"/>
        <pt x="458" y="639" on="0"/>
        <pt x="559" y="639" on="1"/>
        <pt x="758" y="639" on="1"/>
        <pt x="758" y="466" on="1"/>
        <pt x="559" y="466" on="1"/>
        <pt x="451" y="466" on="0"/>
        <pt x="339" y="393" on="0"/>
        <pt x="339" y="316" on="1"/>
        <pt x="339" y="253" on="0"/>
        <pt x="460" y="166" on="0"/>
        <pt x="566" y="166" on="1"/>
        <pt x="668" y="166" on="0"/>
        <pt x="794" y="257" on="0"/>
        <pt x="794" y="321" on="1"/>
        <pt x="1026" y="321" on="1"/>
        <pt x="1028" y="315" on="1"/>
        <pt x="1033" y="152" on="0"/>
        <pt x="761" y="-20" on="0"/>
        <pt x="573" y="-20" on="1"/>
        <pt x="363" y="-20" on="0"/>
        <pt x="96" y="155" on="0"/>
      </contour>
    </TTGlyph>
    <TTGlyph name="epsilontonos" xMin="96" yMin="-20" xMax="1033" yMax="1618">
      <component glyphName="epsilon" x="0" y="0" flags="0x204"/>
      <component glyphName="tonos" x="269" y="-20" flags="0x4"/>
    </TTGlyph>
    <TTGlyph name="equal" xMin="145" yMin="366" xMax="1007" yMax="992">
      <contour>
        <pt x="1007" y="790" on="1"/>
        <pt x="145" y="790" on="1"/>
        <pt x="145" y="992" on="1"/>
        <pt x="1007" y="992" on="1"/>
      </contour>
      <contour>
        <pt x="1007" y="366" on="1"/>
        <pt x="145" y="366" on="1"/>
        <pt x="145" y="567" on="1"/>
        <pt x="1007" y="567" on="1"/>
      </contour>
    </TTGlyph>
    <TTGlyph name="estimated" xMin="150" yMin="-20" xMax="1169" yMax="1102">
      <contour>
        <pt x="1044" y="94" on="1"/>
        <pt x="957" y="39" on="0"/>
        <pt x="769" y="-20" on="0"/>
        <pt x="674" y="-20" on="1"/>
        <pt x="456" y="-20" on="0"/>
        <pt x="150" y="309" on="0"/>
        <pt x="150" y="541" on="1"/>
        <pt x="150" y="767" on="0"/>
        <pt x="473" y="1102" on="0"/>
        <pt x="674" y="1102" on="1"/>
        <pt x="881" y="1102" on="0"/>
        <pt x="1169" y="792" on="0"/>
        <pt x="1169" y="561" on="1"/>
        <pt x="1169" y="514" on="1"/>
        <pt x="401" y="514" on="1"/>
        <pt x="401" y="186" on="1"/>
        <pt x="456" y="133" on="0"/>
        <pt x="597" y="76" on="0"/>
        <pt x="674" y="75" on="1"/>
        <pt x="769" y="76" on="0"/>
        <pt x="955" y="136" on="0"/>
        <pt x="1042" y="198" on="1"/>
      </contour>
      <contour>
        <pt x="674" y="1007" on="1"/>
        <pt x="600" y="1008" on="0"/>
        <pt x="459" y="943" on="0"/>
        <pt x="401" y="886" on="1"/>
        <pt x="401" y="609" on="1"/>
        <pt x="941" y="609" on="1"/>
        <pt x="941" y="895" on="1"/>
        <pt x="887" y="947" on="0"/>
        <pt x="748" y="1008" on="0"/>
      </contour>
    </TTGlyph>
    <TTGlyph name="eta" xMin="126" yMin="-415" xMax="1030" yMax="1102">
      <contour>
        <pt x="348" y="1082" on="1"/>
        <pt x="361" y="932" on="1"/>
        <pt x="415" y="1013" on="0"/>
        <pt x="574" y="1102" on="0"/>
        <pt x="672" y="1102" on="1"/>
        <pt x="843" y="1102" on="0"/>
        <pt x="1030" y="900" on="0"/>
        <pt x="1030" y="673" on="1"/>
        <pt x="1030" y="-415" on="1"/>
        <pt x="787" y="-415" on="1"/>
        <pt x="787" y="671" on="1"/>
        <pt x="787" y="797" on="0"/>
        <pt x="688" y="907" on="0"/>
        <pt x="589" y="907" on="1"/>
        <pt x="514" y="907" on="0"/>
        <pt x="404" y="851" on="0"/>
        <pt x="369" y="801" on="1"/>
        <pt x="369" y="0" on="1"/>
        <pt x="126" y="0" on="1"/>
        <pt x="126" y="1082" on="1"/>
      </contour>
    </TTGlyph>
    <TTGlyph name="etatonos" xMin="126" yMin="-415" xMax="1030" yMax="1619">
      <component glyphName="eta" x="0" y="0" flags="0x204"/>
      <component glyphName="tonos" x="279" y="-19" flags="0x4"/>
    </TTGlyph>
    <TTGlyph name="eth" xMin="60" yMin="-21" xMax="1102" yMax="1517">
      <contour>
        <pt x="897" y="1292" on="1"/>
        <pt x="995" y="1187" on="0"/>
        <pt x="1102" y="911" on="0"/>
        <pt x="1102" y="748" on="1"/>
        <pt x="1102" y="541" on="1"/>
        <pt x="1102" y="293" on="0"/>
        <pt x="802" y="-21" on="0"/>
        <pt x="577" y="-21" on="1"/>
        <pt x="350" y="-21" on="0"/>
        <pt x="60" y="260" on="0"/>
        <pt x="60" y="468" on="1"/>
        <pt x="60" y="694" on="0"/>
        <pt x="333" y="973" on="0"/>
        <pt x="555" y="973" on="1"/>
        <pt x="640" y="973" on="0"/>
        <pt x="791" y="910" on="0"/>
        <pt x="843" y="858" on="1"/>
        <pt x="847" y="863" on="1"/>
        <pt x="835" y="957" on="0"/>
        <pt x="753" y="1114" on="0"/>
        <pt x="689" y="1174" on="1"/>
        <pt x="421" y="1024" on="1"/>
        <pt x="343" y="1133" on="1"/>
        <pt x="562" y="1256" on="1"/>
        <pt x="562" y="1262" on="1"/>
        <pt x="529" y="1279" on="0"/>
        <pt x="452" y="1309" on="0"/>
        <pt x="413" y="1321" on="1"/>
        <pt x="488" y="1517" on="1"/>
        <pt x="572" y="1498" on="0"/>
        <pt x="724" y="1431" on="0"/>
        <pt x="790" y="1385" on="1"/>
        <pt x="997" y="1501" on="1"/>
        <pt x="1075" y="1392" on="1"/>
      </contour>
      <contour>
        <pt x="581" y="173" on="1"/>
        <pt x="706" y="173" on="0"/>
        <pt x="859" y="381" on="0"/>
        <pt x="859" y="541" on="1"/>
        <pt x="859" y="673" on="1"/>
        <pt x="824" y="721" on="0"/>
        <pt x="679" y="785" on="0"/>
        <pt x="576" y="785" on="1"/>
        <pt x="450" y="785" on="0"/>
        <pt x="303" y="605" on="0"/>
        <pt x="303" y="468" on="1"/>
        <pt x="303" y="347" on="0"/>
        <pt x="454" y="173" on="0"/>
      </contour>
    </TTGlyph>
    <TTGlyph name="exclam" xMin="154" yMin="0" xMax="397" yMax="1456">
      <contour>
        <pt x="397" y="491" on="1"/>
        <pt x="154" y="491" on="1"/>
        <pt x="154" y="1456" on="1"/>
        <pt x="397" y="1456" on="1"/>
      </contour>
      <contour>
        <pt x="397" y="0" on="1"/>
        <pt x="154" y="0" on="1"/>
        <pt x="154" y="234" on="1"/>
        <pt x="397" y="234" on="1"/>
      </contour>
    </TTGlyph>
    <TTGlyph name="exclamdbl" xMin="154" yMin="0" xMax="946" yMax="1456">
      <component glyphName="exclam" x="0" y="0" flags="0x4"/>
      <component glyphName="exclam" x="549" y="0" flags="0x4"/>
    </TTGlyph>
    <TTGlyph name="exclamdown" xMin="143" yMin="-374" xMax="386" yMax="1082">
      <contour>
        <pt x="386" y="-374" on="1"/>
        <pt x="143" y="-374" on="1"/>
        <pt x="143" y="590" on="1"/>
        <pt x="386" y="590" on="1"/>
      </contour>
      <contour>
        <pt x="386" y="847" on="1"/>
        <pt x="143" y="847" on="1"/>
        <pt x="143" y="1082" on="1"/>
        <pt x="386" y="1082" on="1"/>
      </contour>
    </TTGlyph>
    <TTGlyph name="f" xMin="42" yMin="0" xMax="730" yMax="1581">
      <contour>
        <pt x="207" y="0" on="1"/>
        <pt x="207" y="902" on="1"/>
        <pt x="42" y="902" on="1"/>
        <pt x="42" y="1082" on="1"/>
        <pt x="207" y="1082" on="1"/>
        <pt x="207" y="1208" on="1"/>
        <pt x="207" y="1387" on="0"/>
        <pt x="402" y="1581" on="0"/>
        <pt x="578" y="1581" on="1"/>
        <pt x="613" y="1581" on="0"/>
        <pt x="685" y="1570" on="0"/>
        <pt x="730" y="1560" on="1"/>
        <pt x="705" y="1372" on="1"/>
        <pt x="685" y="1376" on="0"/>
        <pt x="636" y="1382" on="0"/>
        <pt x="608" y="1382" on="1"/>
        <pt x="529" y="1382" on="0"/>
        <pt x="450" y="1292" on="0"/>
        <pt x="450" y="1208" on="1"/>
        <pt x="450" y="1082" on="1"/>
        <pt x="670" y="1082" on="1"/>
        <pt x="670" y="902" on="1"/>
        <pt x="450" y="902" on="1"/>
        <pt x="450" y="0" on="1"/>
      </contour>
    </TTGlyph>
    <TTGlyph name="fi" xMin="24" yMin="0" xMax="1047" yMax="1581">
      <contour>
        <pt x="189" y="0" on="1"/>
        <pt x="189" y="902" on="1"/>
        <pt x="24" y="902" on="1"/>
        <pt x="24" y="1082" on="1"/>
        <pt x="189" y="1082" on="1"/>
        <pt x="189" y="1174" on="1"/>
        <pt x="189" y="1369" on="0"/>
        <pt x="419" y="1581" on="0"/>
        <pt x="626" y="1581" on="1"/>
        <pt x="698" y="1581" on="0"/>
        <pt x="840" y="1550" on="0"/>
        <pt x="932" y="1521" on="1"/>
        <pt x="895" y="1320" on="1"/>
        <pt x="833" y="1341" on="0"/>
        <pt x="713" y="1368" on="0"/>
        <pt x="643" y="1368" on="1"/>
        <pt x="534" y="1368" on="0"/>
        <pt x="432" y="1271" on="0"/>
        <pt x="432" y="1174" on="1"/>
        <pt x="432" y="1082" on="1"/>
        <pt x="645" y="1082" on="1"/>
        <pt x="645" y="902" on="1"/>
        <pt x="432" y="902" on="1"/>
        <pt x="432" y="0" on="1"/>
      </contour>
      <contour>
        <pt x="1047" y="0" on="1"/>
        <pt x="804" y="0" on="1"/>
        <pt x="804" y="1082" on="1"/>
        <pt x="1047" y="1082" on="1"/>
      </contour>
    </TTGlyph>
    <TTGlyph name="five" xMin="130" yMin="-21" xMax="1062" yMax="1456">
      <contour>
        <pt x="156" y="651" on="1"/>
        <pt x="240" y="1456" on="1"/>
        <pt x="1009" y="1456" on="1"/>
        <pt x="1009" y="1246" on="1"/>
        <pt x="442" y="1246" on="1"/>
        <pt x="398" y="881" on="1"/>
        <pt x="441" y="913" on="0"/>
        <pt x="554" y="954" on="0"/>
        <pt x="625" y="956" on="1"/>
        <pt x="830" y="958" on="0"/>
        <pt x="1062" y="694" on="0"/>
        <pt x="1062" y="465" on="1"/>
        <pt x="1062" y="251" on="0"/>
        <pt x="818" y="-21" on="0"/>
        <pt x="587" y="-21" on="1"/>
        <pt x="395" y="-21" on="0"/>
        <pt x="130" y="190" on="0"/>
        <pt x="135" y="384" on="1"/>
        <pt x="137" y="389" on="1"/>
        <pt x="364" y="397" on="1"/>
        <pt x="364" y="291" on="0"/>
        <pt x="488" y="173" on="0"/>
        <pt x="587" y="173" on="1"/>
        <pt x="700" y="173" on="0"/>
        <pt x="819" y="332" on="0"/>
        <pt x="819" y="463" on="1"/>
        <pt x="819" y="595" on="0"/>
        <pt x="697" y="760" on="0"/>
        <pt x="584" y="760" on="1"/>
        <pt x="484" y="760" on="0"/>
        <pt x="387" y="695" on="0"/>
        <pt x="365" y="634" on="1"/>
      </contour>
    </TTGlyph>
    <TTGlyph name="five.lnum" xMin="140" yMin="-21" xMax="1072" yMax="1456">
      <contour>
        <pt x="167" y="651" on="1"/>
        <pt x="251" y="1456" on="1"/>
        <pt x="1019" y="1456" on="1"/>
        <pt x="1019" y="1246" on="1"/>
        <pt x="453" y="1246" on="1"/>
        <pt x="409" y="881" on="1"/>
        <pt x="451" y="913" on="0"/>
        <pt x="565" y="954" on="0"/>
        <pt x="636" y="956" on="1"/>
        <pt x="841" y="958" on="0"/>
        <pt x="1072" y="694" on="0"/>
        <pt x="1072" y="465" on="1"/>
        <pt x="1072" y="251" on="0"/>
        <pt x="828" y="-21" on="0"/>
        <pt x="597" y="-21" on="1"/>
        <pt x="405" y="-21" on="0"/>
        <pt x="140" y="190" on="0"/>
        <pt x="145" y="384" on="1"/>
        <pt x="147" y="389" on="1"/>
        <pt x="375" y="397" on="1"/>
        <pt x="375" y="291" on="0"/>
        <pt x="498" y="173" on="0"/>
        <pt x="597" y="173" on="1"/>
        <pt x="710" y="173" on="0"/>
        <pt x="829" y="332" on="0"/>
        <pt x="829" y="463" on="1"/>
        <pt x="829" y="595" on="0"/>
        <pt x="707" y="760" on="0"/>
        <pt x="594" y="760" on="1"/>
        <pt x="494" y="760" on="0"/>
        <pt x="397" y="695" on="0"/>
        <pt x="375" y="634" on="1"/>
      </contour>
    </TTGlyph>
    <TTGlyph name="five.smcp" xMin="79" yMin="-17" xMax="970" yMax="1165">
      <contour>
        <pt x="124" y="504" on="1"/>
        <pt x="195" y="1165" on="1"/>
        <pt x="908" y="1165" on="1"/>
        <pt x="908" y="967" on="1"/>
        <pt x="408" y="967" on="1"/>
        <pt x="379" y="698" on="1"/>
        <pt x="416" y="720" on="0"/>
        <pt x="524" y="752" on="0"/>
        <pt x="582" y="754" on="1"/>
        <pt x="764" y="757" on="0"/>
        <pt x="970" y="554" on="0"/>
        <pt x="970" y="371" on="1"/>
        <pt x="970" y="193" on="0"/>
        <pt x="750" y="-17" on="0"/>
        <pt x="523" y="-17" on="1"/>
        <pt x="333" y="-17" on="0"/>
        <pt x="79" y="147" on="0"/>
        <pt x="84" y="307" on="1"/>
        <pt x="86" y="313" on="1"/>
        <pt x="319" y="328" on="1"/>
        <pt x="319" y="259" on="0"/>
        <pt x="432" y="175" on="0"/>
        <pt x="523" y="175" on="1"/>
        <pt x="626" y="175" on="0"/>
        <pt x="727" y="283" on="0"/>
        <pt x="727" y="377" on="1"/>
        <pt x="727" y="468" on="0"/>
        <pt x="625" y="577" on="0"/>
        <pt x="534" y="577" on="1"/>
        <pt x="447" y="577" on="0"/>
        <pt x="357" y="530" on="0"/>
        <pt x="337" y="491" on="1"/>
      </contour>
    </TTGlyph>
    <TTGlyph name="five.sup" xMin="106" yMin="-11" xMax="769" yMax="801">
      <contour>
        <pt x="137" y="346" on="1"/>
        <pt x="189" y="801" on="1"/>
        <pt x="721" y="801" on="1"/>
        <pt x="721" y="655" on="1"/>
        <pt x="358" y="655" on="1"/>
        <pt x="337" y="485" on="1"/>
        <pt x="365" y="501" on="0"/>
        <pt x="442" y="524" on="0"/>
        <pt x="485" y="525" on="1"/>
        <pt x="618" y="527" on="0"/>
        <pt x="769" y="385" on="0"/>
        <pt x="769" y="260" on="1"/>
        <pt x="769" y="135" on="0"/>
        <pt x="605" y="-11" on="0"/>
        <pt x="436" y="-11" on="1"/>
        <pt x="294" y="-11" on="0"/>
        <pt x="106" y="101" on="0"/>
        <pt x="112" y="211" on="1"/>
        <pt x="113" y="217" on="1"/>
        <pt x="294" y="228" on="1"/>
        <pt x="294" y="183" on="0"/>
        <pt x="372" y="134" on="0"/>
        <pt x="436" y="134" on="1"/>
        <pt x="508" y="134" on="0"/>
        <pt x="578" y="197" on="0"/>
        <pt x="578" y="256" on="1"/>
        <pt x="578" y="317" on="0"/>
        <pt x="507" y="392" on="0"/>
        <pt x="447" y="392" on="1"/>
        <pt x="386" y="392" on="0"/>
        <pt x="321" y="361" on="0"/>
        <pt x="307" y="337" on="1"/>
      </contour>
    </TTGlyph>
    <TTGlyph name="fiveeighths" xMin="104" yMin="-11" xMax="1824" yMax="1455">
      <component glyphName="five.sup" x="-2" y="654" flags="0x4"/>
      <component glyphName="fraction" x="503" y="0" flags="0x4"/>
      <component glyphName="eight.sup" x="1042" y="0" flags="0x4"/>
    </TTGlyph>
</ttFont>
